<?xml version="1.0" encoding="utf-8"?>
<!-- Generator: Adobe Illustrator 26.0.2, SVG Export Plug-In . SVG Version: 6.00 Build 0)  -->
<svg version="1.1"
	 id="svg1" inkscape:export-filename="ui.svg" sodipodi:docname="play ui.eps" xmlns:inkscape="http://www.inkscape.org/namespaces/inkscape" xmlns:sodipodi="http://sodipodi.sourceforge.net/DTD/sodipodi-0.dtd" xmlns:svg="http://www.w3.org/2000/svg"
	 xmlns="http://www.w3.org/2000/svg" xmlns:xlink="http://www.w3.org/1999/xlink" x="0px" y="0px" viewBox="0 0 2267.7 1700.8"
	 style="enable-background:new 0 0 2267.7 1700.8;" xml:space="preserve">
<style type="text/css">
	.st0{fill:#FDFDE0;}
	.st1{clip-path:url(#SVGID_00000150070696125797976450000017313015172649272222_);}
	.st2{clip-path:url(#SVGID_00000159440104153272087580000012245335101710826900_);fill:#FDD5E1;}
	.st3{clip-path:url(#SVGID_00000026148602634150349300000002825278606210115752_);fill:#FD98B6;}
	.st4{opacity:0.5;clip-path:url(#SVGID_00000062894240583922565490000011963994105674234255_);}
	.st5{clip-path:url(#SVGID_00000183214350379147348030000013011613994158811821_);fill:#DE7192;}
	.st6{opacity:0.3;clip-path:url(#SVGID_00000119839555737491628990000012473192175239961492_);}
	.st7{clip-path:url(#SVGID_00000146459197356651920630000013116136984267207605_);fill:#E87999;}
	.st8{opacity:0.5;clip-path:url(#SVGID_00000049934082534923916250000016819564040695555481_);}
	.st9{clip-path:url(#SVGID_00000076575567343145761500000005346483660540316547_);fill:#DE7192;}
	.st10{clip-path:url(#SVGID_00000102518661109561445880000005367949036411391420_);fill:#C0EBFF;}
	.st11{clip-path:url(#SVGID_00000059296843033046595430000018146202050265905822_);fill:#B05870;}
	.st12{clip-path:url(#SVGID_00000162312665503991843840000012109749105738907324_);fill:#FFECA6;}
	.st13{opacity:0.5;clip-path:url(#SVGID_00000018939713140624102440000016400655358026539967_);}
	.st14{clip-path:url(#SVGID_00000028289905727273814810000008117136514051764913_);fill:#E6B873;}
	.st15{clip-path:url(#SVGID_00000016067740636703831090000002476355809640212897_);fill:#FFECA6;}
	.st16{clip-path:url(#SVGID_00000078018704264279542710000009553276408557269693_);fill:#B05870;}
	.st17{opacity:0.5;clip-path:url(#SVGID_00000139255746157514513840000005973702427243639954_);}
	.st18{clip-path:url(#SVGID_00000041291152444198667890000006123571615495775659_);fill:#6B2A3D;}
	.st19{opacity:0.5;clip-path:url(#SVGID_00000163761976434112639910000005907489409436626065_);}
	.st20{clip-path:url(#SVGID_00000099629795113329768760000005632994945694231692_);fill:#6B2A3D;}
	.st21{clip-path:url(#SVGID_00000127727579678524367600000008860362849189323922_);fill:#FFFFFF;}
	.st22{clip-path:url(#SVGID_00000168802082051100573390000007460495430930776712_);fill:#C2677F;}
	.st23{clip-path:url(#SVGID_00000034068734633339180180000013565034489476576662_);fill:#C2677F;}
	.st24{clip-path:url(#SVGID_00000175283558044220172600000007649612908419971461_);fill:#C2677F;}
	.st25{clip-path:url(#SVGID_00000022560482419215903610000001329911763506646967_);fill:#FFF2C4;}
	.st26{clip-path:url(#SVGID_00000104708063802373378850000004194039147721981589_);fill:#E6B873;}
	.st27{clip-path:url(#SVGID_00000030466022833369284590000008145366556617985409_);fill:#FDD5E1;}
	.st28{clip-path:url(#SVGID_00000088817069610370410870000000195917773387713981_);fill:#808080;}
	.st29{clip-path:url(#SVGID_00000064341631382706820170000018392717607515876794_);fill:#666666;}
	.st30{clip-path:url(#SVGID_00000031925255818847715170000014421905211713525147_);fill:#A6A6A6;}
	.st31{clip-path:url(#SVGID_00000007419911608451564100000012721689401425709492_);fill:#666666;}
	.st32{clip-path:url(#SVGID_00000074412531559399447320000004727517228016581269_);fill:#999999;}
	.st33{clip-path:url(#SVGID_00000165952887953740650620000004701338370119777920_);fill:#FDD5E1;}
	.st34{clip-path:url(#SVGID_00000046312976642950145930000006883339071858758027_);fill:#FDD5E1;}
	.st35{clip-path:url(#SVGID_00000135680192749255228970000005585446794208119483_);fill:#808080;}
	.st36{clip-path:url(#SVGID_00000013873701810762537310000002001782515453763225_);fill:#666666;}
	.st37{clip-path:url(#SVGID_00000006675043308982898150000008890018206936668309_);fill:#A6A6A6;}
	.st38{clip-path:url(#SVGID_00000145752245320871638950000007299961074402903701_);fill:#666666;}
	.st39{clip-path:url(#SVGID_00000101820830346661031840000001252815717365587890_);fill:#999999;}
	.st40{opacity:0.3;clip-path:url(#SVGID_00000081646244389447921650000011926807629298377658_);}
	.st41{clip-path:url(#SVGID_00000071524546388187152580000013989527311767000706_);fill:#E87999;}
	.st42{opacity:0.5;clip-path:url(#SVGID_00000070111435121656863550000000613811641991684285_);}
	.st43{clip-path:url(#SVGID_00000077288963170991837070000013935170669797301159_);fill:#DE7192;}
	.st44{opacity:0.3;clip-path:url(#SVGID_00000139991077370908469390000013217428495731677326_);}
	.st45{clip-path:url(#SVGID_00000028286795981293078190000007926056069076471194_);fill:#E87999;}
	.st46{clip-path:url(#SVGID_00000114071732243183245250000018218352618710808455_);fill:#FFFFFF;}
	.st47{clip-path:url(#SVGID_00000093897836099827621910000006076272699956355230_);fill:#C0EBFF;}
	.st48{clip-path:url(#SVGID_00000111164339601575778310000013075362795755013301_);fill:#9BD1EB;}
	.st49{clip-path:url(#SVGID_00000028294945431452349130000011133444956362868101_);fill:#C0EBFF;}
	.st50{fill:#FDFDE0;stroke:#DC8689;stroke-width:26.3003;stroke-linejoin:round;stroke-miterlimit:11.3386;}
</style>
<path id="path2" inkscape:label="BG" class="st0" d="M2259.1,1700.8H0V0h2259.1V1700.8"/>
<g>
	<defs>
		<rect id="SVGID_1_" width="2267.7" height="1700.8"/>
	</defs>
	<clipPath id="SVGID_00000069376312787271410620000005187484055463255482_">
		<use xlink:href="#SVGID_1_"  style="overflow:visible;"/>
	</clipPath>
	<g style="clip-path:url(#SVGID_00000069376312787271410620000005187484055463255482_);">
		<defs>
			<rect id="SVGID_00000092430885894633444890000003047017673720920197_" x="-530.5" y="-1845.5" width="6156.1" height="7216.3"/>
		</defs>
		<clipPath id="SVGID_00000170251607776410578750000003392422602665211269_">
			<use xlink:href="#SVGID_00000092430885894633444890000003047017673720920197_"  style="overflow:visible;"/>
		</clipPath>
		<path id="path274" style="clip-path:url(#SVGID_00000170251607776410578750000003392422602665211269_);fill:#FDD5E1;" d="
			M2136.3,234.8c48,295.3,86.2,1101.6,2.8,1173.3c-83.4,71.7-2015.7,52.1-2063,9.8c-47.3-42.4-33.4-394.4,27.8-440
			c61.2-45.6,177.9-29.3,211.3-303.1c33.4-273.8,38.9-593.2,127.9-632.3c89-39.1,1273.7-64.1,1487.5-26.1
			C2114,49.1,2125.2,166.4,2136.3,234.8"/>
	</g>
	<g style="clip-path:url(#SVGID_00000069376312787271410620000005187484055463255482_);">
		<defs>
			<rect id="SVGID_00000152256914182857720180000002535042978206619309_" x="-530.5" y="-1845.5" width="6156.1" height="7216.3"/>
		</defs>
		<clipPath id="SVGID_00000103247371208946407930000008186075868112725434_">
			<use xlink:href="#SVGID_00000152256914182857720180000002535042978206619309_"  style="overflow:visible;"/>
		</clipPath>
		<path id="path279-6" style="clip-path:url(#SVGID_00000103247371208946407930000008186075868112725434_);fill:#FD98B6;" d="
			M759.1,420.6c-64.9,0-31.5,173.8-127.9,154.3c-96.4-19.6-207.6-143.4-289.1-160.8c-0.1,0-0.2-0.1-0.3-0.1
			C360.2,228.4,382,69.4,443.1,42.5c89-39.1,1273.7-64.1,1487.5-26.1C2114,49,2125.2,166.4,2136.3,234.8
			c16,98.2,30.8,253.1,40.5,418.6c-30.4,33.7-67,21.9-88.7-26.4c-35.2-78.2,0-176-85.3-173.8c-85.3,2.2-270.6,110.8-420.7,84.7
			c-150.1-26.1-111.2-104.3-190.9-115.2c-79.7-10.9-252.1,139.1-363.3,136.9C916.7,557.5,824,420.6,759.1,420.6"/>
	</g>
	<g style="clip-path:url(#SVGID_00000069376312787271410620000005187484055463255482_);">
		<defs>
			<rect id="SVGID_00000051362849225984704660000011852004140966887082_" x="-530.5" y="-1845.5" width="6156.1" height="7216.3"/>
		</defs>
		<clipPath id="SVGID_00000023252164630692989610000017948232870445647488_">
			<use xlink:href="#SVGID_00000051362849225984704660000011852004140966887082_"  style="overflow:visible;"/>
		</clipPath>
		
			<g id="g324" transform="matrix(-3.8121158,0,0,3.9202388,2236.5628,-598.83247)" style="opacity:0.5;clip-path:url(#SVGID_00000023252164630692989610000017948232870445647488_);">
			<g>
				<defs>
					<rect id="SVGID_00000039121982639450304760000013442154926777394585_" x="-310.9" y="131.4" width="1094.5" height="55.6"/>
				</defs>
				<clipPath id="SVGID_00000003815927562122049250000008653304267695098519_">
					<use xlink:href="#SVGID_00000039121982639450304760000013442154926777394585_"  style="overflow:visible;"/>
				</clipPath>
				<path id="path324-3" style="clip-path:url(#SVGID_00000003815927562122049250000008653304267695098519_);fill:#DE7192;" d="
					M379.9,155.6c-92.5-4-229-5.1-284-0.5c-7.5,6.3-4.7,14.8,43.4,9.6c51.3-5.5,131.3-8.6,157.5-6.4
					C319,160.2,376.8,164.3,379.9,155.6"/>
			</g>
		</g>
	</g>
	<g style="clip-path:url(#SVGID_00000069376312787271410620000005187484055463255482_);">
		<defs>
			<rect id="SVGID_00000127030752703944649330000008036233456080023968_" x="-530.5" y="-1845.5" width="6156.1" height="7216.3"/>
		</defs>
		<clipPath id="SVGID_00000147909011226460770510000005713006961461012664_">
			<use xlink:href="#SVGID_00000127030752703944649330000008036233456080023968_"  style="overflow:visible;"/>
		</clipPath>
		
			<g id="g327" transform="matrix(-3.8121158,0,0,3.9202388,2236.5628,-598.83247)" style="opacity:0.3;clip-path:url(#SVGID_00000147909011226460770510000005713006961461012664_);">
			<g>
				<defs>
					<rect id="SVGID_00000011753027574540235570000003916926316421008812_" x="-774.8" y="299.9" width="2137.2" height="357.3"/>
				</defs>
				<clipPath id="SVGID_00000068679571927841752470000016148654298923525040_">
					<use xlink:href="#SVGID_00000011753027574540235570000003916926316421008812_"  style="overflow:visible;"/>
				</clipPath>
				<path id="path327" style="clip-path:url(#SVGID_00000068679571927841752470000016148654298923525040_);fill:#E87999;" d="
					M572.3,442c-6.3-5.9-14.2-11.4-17-7.9c-4.9,6.1-4.9,29.4,9.7,37.1c0,0-12.6,13.3-45.2,24.9c-32.6,11.6-28.2-24.9-69-27.2
					c-40.8-2.2-54.5,36-66.1,43.2c-11.7,7.2-154.1,7.2-196.4,3.3c-42.3-3.9-23.8-42.7-77.8-44.9c-54-2.2-47.6,33.3-70.5,24.4
					c-14.5-5.6-15.1-38.8-15.3-53.8c-1.9,3.6-8.9,4.4-11.1,7.8c1.5,32.9,5.2,57.1,12.1,62.9c21.9,18.3,528.8,13.3,541.2,2.5
					C574.3,507.8,575.9,471.7,572.3,442"/>
			</g>
		</g>
	</g>
	<g style="clip-path:url(#SVGID_00000069376312787271410620000005187484055463255482_);">
		<defs>
			<rect id="SVGID_00000054226631474927204640000012639414352507088014_" x="-530.5" y="-1845.5" width="6156.1" height="7216.3"/>
		</defs>
		<clipPath id="SVGID_00000019660911673741703350000007593414968288706453_">
			<use xlink:href="#SVGID_00000054226631474927204640000012639414352507088014_"  style="overflow:visible;"/>
		</clipPath>
		
			<g id="g353" transform="matrix(-3.8121158,0,0,3.9202388,2236.5628,-598.83247)" style="opacity:0.5;clip-path:url(#SVGID_00000019660911673741703350000007593414968288706453_);">
			<g>
				<defs>
					<rect id="SVGID_00000167375422102887757920000000917018506704390558_" x="327.7" y="-55.1" width="259.1" height="647.6"/>
				</defs>
				<clipPath id="SVGID_00000000913081542955236000000016465615468346037381_">
					<use xlink:href="#SVGID_00000167375422102887757920000000917018506704390558_"  style="overflow:visible;"/>
				</clipPath>
				<path id="path353" style="clip-path:url(#SVGID_00000000913081542955236000000016465615468346037381_);fill:#DE7192;" d="
					M427.4,190.2c-7.3,26.6-3.4,146.9-0.5,154.5c2.9,7.7,62.7,9.4,64.2,1.2c1.5-8.3-13.1-151.6-17-156.3
					C470.2,184.9,428.9,184.9,427.4,190.2"/>
			</g>
		</g>
	</g>
	<g style="clip-path:url(#SVGID_00000069376312787271410620000005187484055463255482_);">
		<defs>
			<rect id="SVGID_00000122693305763657300510000014815675972521838245_" x="-530.5" y="-1845.5" width="6156.1" height="7216.3"/>
		</defs>
		<clipPath id="SVGID_00000162351736045837787950000010645683082894439858_">
			<use xlink:href="#SVGID_00000122693305763657300510000014815675972521838245_"  style="overflow:visible;"/>
		</clipPath>
		<path id="path355" style="clip-path:url(#SVGID_00000162351736045837787950000010645683082894439858_);fill:#C0EBFF;" d="
			M607.1,167.4c27.9,104.3,13,575.7,1.8,605.8c-11.1,30-239.1,37-244.7,4.6c-5.6-32.4,50.1-594.2,64.9-612.7
			C444,146.6,601.6,146.6,607.1,167.4"/>
	</g>
	<g style="clip-path:url(#SVGID_00000069376312787271410620000005187484055463255482_);">
		<defs>
			<rect id="SVGID_00000041263547295031328110000014066779152472433054_" x="-530.5" y="-1845.5" width="6156.1" height="7216.3"/>
		</defs>
		<clipPath id="SVGID_00000026163686542655107620000000017861884842893491_">
			<use xlink:href="#SVGID_00000041263547295031328110000014066779152472433054_"  style="overflow:visible;"/>
		</clipPath>
		<path id="path367" style="clip-path:url(#SVGID_00000026163686542655107620000000017861884842893491_);fill:#B05870;" d="
			M2155.9,1228.9c54.2,0,108.3,8.7,108.3,110.8c0,102.1-71.1,119.5-138.7,119.5s-57-68-49.1-132.5
			C2081.5,1285.4,2115.3,1228.9,2155.9,1228.9"/>
	</g>
	<g style="clip-path:url(#SVGID_00000069376312787271410620000005187484055463255482_);">
		<defs>
			<rect id="SVGID_00000155826139959525237910000007334363194446783659_" x="-530.5" y="-1845.5" width="6156.1" height="7216.3"/>
		</defs>
		<clipPath id="SVGID_00000019644746907126991410000006917268205351495345_">
			<use xlink:href="#SVGID_00000155826139959525237910000007334363194446783659_"  style="overflow:visible;"/>
		</clipPath>
		<path id="path369" style="clip-path:url(#SVGID_00000019644746907126991410000006917268205351495345_);fill:#FFECA6;" d="
			M2189.1,1060.4c-42.6-6.5-83.5,108.3-5.6,130C2203.2,1193.1,2201.7,1058.6,2189.1,1060.4"/>
	</g>
	<g style="clip-path:url(#SVGID_00000069376312787271410620000005187484055463255482_);">
		<defs>
			<rect id="SVGID_00000086683751903475415010000018006681591459861175_" x="-530.5" y="-1845.5" width="6156.1" height="7216.3"/>
		</defs>
		<clipPath id="SVGID_00000164506189844549323750000004454642990630604709_">
			<use xlink:href="#SVGID_00000086683751903475415010000018006681591459861175_"  style="overflow:visible;"/>
		</clipPath>
		
			<g id="g372" transform="matrix(-3.8121158,0,0,3.9202388,2236.5628,-598.83247)" style="opacity:0.5;clip-path:url(#SVGID_00000164506189844549323750000004454642990630604709_);">
			<g>
				<defs>
					<rect id="SVGID_00000098942981660412622010000003588066251048447645_" x="-11.2" y="407.4" width="58.1" height="78"/>
				</defs>
				<clipPath id="SVGID_00000120520520196275247310000000448179459218476206_">
					<use xlink:href="#SVGID_00000098942981660412622010000003588066251048447645_"  style="overflow:visible;"/>
				</clipPath>
				<path id="path372-2" style="clip-path:url(#SVGID_00000120520520196275247310000000448179459218476206_);fill:#E6B873;" d="
					M24.9,436.5c-0.1,6.4-3.3,12.5-11.5,14.7c-1.5,0.2-2.5-2.6-3.2-6.7c0.4,6.6,1.6,12.2,3.7,11.9C24.4,453.6,26.7,444.5,24.9,436.5
					"/>
			</g>
		</g>
	</g>
	<g style="clip-path:url(#SVGID_00000069376312787271410620000005187484055463255482_);">
		<defs>
			<rect id="SVGID_00000106128920290585516710000008429238420995639202_" x="-530.5" y="-1845.5" width="6156.1" height="7216.3"/>
		</defs>
		<clipPath id="SVGID_00000035522896704891763600000002328838346922479760_">
			<use xlink:href="#SVGID_00000106128920290585516710000008429238420995639202_"  style="overflow:visible;"/>
		</clipPath>
		<path id="path374-9" style="clip-path:url(#SVGID_00000035522896704891763600000002328838346922479760_);fill:#FFECA6;" d="
			M73.3,1050.7c79.7-4.3,83.4,152.1-25.9,169.5C14,1218,25.1,1055.1,73.3,1050.7"/>
	</g>
	<g style="clip-path:url(#SVGID_00000069376312787271410620000005187484055463255482_);">
		<defs>
			<rect id="SVGID_00000141446351504786171840000013928887757083554947_" x="-530.5" y="-1845.5" width="6156.1" height="7216.3"/>
		</defs>
		<clipPath id="SVGID_00000117656733103726201900000006564269648378278069_">
			<use xlink:href="#SVGID_00000141446351504786171840000013928887757083554947_"  style="overflow:visible;"/>
		</clipPath>
		<path id="path376-7" style="clip-path:url(#SVGID_00000117656733103726201900000006564269648378278069_);fill:#B05870;" d="
			M43.6,1252.6c66.8-29.3,223.5,5.3,224.3,72.6c1.8,169.3-70.6,160.7-183.5,150.5C-4.6,1467.6-17.5,1279.5,43.6,1252.6"/>
	</g>
	<g style="clip-path:url(#SVGID_00000069376312787271410620000005187484055463255482_);">
		<defs>
			<rect id="SVGID_00000014598742965838679260000004972582754242236325_" x="-530.5" y="-1845.5" width="6156.1" height="7216.3"/>
		</defs>
		<clipPath id="SVGID_00000069361582224994571730000009456974649592349828_">
			<use xlink:href="#SVGID_00000014598742965838679260000004972582754242236325_"  style="overflow:visible;"/>
		</clipPath>
		
			<g id="g379" transform="matrix(-3.8121158,0,0,3.9202388,2236.5628,-598.83247)" style="opacity:0.5;clip-path:url(#SVGID_00000069361582224994571730000009456974649592349828_);">
			<g>
				<defs>
					<rect id="SVGID_00000117658041719930225490000018044455172757417357_" x="-78.7" y="433.7" width="193.6" height="145.5"/>
				</defs>
				<clipPath id="SVGID_00000063620585710129413700000018414865904172937903_">
					<use xlink:href="#SVGID_00000117658041719930225490000018044455172757417357_"  style="overflow:visible;"/>
				</clipPath>
				<path id="path379" style="clip-path:url(#SVGID_00000063620585710129413700000018414865904172937903_);fill:#6B2A3D;" d="
					M29.1,512.5c-16.3,0-33.3-3.8-36-24.6c-0.2,2-0.4,4.2-0.4,6.6c0,26.1,18.6,30.5,36.4,30.5c14.3,0,15.3-11.2,14-24.2
					C42.1,507.7,38.4,512.5,29.1,512.5"/>
			</g>
		</g>
	</g>
	<g style="clip-path:url(#SVGID_00000069376312787271410620000005187484055463255482_);">
		<defs>
			<rect id="SVGID_00000052069772096932796510000017185382918832432768_" x="-530.5" y="-1845.5" width="6156.1" height="7216.3"/>
		</defs>
		<clipPath id="SVGID_00000178916970294422370030000011871566220876272031_">
			<use xlink:href="#SVGID_00000052069772096932796510000017185382918832432768_"  style="overflow:visible;"/>
		</clipPath>
		
			<g id="g382" transform="matrix(-3.8121158,0,0,3.9202388,2236.5628,-598.83247)" style="opacity:0.5;clip-path:url(#SVGID_00000178916970294422370030000011871566220876272031_);">
			<g>
				<defs>
					<rect id="SVGID_00000023975255421738377410000005147230369678811021_" x="419.8" y="427.3" width="262" height="164.3"/>
				</defs>
				<clipPath id="SVGID_00000121988139987681456070000016768581328361897889_">
					<use xlink:href="#SVGID_00000023975255421738377410000005147230369678811021_"  style="overflow:visible;"/>
				</clipPath>
				<path id="path382-5" style="clip-path:url(#SVGID_00000121988139987681456070000016768581328361897889_);fill:#6B2A3D;" d="
					M564.6,516.7c-27.1,2.4-45.3,4.4-47.8-28.2c-0.2,0.8-0.3,1.5-0.3,2.3c-0.5,43.2,18.5,41,48.1,38.4c15.6-1.4,22.3-23.4,20.2-39.8
					C583.1,502.7,576.4,515.7,564.6,516.7"/>
			</g>
		</g>
	</g>
	<g style="clip-path:url(#SVGID_00000069376312787271410620000005187484055463255482_);">
		<defs>
			<rect id="SVGID_00000152967407956150645740000017557739871766449843_" x="-530.5" y="-1845.5" width="6156.1" height="7216.3"/>
		</defs>
		<clipPath id="SVGID_00000096043544003220811080000008557256269445103263_">
			<use xlink:href="#SVGID_00000152967407956150645740000017557739871766449843_"  style="overflow:visible;"/>
		</clipPath>
		<path id="path404-5" style="clip-path:url(#SVGID_00000096043544003220811080000008557256269445103263_);fill:#FFFFFF;" d="
			M399.3,370.5c12.1-108.6,24.1-198.2,29.8-205.4c3.8-4.8,17.1-8.3,34.8-10.6l156.2,455c-2.8,86.1-7.2,152.9-11.2,163.6
			c-4.3,11.7-41.9,19.9-86.3,23.7L399.3,370.5z"/>
	</g>
	<g style="clip-path:url(#SVGID_00000069376312787271410620000005187484055463255482_);">
		<defs>
			<rect id="SVGID_00000158010501564828177780000006407404156817275297_" x="-530.5" y="-1845.5" width="6156.1" height="7216.3"/>
		</defs>
		<clipPath id="SVGID_00000105396726506131840120000017022255063198750852_">
			<use xlink:href="#SVGID_00000158010501564828177780000006407404156817275297_"  style="overflow:visible;"/>
		</clipPath>
		<path id="path413" style="clip-path:url(#SVGID_00000105396726506131840120000017022255063198750852_);fill:#C2677F;" d="
			M2195.4,1246.9c9.5-4.5,64.9,20.9,49.1,55.4C2228.7,1336.8,2171.1,1258.4,2195.4,1246.9"/>
	</g>
	<g style="clip-path:url(#SVGID_00000069376312787271410620000005187484055463255482_);">
		<defs>
			<rect id="SVGID_00000144340090414047889710000007158867669374228895_" x="-530.5" y="-1845.5" width="6156.1" height="7216.3"/>
		</defs>
		<clipPath id="SVGID_00000125576411622884603340000017212579976506740608_">
			<use xlink:href="#SVGID_00000144340090414047889710000007158867669374228895_"  style="overflow:visible;"/>
		</clipPath>
		<path id="path415" style="clip-path:url(#SVGID_00000125576411622884603340000017212579976506740608_);fill:#C2677F;" d="
			M196.9,1273.9c10.4-4.5,67,18.4,53.8,55.4C245.4,1344.1,170.2,1285.5,196.9,1273.9"/>
	</g>
	<g style="clip-path:url(#SVGID_00000069376312787271410620000005187484055463255482_);">
		<defs>
			<rect id="SVGID_00000029044142433492993460000002835497594591282340_" x="-530.5" y="-1845.5" width="6156.1" height="7216.3"/>
		</defs>
		<clipPath id="SVGID_00000103248932413036791840000007847058007147056785_">
			<use xlink:href="#SVGID_00000029044142433492993460000002835497594591282340_"  style="overflow:visible;"/>
		</clipPath>
		<path id="path421" style="clip-path:url(#SVGID_00000103248932413036791840000007847058007147056785_);fill:#C2677F;" d="
			M128.8,1261.7c7.6-8.9,47.5,0.5,43.2,11.1C167.7,1283.4,119.8,1272.3,128.8,1261.7"/>
	</g>
	<g style="clip-path:url(#SVGID_00000069376312787271410620000005187484055463255482_);">
		<defs>
			<rect id="SVGID_00000181079393953624098450000003050581291809091740_" x="-530.5" y="-1845.5" width="6156.1" height="7216.3"/>
		</defs>
		<clipPath id="SVGID_00000090271146483211990470000000843953834174279858_">
			<use xlink:href="#SVGID_00000181079393953624098450000003050581291809091740_"  style="overflow:visible;"/>
		</clipPath>
		<path id="path423" style="clip-path:url(#SVGID_00000090271146483211990470000000843953834174279858_);fill:#FFF2C4;" d="
			M115.4,1095.7c-0.4,20.4-54.8-20.7-45.3-29.8C79.6,1056.7,115.9,1074.9,115.4,1095.7"/>
	</g>
	<g style="clip-path:url(#SVGID_00000069376312787271410620000005187484055463255482_);">
		<defs>
			<rect id="SVGID_00000093855901074897941280000005071629242266749117_" x="28.2" y="1107" width="99.8" height="113.2"/>
		</defs>
		<clipPath id="SVGID_00000091721446515436119720000012286517594132328855_">
			<use xlink:href="#SVGID_00000093855901074897941280000005071629242266749117_"  style="overflow:visible;"/>
		</clipPath>
		<path id="path426-4" style="clip-path:url(#SVGID_00000091721446515436119720000012286517594132328855_);fill:#E6B873;" d="
			M46,1178.4c10.7,23,64.8,3.6,82-31.4c-8.8,34.1-34.7,65.9-80.6,73.2c-20.7-1.3-24.2-64.4-12.5-113.2
			C34.4,1134.4,39.2,1163.9,46,1178.4"/>
	</g>
	<g style="clip-path:url(#SVGID_00000069376312787271410620000005187484055463255482_);">
		<defs>
			<rect id="SVGID_00000072282372312842070160000008586228110918757530_" x="-530.5" y="-1845.5" width="6156.1" height="7216.3"/>
		</defs>
		<clipPath id="SVGID_00000168801801215904114690000003357760902767652738_">
			<use xlink:href="#SVGID_00000072282372312842070160000008586228110918757530_"  style="overflow:visible;"/>
		</clipPath>
		<path id="path432-9" style="clip-path:url(#SVGID_00000168801801215904114690000003357760902767652738_);fill:#FDD5E1;" d="
			M529.9,51.3c10.3,24.1-91.6,34.5-90.9,20.4C440.4,47.2,523,35,529.9,51.3"/>
	</g>
	<g id="g101" style="clip-path:url(#SVGID_00000069376312787271410620000005187484055463255482_);">
		<g>
			<defs>
				<rect id="SVGID_00000034064205645855455480000005084241025466867874_" x="-530.5" y="-1845.5" width="6156.1" height="7216.3"/>
			</defs>
			<clipPath id="SVGID_00000013914337425084342410000013919440778369286056_">
				<use xlink:href="#SVGID_00000034064205645855455480000005084241025466867874_"  style="overflow:visible;"/>
			</clipPath>
			<path id="path359" style="clip-path:url(#SVGID_00000013914337425084342410000013919440778369286056_);fill:#808080;" d="
				M645.1,1296.2c134.1,91.2,63,291.2-18.5,362.9c-81.6,71.7-344.8,67.4-313.3-169.5S552.5,1233.2,645.1,1296.2"/>
		</g>
		<g>
			<defs>
				<rect id="SVGID_00000031202175968136572160000017957973302650322068_" x="-530.5" y="-1845.5" width="6156.1" height="7216.3"/>
			</defs>
			<clipPath id="SVGID_00000087404900606150917270000008735378352956232349_">
				<use xlink:href="#SVGID_00000031202175968136572160000017957973302650322068_"  style="overflow:visible;"/>
			</clipPath>
			<path id="path363" style="clip-path:url(#SVGID_00000087404900606150917270000008735378352956232349_);fill:#666666;" d="
				M626.6,1615.6c44.3-38.9,85.4-115.7,92.3-192.4c8.7,89.5-39.6,189.5-92.3,235.9c-79.7,70-332.5,67.4-314.8-153.6
				C328.6,1683.1,552.5,1680.7,626.6,1615.6"/>
		</g>
		<g>
			<defs>
				<rect id="SVGID_00000093147784873160957430000012143861827228920507_" x="-530.5" y="-1845.5" width="6156.1" height="7216.3"/>
			</defs>
			<clipPath id="SVGID_00000011744863812419018340000011209972284888484999_">
				<use xlink:href="#SVGID_00000093147784873160957430000012143861827228920507_"  style="overflow:visible;"/>
			</clipPath>
			<path id="path365" style="clip-path:url(#SVGID_00000011744863812419018340000011209972284888484999_);fill:#A6A6A6;" d="
				M478.3,1377.7c59.4-41.1,155.7,2.2,126,113c-29.6,110.8-152,102.1-177.9,41.3C400.5,1471.1,437.5,1406,478.3,1377.7"/>
		</g>
		<g>
			<defs>
				<rect id="SVGID_00000091731200313402099070000004045831488668574372_" x="-530.5" y="-1845.5" width="6156.1" height="7216.3"/>
			</defs>
			<clipPath id="SVGID_00000150081254110576072880000011583285871189849236_">
				<use xlink:href="#SVGID_00000091731200313402099070000004045831488668574372_"  style="overflow:visible;"/>
			</clipPath>
			<path id="path436-4" style="clip-path:url(#SVGID_00000150081254110576072880000011583285871189849236_);fill:#666666;" d="
				M473.6,1411.4c-23.8,16.5-46.3,45.6-55.7,79.1c-0.4-46.9,28.8-90.9,60.4-112.8c58.7-40.7,153.5,1.3,126.9,109.4
				C606.5,1404.3,525.8,1375.2,473.6,1411.4"/>
		</g>
		<g>
			<defs>
				<rect id="SVGID_00000101785984267638754550000013279429445636327601_" x="-530.5" y="-1845.5" width="6156.1" height="7216.3"/>
			</defs>
			<clipPath id="SVGID_00000052790260563298195790000006409898612184175770_">
				<use xlink:href="#SVGID_00000101785984267638754550000013279429445636327601_"  style="overflow:visible;"/>
			</clipPath>
			<path id="path438-5" style="clip-path:url(#SVGID_00000052790260563298195790000006409898612184175770_);fill:#999999;" d="
				M674.2,1374c-18.3,26.9-68.9-49.2-52.2-58.5C638.7,1306.3,685.4,1350.7,674.2,1374"/>
		</g>
	</g>
	<g style="clip-path:url(#SVGID_00000069376312787271410620000005187484055463255482_);">
		<defs>
			<rect id="SVGID_00000133492499354063489300000001870300723772913053_" x="-524.2" y="-1845.4" width="6156.1" height="7216.3"/>
		</defs>
		<clipPath id="SVGID_00000156564562835387102470000006757078265894791337_">
			<use xlink:href="#SVGID_00000133492499354063489300000001870300723772913053_"  style="overflow:visible;"/>
		</clipPath>
		<path id="path417" style="clip-path:url(#SVGID_00000156564562835387102470000006757078265894791337_);fill:#FDD5E1;" d="
			M2049.9,98.1c1.1,35.9-154.8-47.3-138.1-60.3C1928.5,24.8,2048.5,54.1,2049.9,98.1"/>
	</g>
	<g style="clip-path:url(#SVGID_00000069376312787271410620000005187484055463255482_);">
		<defs>
			<rect id="SVGID_00000022560641783414000450000007951004073123762063_" x="-524.2" y="-1845.4" width="6156.1" height="7216.3"/>
		</defs>
		<clipPath id="SVGID_00000181081901417412083990000011540184711396262794_">
			<use xlink:href="#SVGID_00000022560641783414000450000007951004073123762063_"  style="overflow:visible;"/>
		</clipPath>
		<path id="path419" style="clip-path:url(#SVGID_00000181081901417412083990000011540184711396262794_);fill:#FDD5E1;" d="
			M2080.5,124.2c22.3,6.5,40.3,68.4,19.5,75C2079.1,205.7,2063.8,119.3,2080.5,124.2"/>
	</g>
	<g id="g100" style="clip-path:url(#SVGID_00000069376312787271410620000005187484055463255482_);">
		<g>
			<defs>
				<rect id="SVGID_00000072274680199362139150000002593281630236198573_" x="-530.5" y="-1845.5" width="6156.1" height="7216.3"/>
			</defs>
			<clipPath id="SVGID_00000070821164149291150080000012180536532618078653_">
				<use xlink:href="#SVGID_00000072274680199362139150000002593281630236198573_"  style="overflow:visible;"/>
			</clipPath>
			<path id="path357" style="clip-path:url(#SVGID_00000070821164149291150080000012180536532618078653_);fill:#808080;" d="
				M1949.1,1296.2c134.1,91.2,63,291.2-18.5,362.9c-81.6,71.7-344.8,67.4-313.3-169.5S1856.4,1233.2,1949.1,1296.2"/>
		</g>
		<g>
			<defs>
				<rect id="SVGID_00000031206641937752505550000004046654337398751130_" x="-530.5" y="-1845.5" width="6156.1" height="7216.3"/>
			</defs>
			<clipPath id="SVGID_00000147214172386019576070000004608500564412804794_">
				<use xlink:href="#SVGID_00000031206641937752505550000004046654337398751130_"  style="overflow:visible;"/>
			</clipPath>
			<path id="path361" style="clip-path:url(#SVGID_00000147214172386019576070000004608500564412804794_);fill:#666666;" d="
				M1930.6,1615.6c44.3-38.9,85.4-115.7,92.3-192.4c8.7,89.5-39.6,189.5-92.3,235.9c-79.7,70-332.6,67.4-314.8-153.6
				C1632.6,1683.1,1856.5,1680.7,1930.6,1615.6"/>
		</g>
		<g>
			<defs>
				<rect id="SVGID_00000118390519122994451450000011623969932160390315_" x="-524.2" y="-1845.4" width="6156.1" height="7216.3"/>
			</defs>
			<clipPath id="SVGID_00000120543609203958471500000018376809518282493065_">
				<use xlink:href="#SVGID_00000118390519122994451450000011623969932160390315_"  style="overflow:visible;"/>
			</clipPath>
			<path id="path406-5" style="clip-path:url(#SVGID_00000120543609203958471500000018376809518282493065_);fill:#A6A6A6;" d="
				M1788.5,1377.9c59.4-41.1,155.7,2.2,126,113c-29.6,110.8-152,102.1-177.9,41.3C1710.7,1471.3,1747.8,1406.1,1788.5,1377.9"/>
		</g>
		<g>
			<defs>
				<rect id="SVGID_00000070102616354301636640000001996295914149297293_" x="-524.2" y="-1845.4" width="6156.1" height="7216.3"/>
			</defs>
			<clipPath id="SVGID_00000107580183221597862610000008472630849250763167_">
				<use xlink:href="#SVGID_00000070102616354301636640000001996295914149297293_"  style="overflow:visible;"/>
			</clipPath>
			<path id="path408-5" style="clip-path:url(#SVGID_00000107580183221597862610000008472630849250763167_);fill:#666666;" d="
				M1783.9,1411.5c-23.8,16.5-46.3,45.6-55.7,79.1c-0.4-46.9,28.8-90.9,60.4-112.8c58.7-40.7,153.5,1.3,126.9,109.4
				C1916.8,1404.5,1836.1,1375.4,1783.9,1411.5"/>
		</g>
		<g>
			<defs>
				<rect id="SVGID_00000021813750067974488270000012379931716265229975_" x="-524.2" y="-1845.4" width="6156.1" height="7216.3"/>
			</defs>
			<clipPath id="SVGID_00000045593148224646139970000004232963102193147526_">
				<use xlink:href="#SVGID_00000021813750067974488270000012379931716265229975_"  style="overflow:visible;"/>
			</clipPath>
			<path id="path434-2" style="clip-path:url(#SVGID_00000045593148224646139970000004232963102193147526_);fill:#999999;" d="
				M1988.9,1368c-14,30.3-75.3-34-60.2-46.6C1943.8,1308.8,1996.5,1342.8,1988.9,1368"/>
		</g>
	</g>
	
		<g id="g63" transform="matrix(1.4655876,0,0,1.0963066,-351.70952,-28.749403)" inkscape:label="window" style="clip-path:url(#SVGID_00000069376312787271410620000005187484055463255482_);">
		<g>
			<defs>
				<rect id="SVGID_00000179610187885422106260000007095269464238178994_" x="-2371" y="-2222.3" width="9022.2" height="7911.2"/>
			</defs>
			<clipPath id="SVGID_00000098201234138646220340000013460232748126000015_">
				<use xlink:href="#SVGID_00000179610187885422106260000007095269464238178994_"  style="overflow:visible;"/>
			</clipPath>
			
				<g id="g277" transform="matrix(-3.8121158,0,0,3.9202388,2236.5628,-598.83247)" style="opacity:0.3;clip-path:url(#SVGID_00000098201234138646220340000013460232748126000015_);">
				<g>
					<defs>
						<rect id="SVGID_00000065774011490256713250000003378050620408182154_" x="-402.8" y="-4.8" width="1365.1" height="559.2"/>
					</defs>
					<clipPath id="SVGID_00000103946119034241786730000003873684337906223488_">
						<use xlink:href="#SVGID_00000065774011490256713250000003378050620408182154_"  style="overflow:visible;"/>
					</clipPath>
					<path id="path277-4" style="clip-path:url(#SVGID_00000103946119034241786730000003873684337906223488_);fill:#E87999;" d="
						M157.6,209.8c-0.4,1.2,13.5,126,13.5,126l7.7,3.3l216.6,0.8l6.6-127.6L157.6,209.8z"/>
				</g>
			</g>
		</g>
		<g>
			<defs>
				<rect id="SVGID_00000029745792949966677220000001009193996337088169_" x="-2371" y="-2222.3" width="9022.2" height="7911.2"/>
			</defs>
			<clipPath id="SVGID_00000119826399366214035320000009248396525225311420_">
				<use xlink:href="#SVGID_00000029745792949966677220000001009193996337088169_"  style="overflow:visible;"/>
			</clipPath>
			
				<g id="g282" transform="matrix(-3.8121158,0,0,3.9202388,2236.5628,-598.83247)" style="opacity:0.5;clip-path:url(#SVGID_00000119826399366214035320000009248396525225311420_);">
				<g>
					<defs>
						<rect id="SVGID_00000090284617069116372330000002217069209455449527_" x="-402.8" y="88.1" width="1365.1" height="317.1"/>
					</defs>
					<clipPath id="SVGID_00000142158254786426057340000001708033787813968012_">
						<use xlink:href="#SVGID_00000090284617069116372330000002217069209455449527_"  style="overflow:visible;"/>
					</clipPath>
					<path id="path282" style="clip-path:url(#SVGID_00000142158254786426057340000001708033787813968012_);fill:#DE7192;" d="
						M162.9,261.3c1.5-0.3,3.3-0.5,5.3-0.4c22.4,0.6,71,28.3,110.4,21.6c39.4-6.7,29.2-26.6,50.1-29.4c15.4-2,44,18.2,69.7,28.8
						l3.6-69.6l-244.3-2.5C157.4,210.3,160,234.4,162.9,261.3"/>
				</g>
			</g>
		</g>
		<g>
			<defs>
				<rect id="SVGID_00000046304051269374737150000007023474795378993561_" x="-2362.9" y="-1878" width="9022.2" height="7911.2"/>
			</defs>
			<clipPath id="SVGID_00000015329933297404812450000008189276605052963213_">
				<use xlink:href="#SVGID_00000046304051269374737150000007023474795378993561_"  style="overflow:visible;"/>
			</clipPath>
			
				<g id="g285" transform="matrix(-3.8121158,0,0,3.9202388,2239.8935,-474.13477)" style="opacity:0.3;clip-path:url(#SVGID_00000015329933297404812450000008189276605052963213_);">
				<g>
					<defs>
						<rect id="SVGID_00000138558291608816102510000013190601877023932085_" x="-325.9" y="359.7" width="1216.6" height="107.2"/>
					</defs>
					<clipPath id="SVGID_00000134960970684282264330000000296456220076038544_">
						<use xlink:href="#SVGID_00000138558291608816102510000013190601877023932085_"  style="overflow:visible;"/>
					</clipPath>
					<path id="path285-4" style="clip-path:url(#SVGID_00000134960970684282264330000000296456220076038544_);fill:#E87999;" d="
						M389.7,406.3c2.2,5.4,1.5,19.5,1.5,19.5s-213.3-1.7-216.2-3.7c-2.9-2.1-0.4-21.2-0.4-21.2L389.7,406.3z"/>
				</g>
			</g>
		</g>
		<g>
			<defs>
				<rect id="SVGID_00000114051466640152122680000018049838290379580347_" x="-2371" y="-3762" width="9022.2" height="13002.2"/>
			</defs>
			<clipPath id="SVGID_00000102502555329872007710000006993093672197956772_">
				<use xlink:href="#SVGID_00000114051466640152122680000018049838290379580347_"  style="overflow:visible;"/>
			</clipPath>
			<path id="path329" style="clip-path:url(#SVGID_00000102502555329872007710000006993093672197956772_);fill:#FFFFFF;" d="
				M1552.8,180c9.3,103.6,16.7,828.5,9.3,896.3c-7.4,67.8-791.5,42.8-815.6,39.3c-13-160.7,1.8-849.9,14.8-892.7
				C785.5,172.8,1547.3,158.5,1552.8,180"/>
		</g>
		<g>
			<defs>
				<rect id="SVGID_00000085937286367339796050000012648155399120776870_" x="-2371" y="-2222.3" width="9022.2" height="7911.2"/>
			</defs>
			<clipPath id="SVGID_00000093148731319473594390000015216935420171138718_">
				<use xlink:href="#SVGID_00000085937286367339796050000012648155399120776870_"  style="overflow:visible;"/>
			</clipPath>
			<path id="path444-2" style="clip-path:url(#SVGID_00000093148731319473594390000015216935420171138718_);fill:#C0EBFF;" d="
				M1638.1,212.3c1.8,19.3-38.5,125.2-55.1,131.7c-27.8,1.6-84.8-128.7-84.8-128.7s-41.7,120.6-77.8,128.7
				c-40.3-8.1-77.9-129.8-77.9-129.8c-18.1,94.5-69.5,127.1-69.5,127.1c-29.2-1.6-73.2-124.9-73.2-124.9
				c-19.5,78.2-69,120.6-76,120.6c-13.9-4.9-65.8-122.7-65.8-122.7c-8.3,50.5-59.8,122.7-66.7,122.7c-25-1.6-61.2-119.5-61.2-119.5
				c-13.9,58.7-50,116.2-65.8,115.2c-15.7-1.1-68.1-116.2-63.9-116.2s-52.4,116.8-73.2,118.4c-38.9-52.1-34.3-122.5-34.3-122.5
				C721.1,208.8,1619.6,202.8,1638.1,212.3"/>
		</g>
		<g>
			<defs>
				<rect id="SVGID_00000106147062294933054570000006773682328963986073_" x="-2371" y="-2222.3" width="9022.2" height="7911.2"/>
			</defs>
			<clipPath id="SVGID_00000026123526623415998940000014852299259327603357_">
				<use xlink:href="#SVGID_00000106147062294933054570000006773682328963986073_"  style="overflow:visible;"/>
			</clipPath>
			<path id="path446-5" style="clip-path:url(#SVGID_00000026123526623415998940000014852299259327603357_);fill:#9BD1EB;" d="
				M1638.1,212.3c1.8,19.3-38.5,125.2-55.1,131.7c-27.8,1.6-84.8-128.7-84.8-128.7s-41.7,120.6-77.8,128.7
				c-40.3-8.1-77.9-129.8-77.9-129.8c-18.1,94.5-69.5,127.1-69.5,127.1c-29.2-1.6-73.2-124.9-73.2-124.9
				c-19.5,78.2-69,120.6-76,120.6c-13.9-4.9-66.3-119.2-66.3-119.2c-8.3,50.5-59.3,119.2-66.3,119.2c-25-1.6-61.2-119.5-61.2-119.5
				c-13.9,58.7-50,116.2-65.8,115.2c-15.7-1.1-68.1-116.2-63.9-116.2s-52.4,116.8-73.2,118.4c-38.9-52.1-34.3-122.5-34.3-122.5
				C721.1,208.8,1619.6,202.8,1638.1,212.3"/>
		</g>
		<g>
			<defs>
				<rect id="SVGID_00000013195272249924098950000012499720159037021363_" x="-2371" y="-2222.3" width="9022.2" height="7911.2"/>
			</defs>
			<clipPath id="SVGID_00000011726078526905076080000012166899210380073891_">
				<use xlink:href="#SVGID_00000013195272249924098950000012499720159037021363_"  style="overflow:visible;"/>
			</clipPath>
			<path id="path448-1" style="clip-path:url(#SVGID_00000011726078526905076080000012166899210380073891_);fill:#C0EBFF;" d="
				M1638.1,212.3c-12-10.1-81.6-50.8-81.6-50.8L740,167.9c0,0-49.1,31.7-47.2,44.4C740.5,225.1,1638.1,212.3,1638.1,212.3"/>
		</g>
	</g>
</g>
<path id="path9-3" inkscape:label="order" class="st50" d="M358.3,450.1C203.8,399.8,98,790.6,140.4,1056
	c11.9,70,35.6,128,66.1,172.5c1.9,53.9-3.8,140.2-51.5,194.2c0,0,107.5,42.6,142.2-110.7c93,47.8,199.9,7.1,247.9-146.3
	C545.1,1165.6,695.1,559.8,358.3,450.1"/>
</svg>
