<?xml version="1.0" encoding="UTF-8" standalone="no"?>
<!-- Created with Inkscape (http://www.inkscape.org/) -->

<svg
   width="800mm"
   height="600mm"
   viewBox="0 0 800 600"
   version="1.1"
   id="svg1"
   xml:space="preserve"
   inkscape:version="1.4 (e7c3feb1, 2024-10-09)"
   sodipodi:docname="play ui.eps"
   inkscape:export-filename="ui.svg"
   inkscape:export-xdpi="25.4"
   inkscape:export-ydpi="25.4"
   inkscape:dataloss="true"
   xmlns:inkscape="http://www.inkscape.org/namespaces/inkscape"
   xmlns:sodipodi="http://sodipodi.sourceforge.net/DTD/sodipodi-0.dtd"
   xmlns="http://www.w3.org/2000/svg"
   xmlns:svg="http://www.w3.org/2000/svg"><sodipodi:namedview
     id="namedview1"
     pagecolor="#ffffff"
     bordercolor="#000000"
     borderopacity="0.25"
     inkscape:showpageshadow="2"
     inkscape:pageopacity="0.0"
     inkscape:pagecheckerboard="0"
     inkscape:deskcolor="#d1d1d1"
     inkscape:document-units="mm"
     inkscape:zoom="0.13650202"
     inkscape:cx="1571.4053"
     inkscape:cy="703.28628"
     inkscape:window-width="1328"
     inkscape:window-height="741"
     inkscape:window-x="63"
     inkscape:window-y="42"
     inkscape:window-maximized="0"
     inkscape:current-layer="layer11"><inkscape:page
       x="0"
       y="0"
       width="800"
       height="600"
       id="page2"
       margin="0"
       bleed="0" /></sodipodi:namedview><defs
     id="defs1"><clipPath
       clipPathUnits="userSpaceOnUse"
       id="clipPath403"><path
         d="M 0,500 H 500 V 0 H 0 Z"
         transform="translate(-291.07711,-320.51611)"
         id="path403" /></clipPath><clipPath
       clipPathUnits="userSpaceOnUse"
       id="clipPath410-0"><path
         d="m 290.965,318.357 h 75.583 v -2.859 h -75.583 z"
         transform="translate(-366.54791,-317.86381)"
         id="path410-1" /></clipPath></defs><g
     inkscape:label="cat"
     inkscape:groupmode="layer"
     id="layer1"
     transform="matrix(0.95429627,0,0,0.99547513,16.834683,3.5210986)"
     style="display:inline"><g
       id="g4"
       transform="matrix(1.4362108,0,0,1.2689245,-333.6673,-105.35943)"
       style="display:inline"
       inkscape:label="cat"><g
         id="g149"
         transform="matrix(-0.60118068,0,0,0.6858852,591.34239,249.68522)"
         inkscape:label="ok cat"
         style="display:inline"><path
           id="path115"
           d="m 308.54326,85.603612 c -9.13866,-13.356 -48.80533,0.386666 -66.44666,7.346666 -7.568,-2.764 -17.54267,-5.185333 -29.09067,-7.297333 -11.53066,-2.214667 -21.70666,-3.570667 -29.76133,-3.736 -13.92666,-12.885333 -45.92253,-40.047999 -59.27093,-30.914666 -13.25627,9.072 -6.25573,42.109332 -2.26987,56.992001 -10.19266,11.62533 -15.7036,25.41466 -18.0156,37.74533 -1.99893,10.66267 -2.72493,21.55067 -2.1672,32.68 0.95107,18.952 11.3084,35.864 27.32027,45.29466 l -32.091187,96.47992 169.587647,3.08949 -20.97846,-67.46274 c 0,0 -6.38667,-4.65333 -12.06,-10.27333 21.73066,-0.32934 41.14133,-13.20534 50.02133,-33.04667 4.55067,-10.17066 7.81733,-20.58266 9.816,-31.24533 2.312,-12.328 2.17067,-27.17333 -3.116,-41.69733 9.08667,-12.41867 27.59733,-40.693335 18.52266,-53.954668"
           style="display:inline;fill:#b2b8c4;fill-opacity:1;fill-rule:nonzero;stroke:none;stroke-width:0.133333"
           sodipodi:nodetypes="ccccccccccccccccc" /><path
           id="path116"
           d="m 223.0326,95.411611 c -3.308,17.649329 -11.124,30.985329 -17.436,29.802669 -6.32533,-1.18534 -8.78,-16.448 -5.47067,-34.097335 0.45334,-2.418667 0.98934,-4.753334 1.60134,-6.974667 7.50933,1.058667 14.956,2.454667 22.33733,4.201333 -0.23467,2.292 -0.58,4.661334 -1.032,7.068"
           style="fill:#95a1b3;fill-opacity:1;fill-rule:nonzero;stroke:none;stroke-width:0.133333" /><path
           id="path117"
           d="m 199.52327,85.002278 c -3.30667,17.636002 -11.112,30.988002 -17.436,29.802662 -6.08267,-1.14 -8.58667,-15.389329 -5.796,-32.213328 4.12533,-0.290667 8.32933,-0.257334 12.57066,0.104 3.63334,0.317333 7.25467,0.702666 10.85867,1.182666 -0.0573,0.38 -0.12667,0.745334 -0.19733,1.124"
           style="fill:#95a1b3;fill-opacity:1;fill-rule:nonzero;stroke:none;stroke-width:0.133333" /><path
           id="path118"
           d="m 248.36593,95.948945 c -3.47866,16.765335 -10.99066,29.221335 -17.09866,28.075995 -6.32534,-1.18666 -8.764,-16.45866 -5.45867,-34.094662 0.072,-0.378667 0.14,-0.744 0.224,-1.12 4.05467,0.984 8.1,2.092 12.11333,3.292 3.53867,1.054667 6.94667,2.352 10.22,3.846667"
           style="fill:#95a1b3;fill-opacity:1;fill-rule:nonzero;stroke:none;stroke-width:0.133333" /><path
           id="path119"
           d="m 290.2766,110.28494 c 0,0 1.04933,4.47734 0.47733,9.168 -0.51866,4.33734 -3.71333,7.124 -7.348,7.856 -5.58266,-9.39866 -13.104,-17.63466 -22.13733,-24.072 0.53067,-2.30666 1.932,-4.407995 4.14533,-5.769329 8.88934,-5.481333 20.78667,-10.96 27.652,-6.538666 11.95733,7.710666 -2.78933,19.355995 -2.78933,19.355995"
           style="fill:#ffffff;fill-opacity:1;fill-rule:nonzero;stroke:none;stroke-width:0.133333" /><path
           id="path120"
           d="m 132.05127,80.622278 c 0,0 -2.6,3.793334 -3.76613,8.373333 -1.08707,4.230667 0.8812,7.985334 4.0036,9.982667 8.60786,-6.737333 18.60213,-11.690667 29.3532,-14.417333 0.34133,-2.342667 -0.204,-4.809333 -1.77334,-6.88 -6.30066,-8.329333 -15.40586,-17.745333 -23.4064,-16.112 -13.9376,2.857334 -4.41093,19.053333 -4.41093,19.053333"
           style="fill:#ffffff;fill-opacity:1;fill-rule:nonzero;stroke:none;stroke-width:0.133333" /><path
           id="path121"
           d="m 311.1526,83.810278 c -4.812,-7.033333 -15.692,-8.754666 -33.26133,-5.262666 -12.73867,2.530666 -26.32934,7.304 -35.852,11.025333 -7.276,-2.544 -16.79067,-4.9 -28.436,-7.030667 -11.65067,-2.237333 -21.38,-3.488 -29.08667,-3.752 -7.54133,-6.923999 -18.492,-16.302666 -29.43093,-23.265332 -15.10787,-9.616 -25.87093,-11.953333 -32.90427,-7.14 -14.0744,9.629333 -8.7744,40.257332 -3.9672,58.793334 -11.44426,13.63466 -15.91093,28.76133 -17.63853,37.97866 -2.038533,10.872 -2.7844,22.11734 -2.217733,33.42134 0.565733,11.268 4.290663,22.064 10.772403,31.21866 6.49333,9.172 15.44386,16.25733 25.886,20.49067 7.27973,2.948 14.72813,5.57733 22.1376,7.81466 0.30533,0.092 0.61333,0.13467 0.916,0.13467 1.36,0 2.61733,-0.88267 3.03066,-2.25067 0.50534,-1.67466 -0.44133,-3.44266 -2.116,-3.948 -7.2256,-2.18133 -14.4896,-4.74533 -21.59013,-7.62133 -18.84693,-7.64133 -31.68693,-25.75866 -32.71093,-46.156 -0.54174,-10.808 0.17026,-21.55333 2.11773,-31.93733 2.15467,-11.49733 8.89573,-32.94667 29.83067,-47.427999 1.43853,-0.994666 1.798,-2.966666 0.8032,-4.405333 -0.9948,-1.437333 -2.96667,-1.797333 -4.40574,-0.802667 -3.59533,2.486667 -6.80426,5.16 -9.67093,7.947999 -6,-25.075998 -5.1692,-42.845331 2.39907,-48.023998 7.29426,-4.992 26.00413,4.701334 49.56039,25.428 -4.992,0.493333 -9.84133,1.301333 -14.41999,2.408 -1.7,0.412 -2.744,2.124 -2.33334,3.824 0.412,1.699999 2.12667,2.743999 3.824,2.333333 4.51334,-1.093334 9.31733,-1.878667 14.27333,-2.336 7.88934,-0.721333 19.91734,0.453333 35.77467,3.498666 15.856,2.9 27.492,6.16 34.58267,9.690667 4.45733,2.222662 8.64933,4.694662 12.46133,7.348002 0.552,0.384 1.18267,0.568 1.80667,0.568 1.00133,0 1.98666,-0.47334 2.60133,-1.35734 0.99867,-1.436 0.64533,-3.40933 -0.78933,-4.40933 -3.868,-2.691999 -8.09734,-5.202665 -12.57867,-7.473332 29.45733,-10.796 50.408,-13.052 55.40533,-5.746667 5.16933,7.554667 -0.48933,24.418669 -15.14933,45.631999 -1.66267,-3.636 -3.684,-7.28933 -6.13467,-10.90933 -0.98,-1.448 -2.948,-1.828 -4.39733,-0.848 -1.448,0.98 -1.828,2.94933 -0.84667,4.39733 14.26667,21.08 12.78134,43.516 10.62667,55.012 -1.94667,10.384 -5.17467,20.65733 -9.59467,30.53467 -8.34266,18.64266 -26.87333,30.87999 -47.208,31.17599 -6.092,0.0867 -12.22666,-0.0493 -18.23466,-0.4 -1.73734,-0.10533 -3.244,1.23067 -3.34667,2.976 -0.10267,1.74534 1.23067,3.244 2.976,3.34667 4.956,0.28933 9.99467,0.436 15.028,0.436 1.224,0 2.44667,-0.009 3.66933,-0.0267 11.264,-0.164 22.17467,-3.52533 31.548,-9.72266 9.35734,-6.18534 16.74,-14.89867 21.34934,-25.19734 4.62266,-10.33199 8,-21.08266 10.03866,-31.95466 1.728,-9.216 3.04267,-24.93333 -2.684,-41.78533 4.808,-6.68934 11.05733,-16.20667 15.408,-25.86667 6.048,-13.43067 6.78133,-23.650665 2.17867,-30.377332"
           style="fill:#6f818c;fill-opacity:1;fill-rule:nonzero;stroke:none;stroke-width:0.133333" /><path
           id="path122"
           d="m 260.98327,203.05028 c -0.19334,0 -0.38934,-0.0187 -0.58667,-0.0547 l -16.78933,-3.148 c -1.71867,-0.32267 -2.852,-1.97733 -2.52934,-3.696 0.32267,-1.71867 1.97334,-2.85467 3.696,-2.52933 l 16.79067,3.148 c 1.71867,0.32266 2.85067,1.97733 2.528,3.696 -0.28533,1.52133 -1.61467,2.584 -3.10933,2.584"
           style="fill:#95a1b3;fill-opacity:1;fill-rule:nonzero;stroke:none;stroke-width:0.133333" /><path
           id="path123"
           d="m 254.96727,218.25027 c -0.55467,0 -1.11467,-0.14666 -1.62534,-0.45066 l -12.78266,-7.664 c -1.5,-0.9 -1.988,-2.844 -1.088,-4.344 0.89866,-1.50133 2.844,-1.98667 4.344,-1.088 l 12.784,7.66267 c 1.5,0.89999 1.98666,2.84399 1.088,4.34533 -0.59467,0.98933 -1.644,1.53866 -2.72,1.53866"
           style="fill:#95a1b3;fill-opacity:1;fill-rule:nonzero;stroke:none;stroke-width:0.133333" /><path
           id="path124"
           d="m 143.70847,181.06494 c -0.19373,0 -0.38947,-0.0187 -0.58693,-0.0547 l -16.79014,-3.148 c -1.71866,-0.32267 -2.85146,-1.97734 -2.52906,-3.696 0.3228,-1.71867 1.97333,-2.85334 3.69626,-2.52934 l 16.79014,3.148 c 1.7188,0.32267 2.85106,1.97734 2.5292,3.696 -0.286,1.52134 -1.6156,2.584 -3.10947,2.584"
           style="fill:#95a1b3;fill-opacity:1;fill-rule:nonzero;stroke:none;stroke-width:0.133333" /><path
           id="path125"
           d="m 127.007,194.26094 c -1.51466,0 -2.85373,-1.08933 -3.1172,-2.63333 -0.29533,-1.724 0.86347,-3.36 2.58747,-3.65467 l 14.69067,-2.512 c 1.72653,-0.29466 3.3604,0.86267 3.6552,2.58667 0.2948,1.724 -0.86414,3.36 -2.588,3.656 l -14.69067,2.512 c -0.1808,0.0307 -0.3604,0.0453 -0.53747,0.0453"
           style="fill:#95a1b3;fill-opacity:1;fill-rule:nonzero;stroke:none;stroke-width:0.133333" /><path
           id="path126"
           d="m 234.67927,157.61161 c -0.19334,0 -0.38934,-0.0173 -0.58667,-0.0547 l -8.808,-1.65066 c -1.71867,-0.32267 -2.85067,-1.97734 -2.52933,-3.696 0.32266,-1.71867 1.97466,-2.85334 3.69733,-2.52934 l 8.808,1.652 c 1.71867,0.32134 2.85067,1.976 2.528,3.69467 -0.28533,1.52267 -1.61467,2.584 -3.10933,2.584"
           style="fill:#ffffff;fill-opacity:1;fill-rule:nonzero;stroke:none;stroke-width:0.133333" /><path
           id="path127"
           d="m 176.70193,146.74361 c -0.19333,0 -0.38933,-0.0187 -0.58666,-0.0547 l -8.80933,-1.652 c -1.71867,-0.32266 -2.85067,-1.97733 -2.52934,-3.696 0.324,-1.71866 1.97467,-2.85333 3.69734,-2.52933 l 8.80799,1.652 c 1.71867,0.32267 2.852,1.97733 2.52934,3.696 -0.28534,1.52133 -1.616,2.584 -3.10934,2.584"
           style="fill:#ffffff;fill-opacity:1;fill-rule:nonzero;stroke:none;stroke-width:0.133333" /><path
           id="path128"
           d="m 211.4006,195.52094 c -0.14,0.672 -0.292,1.32934 -0.48267,1.97867 -0.46,1.63467 -1.05866,3.188 -1.78,4.64667 -4.24133,8.592 -12.588,13.71466 -20.87466,12.02133 -4.848,-1.00667 -8.78934,-4.152 -11.32934,-8.51733 -0.18133,-0.3 -0.336,-0.59467 -0.50266,-0.90534 -2.456,-4.728 -3.35067,-10.7 -2.088,-16.84266 2.53333,-12.396 11.18666,-12.35467 21.41066,-10.256 10.23867,2.10133 18.19734,5.468 15.64667,17.87466"
           style="fill:#6f818c;fill-opacity:1;fill-rule:nonzero;stroke:none;stroke-width:0.133333" /><path
           id="path129"
           d="m 209.13793,202.14628 c -4.24133,8.592 -12.588,13.71466 -20.87466,12.02133 -4.848,-1.00667 -8.78934,-4.152 -11.32934,-8.51733 3.43867,-7.97334 10.53867,-13.23067 18.33867,-12.67734 5.79867,0.41467 10.76,3.94667 13.86533,9.17334"
           style="fill:#e27fa3;fill-opacity:1;fill-rule:nonzero;stroke:none;stroke-width:0.133333" /><path
           id="path130"
           d="m 208.30593,194.88094 c -2.19066,10.67334 -10.89466,17.932 -19.40533,16.18934 -8.508,-1.74667 -13.64933,-11.85067 -11.46,-22.524 1.724,-8.4 5.856,-10.22 17.68267,-7.79334 4.05466,0.83334 8.54933,1.99734 11.136,4.32267 1.47066,1.32267 3.28266,3.77867 2.04666,9.80533 z m 2.188,-14.51466 c -2.956,-2.65867 -7.04666,-4.13467 -11.05866,-5.13334 l 0.85466,-4.56 1.60267,0.3 c 0.19733,0.0373 0.39333,0.0547 0.58667,0.0547 1.49333,0 2.824,-1.06133 3.10933,-2.58267 0.32267,-1.72 -0.81067,-3.37466 -2.52933,-3.696 l -9.43067,-1.768 c -1.72133,-0.324 -3.37333,0.80934 -3.696,2.528 -0.32267,1.71867 0.81067,3.37467 2.52933,3.696 l 1.60267,0.30134 -0.832,4.43733 c -7.55333,-1.27467 -18.94133,-1.55067 -21.996,13.33067 -2.892,14.09333 4.46133,27.55199 16.39067,29.99999 1.26666,0.26 2.53333,0.38534 3.792,0.38534 10.59466,0 20.50533,-8.908 23.09066,-21.50533 1.4,-6.82134 0.048,-12.13334 -4.016,-15.788"
           style="fill:#6f818c;fill-opacity:1;fill-rule:nonzero;stroke:none;stroke-width:0.133333" /><path
           id="path131"
           d="m 165.89394,171.67561 c -1.01067,0 -2.004,-0.48133 -2.61734,-1.37867 -4.02266,-5.88 -12.08,-7.38933 -17.96026,-3.36666 -1.44214,0.988 -3.4136,0.61866 -4.4016,-0.82534 -0.98747,-1.444 -0.61774,-3.41466 0.8256,-4.40133 8.76293,-5.996 20.7696,-3.744 26.76426,5.01733 0.98667,1.44267 0.61734,3.41334 -0.82666,4.40134 -0.54534,0.37466 -1.168,0.55333 -1.784,0.55333"
           style="fill:#5f5c5d;fill-opacity:1;fill-rule:nonzero;stroke:none;stroke-width:0.133333" /><path
           id="path132"
           d="m 249.2766,187.30761 c -1.01067,0 -2.00267,-0.48267 -2.616,-1.37867 -4.024,-5.88 -12.08133,-7.38933 -17.96133,-3.36666 -1.44267,0.988 -3.41334,0.61866 -4.40134,-0.82534 -0.988,-1.444 -0.61733,-3.41466 0.82534,-4.40133 8.76266,-5.996 20.76933,-3.74533 26.764,5.01733 0.988,1.44267 0.61866,3.41334 -0.82534,4.40134 -0.54666,0.37333 -1.16933,0.55333 -1.78533,0.55333"
           style="fill:#5f5c5d;fill-opacity:1;fill-rule:nonzero;stroke:none;stroke-width:0.133333" /><path
           id="path133"
           d="M 114.84967,262.65027 C 93.129404,233.03294 84.397537,183.36494 84.397537,183.36494 H 107.0246 c 0,0 23.70374,45.936 37.49534,59.72667 l -29.67027,19.55866"
           style="fill:#b2b8c4;fill-opacity:1;fill-rule:nonzero;stroke:none;stroke-width:0.133333" /><path
           id="path134"
           d="m 114.85274,265.81694 c -0.97494,0 -1.93587,-0.448 -2.55667,-1.29333 -9.21987,-12.572 -17.243333,-29.96667 -23.847466,-51.70267 -4.897334,-16.11733 -7.0796,-28.39333 -7.170267,-28.908 -0.162,-0.92133 0.0916,-1.868 0.693734,-2.58533 0.602133,-0.716 1.489599,-1.12933 2.424933,-1.12933 H 107.0246 c 1.18494,0 2.2704,0.66133 2.81414,1.71466 0.23546,0.45467 23.63546,45.65467 36.92026,58.94 1.23707,1.236 1.23707,3.24133 0,4.47867 -1.23533,1.236 -3.2416,1.236 -4.4776,0 -12.6124,-12.612 -32.65826,-50.18 -37.1776,-58.8 H 88.250204 c 2.500533,11.984 11.520266,50.20133 29.153596,74.24666 1.03387,1.41067 0.7292,3.392 -0.6812,4.42667 -0.56466,0.41333 -1.22026,0.612 -1.86986,0.612"
           style="fill:#6f818c;fill-opacity:1;fill-rule:nonzero;stroke:none;stroke-width:0.133333" /><path
           id="path145"
           d="m 105.09607,159.88228 c 10.10933,3.66533 15.3328,14.832 11.6672,24.94266 -3.66627,10.10934 -14.83333,15.332 -24.9428,11.66667 -10.109333,-3.66667 -10.632799,-13.12933 -6.9672,-23.23867 3.666134,-10.10933 10.133334,-17.03733 20.2428,-13.37066"
           style="fill:#b2b8c4;fill-opacity:1;fill-rule:nonzero;stroke:none;stroke-width:0.133333" /><path
           id="path146"
           d="m 99.92367,162.08228 c -7.651066,0 -10.9104,8.98933 -12.093333,12.25066 -1.7552,4.84 -2.299467,9.076 -1.5724,12.248 0.76,3.32 2.933333,5.588 6.642267,6.93334 8.451596,3.06666 17.821336,-1.31734 20.885866,-9.76934 1.48493,-4.09466 1.28653,-8.52133 -0.5588,-12.46666 -1.84533,-3.94534 -5.11613,-6.93467 -9.2104,-8.42 -1.48693,-0.53867 -2.84787,-0.776 -4.0932,-0.776 z m -1.4876,38.744 c -2.557733,0 -5.155733,-0.43734 -7.6952,-1.35734 -5.728133,-2.07866 -9.413066,-6.04533 -10.656799,-11.47333 -1.013067,-4.42533 -0.4104,-9.748 1.792133,-15.82267 4.9052,-13.52533 13.762533,-19.08933 24.299466,-15.268 5.6844,2.06134 10.22613,6.21334 12.788,11.69067 2.56253,5.47733 2.83813,11.624 0.77667,17.308 -3.3344,9.196 -12.0448,14.92267 -21.30427,14.92267"
           style="fill:#6f818c;fill-opacity:1;fill-rule:nonzero;stroke:none;stroke-width:0.133333" /><path
           id="path147"
           d="m 266.3126,270.88894 c -3.93067,10.00933 -15.232,14.936 -25.24133,11.004 -10.00934,-3.93067 -14.936,-15.232 -11.004,-25.24133 3.932,-10.00934 13.40533,-10.28267 23.41333,-6.35067 10.00933,3.932 16.764,10.58 12.832,20.588"
           style="fill:#b2b8c4;fill-opacity:1;fill-rule:nonzero;stroke:none;stroke-width:0.133333" /><path
           id="path148"
           d="m 242.6926,251.07561 c -7.03333,0 -8.924,4.81333 -9.67867,6.73333 -3.28666,8.368 0.84667,17.85067 9.21467,21.13733 4.05333,1.592 8.484,1.51067 12.47733,-0.22933 3.992,-1.74133 7.068,-4.932 8.66,-8.98533 v 0 c 4.13334,-10.52134 -7.28933,-15.00934 -11.04266,-16.484 -3.98,-1.56267 -7.13067,-2.172 -9.63067,-2.172 z m 5.504,35.34533 c -2.79867,0 -5.6,-0.52667 -8.28267,-1.58 -11.61866,-4.564 -17.35733,-17.728 -12.79466,-29.348 4.09866,-10.43067 14.12933,-13.39867 27.52,-8.14 13.38933,5.26 18.71866,14.26267 14.62133,24.69467 v 0 c -2.21067,5.628 -6.48133,10.05866 -12.024,12.47466 -2.9,1.264 -5.968,1.89867 -9.04,1.89867"
           style="fill:#6f818c;fill-opacity:1;fill-rule:nonzero;stroke:none;stroke-width:0.133333" /><g
           id="g148"
           transform="translate(-314.04829,-321.06229)"><path
             id="path21"
             d="m 468.02059,377.44227 c -2.048,9.37733 0.80934,18.68133 6.86534,25.23867 -1.86934,8.55733 -1.54134,7.05466 -4.59334,21.03066 29.86534,18.576 64.24667,26.084 99.11467,21.644 3.05066,-13.976 2.72266,-12.47333 4.58933,-21.02 8.23867,-3.436 14.728,-10.71066 16.776,-20.088 3.332,-15.26133 -6.33733,-30.33333 -21.60933,-33.668 -3.49467,-0.76266 -6.97067,-0.84266 -10.30133,-0.33066 -4.99467,-7.16 -12.59734,-12.528 -21.80534,-14.53867 -9.19466,-2.008 -18.332,-0.296 -25.85733,4.13067 -2.81333,-1.85467 -6.01867,-3.23334 -9.512,-3.996 -15.26133,-3.33334 -30.33333,6.336 -33.66667,21.59733"
             style="fill:#ffffff;fill-opacity:1;fill-rule:nonzero;stroke:none;stroke-width:0.133333" /><path
             id="path22"
             d="m 587.68059,403.57294 c -2.956,13.53466 -16.372,22.14133 -29.90533,19.18666 -0.81867,-0.18 -1.63333,-0.4 -2.42533,-0.65866 -1.66534,-0.54134 -3.44934,0.36933 -3.99067,2.03333 -0.54133,1.66267 0.368,3.44933 2.032,3.99067 0.98933,0.32133 2.00933,0.59866 3.032,0.82133 2.25333,0.492 4.5,0.72933 6.71733,0.72933 2.24534,-10e-4 4.45734,-0.244 6.60267,-0.70933 l -2.95067,13.51467 c -32.68933,3.68133 -64.72666,-3.31334 -92.92533,-20.29334 l 2.94933,-13.50666 c 3.55334,2.66 7.664,4.556 12.12934,5.53066 1.03066,0.22534 2.084,0.4 3.12933,0.52 0.12267,0.0147 0.244,0.0213 0.36533,0.0213 1.58667,0 2.95734,-1.192 3.14134,-2.80667 0.2,-1.73733 -1.04667,-3.308 -2.78534,-3.50667 -0.83466,-0.096 -1.676,-0.236 -2.5,-0.416 -13.53466,-2.956 -22.14,-16.372 -19.18533,-29.90533 2.956,-13.536 16.37467,-22.14 29.90667,-19.18667 1.40133,0.30667 2.76266,0.73334 4.07866,1.26667 -1.95733,1.55733 -3.78533,3.312 -5.44666,5.26133 -1.13467,1.332 -0.976,3.33067 0.356,4.46534 1.33066,1.13466 3.32933,0.97466 4.464,-0.356 7.86133,-9.22134 20.09466,-13.34667 31.92266,-10.76267 11.83734,2.58533 21.24134,11.43333 24.54134,23.092 0.39466,1.39467 1.66533,2.30533 3.04533,2.30533 0.28667,0 0.576,-0.0387 0.86533,-0.12 1.68267,-0.476 2.66,-2.22666 2.184,-3.91066 -0.69733,-2.46534 -1.628,-4.82267 -2.76,-7.05467 1.416,0.064 2.82667,0.244 4.22534,0.54933 13.53466,2.956 22.14133,16.37067 19.18666,29.90534 z M 569.84592,367.4796 c -3.14133,-0.68666 -6.33333,-0.87866 -9.51333,-0.592 -5.52266,-7.14266 -13.44533,-12.27333 -22.588,-14.26933 -9.14133,-1.996 -18.47866,-0.63333 -26.47333,3.55733 -2.77467,-1.588 -5.75867,-2.744 -8.90267,-3.43066 -8.20933,-1.79467 -16.62533,-0.28267 -23.69733,4.25466 -7.072,4.53734 -11.95467,11.55734 -13.748,19.76667 -1.792,8.20933 -0.28133,16.62533 4.256,23.69867 0.69867,1.088 1.46133,2.11733 2.272,3.09866 l -4.252,19.472 c -0.28667,1.31067 0.28267,2.65867 1.42133,3.36534 24.812,15.43333 52.56,23.372 81.21734,23.372 6.616,0 13.28133,-0.424 19.96933,-1.27467 1.32933,-0.16933 2.408,-1.15733 2.69333,-2.46667 l 4.25467,-19.484 c 8.42133,-4.06 14.968,-11.80266 17.11333,-21.62266 3.7,-16.94667 -7.076,-33.74534 -24.02267,-37.44534"
             style="fill:#e2e2e2;fill-opacity:1;fill-rule:nonzero;stroke:none;stroke-width:0.133333" /></g></g><path
         id="path402-8"
         d="m 0,0 c 0,-0.903 -0.45,-3.576 0.452,-3.726 0.903,-0.151 70.306,-2.258 74.369,-0.753 0.603,0.602 1.092,3.726 0.49,4.027 C 74.708,-0.15 1.054,0.301 0,0"
         style="display:inline;fill:#fc9b14;fill-opacity:1;fill-rule:nonzero;stroke:none"
         transform="matrix(-5.0828212,0,0,-5.2269842,760.40042,466.10308)"
         clip-path="url(#clipPath403)" /><path
         d="m 0,0 c -10.6,-1.009 -70.504,0.239 -75.583,0.494 0.001,-0.794 0.116,-1.493 0.564,-1.568 0.904,-0.151 70.306,-2.258 74.37,-0.753 C -0.382,-1.559 -0.136,-0.794 0,0"
         style="display:inline;fill:#fc620f;fill-opacity:1;fill-rule:nonzero;stroke:none"
         transform="matrix(-5.082821,0,0,-5.226985,376.79609,479.9667)"
         clip-path="url(#clipPath410-0)"
         id="path411" /></g></g></svg>
