<?xml version="1.0" encoding="utf-8"?>
<!-- Generator: Adobe Illustrator 26.0.2, SVG Export Plug-In . SVG Version: 6.00 Build 0)  -->
<svg version="1.1"
	 id="svg1" inkscape:export-xdpi="25.4" sodipodi:docname="play ui.eps" xmlns:inkscape="http://www.inkscape.org/namespaces/inkscape" xmlns:sodipodi="http://sodipodi.sourceforge.net/DTD/sodipodi-0.dtd" xmlns:svg="http://www.w3.org/2000/svg"
	 xmlns="http://www.w3.org/2000/svg" xmlns:xlink="http://www.w3.org/1999/xlink" x="0px" y="0px" viewBox="0 0 300 300"
	 style="enable-background:new 0 0 300 300;" xml:space="preserve">
<style type="text/css">
	.st0{fill:#87AA8B;}
	.st1{fill:#008000;}
	.st2{fill:#4BDD5A;}
	.st3{fill:#B4FBB4;}
	.st4{fill:#0BD10B;}
</style>
<sodipodi:namedview  bordercolor="#000000" borderopacity="0.25" id="namedview1" inkscape:current-layer="layer11" inkscape:cx="1571.4053" inkscape:cy="703.28628" inkscape:deskcolor="#d1d1d1" inkscape:document-units="mm" inkscape:pagecheckerboard="0" inkscape:pageopacity="0.0" inkscape:showpageshadow="2" inkscape:window-height="741" inkscape:window-maximized="0" inkscape:window-width="1328" inkscape:window-x="63" inkscape:window-y="42" inkscape:zoom="0.13650202" pagecolor="#ffffff">
	<inkscape:page  bleed="0" height="600" id="page2" margin="0" width="800" x="0" y="0"></inkscape:page>
</sodipodi:namedview>
<g id="layer7" transform="matrix(0.95429627,0,0,0.99547513,16.834683,3.5210986)" inkscape:groupmode="layer" inkscape:label="flavor">
	<g id="pistachio" transform="matrix(0.19935527,0,0,0.19050951,63.103685,147.36162)">
		<path id="path1798-0" class="st0" d="M736.11,327.34c88.38-18.94,225.43-264.07,122.36-521.72
			C755.44-452.03,491.36-516.43,375.42-510.01c-340.85,18.94-489.1,264.57-502.4,457.32c-12.88,186.78,64.6,356.6,109.5,360.72
			c70.85,6.43,64.41-109.53,115.94-90.18c51.53,19.31,12.88,276.93,103.06,289.81c90.17,12.89,38.65-231.87,96.62-225.41
			c57.97,6.43,38.43,148.12,135.26,148.12c103.06,0,57.97-167.47,128.82-173.9C633.05,250.05,645.94,346.66,736.11,327.34"/>
		<path id="path1799-60" class="st1" d="M736.11,327.34c88.38-18.94,225.43-264.07,122.36-521.72
			C755.44-452.03,491.36-516.43,375.42-510.01c-340.85,18.94-489.1,264.57-502.4,457.32c-12.88,186.78,64.6,356.6,109.5,360.72
			c70.85,6.43,64.41-109.53,115.94-90.18c51.53,19.31,12.88,276.93,103.06,289.81c90.17,12.89,38.65-231.87,96.62-225.41
			c57.97,6.43,38.43,148.12,135.26,148.12c103.06,0,57.97-167.47,128.82-173.9C633.05,250.05,645.94,346.66,736.11,327.34"/>
		<path id="path1800-3" class="st2" d="M587.33-46.83c29.82-4.01,57.82,13.46,87.01,20.75c42.51,10.62,90.06-1.89,121.88-32.01
			c31.83-30.08,48.34-85.19,32.05-125.86c-97.9-244.8-348.81-305.99-458.97-299.87C45.46-465.83-95.4-232.48-108.04-49.32
			C-120.28,128.16-45.24,147.67-4.6,134.1c59.24,17.61,105.08-85.3,166.73-80.96c21.91,1.51,46.75,14.7,60.28,32.01
			c13.53,17.31,33.76,35.45,54.63,28.61c18.38-6.05,26.15-28.42,42.86-38.17c25.58-14.89,56.27,5.25,81.91,20.03
			c23.11,13.34,49.39,22.87,76.02,21.05c26.62-1.81,53.38-16.82,63.81-41.39c12.64-29.74,0.09-67.16,17.56-94.37
			C569.69-35.45,568.09-44.26,587.33-46.83"/>
		<path id="path1801-7" class="st3" d="M729.67-226.58c-26.26-157.53-270.52-238.34-386.52-225.11
			c-265.14,30.2-418.6,238-399.28,353.91C-51.43-69.54-24.58-50.49,4-52.91c28.57-2.46,52.03-22.83,72.29-43.05
			c65.95-65.88,133.35-147.21,226.59-151.71c102.71-4.91,183.91,86.74,283.54,112.14c29.19,7.41,60.99,8.81,88.72-2.95
			C702.86-150.24,736.11-187.96,729.67-226.58"/>
		<path id="path1805-9" class="st4" d="M882.63,104.16c-30.24,42.9-88.09,138.67-140.07,145.89
			c-66.16,9.18-147.75-111.87-204.92-77.37c-33.49,20.26-46.82,61.04-65.8,95.24c-18.99,34.2-32,72.3-67.43,72.91
			c-37.24,0.64-43.05-57.11-54.86-92.45c-11.81-35.3-50.87-72.38-81.16-50.68c-10.49,7.52-15.87,20.14-20.16,32.31
			c-10.2,28.91-17.14,59-20.63,89.46c-1.84,16.1-3.16,33.41-13.35,46c-19.46,24.04-60.61,14.78-79.81-9.6
			c8.02,71.47,19.95,145.06,67.08,151.79c90.17,12.89,38.65-231.87,96.62-225.41c57.97,6.43,38.43,148.12,135.26,148.12
			c103.06,0,57.97-167.47,128.82-173.9c70.85-6.43,83.73,90.18,173.9,70.87c52.03-11.15,120.85-100.69,147.72-224.99
			C883.42,102.95,883.04,103.56,882.63,104.16"/>
	</g>
</g>
</svg>
