<?xml version="1.0" encoding="utf-8"?>
<!-- Generator: Adobe Illustrator 26.0.2, SVG Export Plug-In . SVG Version: 6.00 Build 0)  -->
<svg version="1.1"
	 id="svg1" inkscape:export-filename="pistachio.svg" sodipodi:docname="play ui.eps" xmlns:inkscape="http://www.inkscape.org/namespaces/inkscape" xmlns:sodipodi="http://sodipodi.sourceforge.net/DTD/sodipodi-0.dtd" xmlns:svg="http://www.w3.org/2000/svg"
	 xmlns="http://www.w3.org/2000/svg" xmlns:xlink="http://www.w3.org/1999/xlink" x="0px" y="0px" viewBox="0 0 300 300"
	 style="enable-background:new 0 0 300 300;" xml:space="preserve">
<style type="text/css">
	.st0{fill:#E1822D;}
	.st1{fill:#ED932B;}
	.st2{fill:#F4B84F;}
	.st3{fill:#F7D776;}
	.st4{fill:#A7533F;}
</style>
<sodipodi:namedview  bordercolor="#000000" borderopacity="0.25" id="namedview1" inkscape:current-layer="layer11" inkscape:cx="1571.4053" inkscape:cy="703.28628" inkscape:deskcolor="#d1d1d1" inkscape:document-units="mm" inkscape:pagecheckerboard="0" inkscape:pageopacity="0.0" inkscape:showpageshadow="2" inkscape:window-height="741" inkscape:window-maximized="0" inkscape:window-width="1328" inkscape:window-x="63" inkscape:window-y="42" inkscape:zoom="0.13650202" pagecolor="#ffffff">
	<inkscape:page  bleed="0" height="600" id="page2" margin="0" width="800" x="0" y="0"></inkscape:page>
</sodipodi:namedview>
<g id="layer7" transform="matrix(0.95429627,0,0,0.99547513,16.834683,3.5210986)" inkscape:groupmode="layer" inkscape:label="flavor">
	<g id="peanut" transform="matrix(1.0478926,0,0,1.0045454,-295.90731,481.29607)">
		<path id="path522" class="st0" d="M347.7-285.8c-2.1,1.7-4,12.3,0.4,15.9c4.5,3.6,5,8.7,7.6,8.4c2.5-0.3,2.8-8.4,6.7-9.8
			c3.9-1.4,5.2-5.4,3.1-8c-2.1-2.7-10.4-0.5-11.3-3.8C353.4-286.5,351.4-288.7,347.7-285.8"/>
		<path id="path523" class="st1" d="M349.2-286.2c-1.7,1.9-2.9,9.2-0.2,12.1c2.7,2.9,5.9,8.5,8.2,4.7c2.3-3.8,9-5.6,8.3-8.2
			c-0.8-2.6-8.2-2.7-10.1-6.2S351.1-288.3,349.2-286.2"/>
		<path id="path524" class="st2" d="M349.2-286.2c-1.8,1.8,0.2,7.1,2.2,9.4c2,2.3,8.7,0.1,9.1-1.2c0.4-1.3-2.5-1.3-3.9-4.2
			C355.2-284.9,352.8-289.9,349.2-286.2"/>
		<path id="path525" class="st3" d="M349.2-286.2c0,0,2.6-3.5,4.6-1.6c1.9,1.9,1.9,5.5,4.2,5.7c2.3,0.2,5.9,0.5,6.8,2.2
			c0.9,1.8,0.9,1.8,0.9,1.8s-0.6-1.8-5.1-1.9c-4.5,0-4.8,0.1-6.3-3.1C352.7-286.3,352.1-288.1,349.2-286.2"/>
		<path id="path526" class="st0" d="M371.9-206.6c-1.4,1.2-2.7,8.3,0.3,10.8s3.4,5.9,5.1,5.7c1.7-0.2,1.9-5.7,4.5-6.6
			c2.7-1,3.5-3.6,2.1-5.5c-1.4-1.8-7-0.3-7.6-2.6C375.8-207.1,374.4-208.6,371.9-206.6"/>
		<path id="path527" class="st1" d="M373-206.9c-1.2,1.3-2,6.2-0.1,8.2c1.9,2,4,5.7,5.6,3.2c1.5-2.6,6.1-3.8,5.6-5.5
			c-0.5-1.8-5.5-1.8-6.8-4.2C375.9-207.7,374.2-208.3,373-206.9"/>
		<path id="path528" class="st2" d="M373-206.9c-1.2,1.2,0.2,4.8,1.5,6.4c1.4,1.5,5.9,0.1,6.2-0.8c0.3-0.9-1.7-0.9-2.7-2.8
			C377-206.1,375.4-209.4,373-206.9"/>
		<path id="path529" class="st3" d="M373-206.9c0,0,1.8-2.4,3.1-1.1c1.3,1.3,1.3,3.7,2.8,3.9c1.5,0.1,4,0.3,4.6,1.5
			c0.6,1.2,0.6,1.2,0.6,1.2s-0.4-1.2-3.5-1.3c-3.1,0-3.3,0-4.3-2.1C375.3-207,374.9-208.2,373-206.9"/>
		<path id="path530" class="st4" d="M409.9-263.4c0.7-2.5-1.3-6.5-4-10.2C406.8-270,408.2-266.6,409.9-263.4"/>
		<path id="path531" class="st0" d="M466.6-216.1c4.2-8.6-5.3-25.2-8.3-28.3c-3-3.2-10.3-0.7-13.3,4.6c-1.7,3-8.4,18.6-4.4,25.5
			c1,1.8,3.5,1.6,5.3,1.7c2.2,0.1,4.3-1.3,6.4-1.7c2.2-0.3,4.3,0.4,6.5,0.8C461-213.3,465.5-213.8,466.6-216.1"/>
		<path id="path532" class="st1" d="M457-245.5c-2.6-0.4-8.1,0.5-9.5,3.2c-1.4,2.7-6.4,18.5-3.3,22.6c1.2,1.5,4.3,2.1,7.1,0.3
			c4.6-2.9,13.3,1,14.2-2.5C467.1-227.4,460.3-245,457-245.5"/>
		<path id="path533" class="st2" d="M449-233.4c0.9,0,1.6-1,2.4-1.2c0.8-0.2,1.6,0.4,2.2,1.1c0.6,0.8,0.9,1.7,1.2,2.7
			c0.9,2.4,1.9,4.9,3.7,6.2c1.8,1.3,4.7,0.7,5.3-1.8c0.2-0.9,0.2-1.8,0.1-2.8c-0.2-2-0.5-4.1-0.9-6.1c-0.7-3.1-1.7-6.3-3.7-8.4
			c-2.5-2.6-7.4-3-10.1-0.4C447.5-242.3,445.1-233.2,449-233.4"/>
		<path id="path534" class="st3" d="M448.1-243.2c0,0,4.7-5.5,9.5-2.7c3.3,1.9,6.8,12.5,7.9,17.4c2.3,10.3-5.1,8.4-5.1,8.4
			s5.1-1.7,2.1-12.8c-1.7-6.3-4-10.5-7-11.5C452.6-245.4,448.1-243.2,448.1-243.2"/>
		<path id="path535" class="st0" d="M423-226.9c-2.2-9.5-18.1-12-21.9-11.5c-3.8,0.5-7.2,8.7-6.2,15c0.6,3.5,5.1,19.9,11.8,21
			c1.7,0.3,3.3-2.1,4.5-3.6c1.5-1.9,2.1-4.7,3.3-6.9c1.2-2.1,3.1-3.6,4.8-5.3C420.8-219.9,423.6-224.4,423-226.9"/>
		<path id="path536" class="st1" d="M399.6-237.9c-2,2-5.1,7.6-4.5,10.7c0.6,3.1,6.4,18.1,10.9,18c1.6,0,4.1-2.4,4.9-6.1
			c1.4-6.1,9.5-11.2,8.1-14.4C416.8-234.8,402.1-240.5,399.6-237.9"/>
		<path id="path537" class="st2" d="M401.2-222.6c0.6-0.8,0.5-2.1,0.9-3c0.4-0.8,1.3-1.2,2.1-1.2c0.8,0,1.6,0.4,2.3,0.7
			c2,0.8,4.1,1.6,6.1,0.8c2-0.8,3.5-3.8,2.5-6c-0.4-0.8-1-1.4-1.5-1.9c-1.3-1.2-2.7-2.3-4.1-3.2c-2.2-1.5-4.8-2.7-7.3-2.3
			c-3.2,0.5-6.7,4.6-7,8.8C395-227.2,398.7-219,401.2-222.6"/>
		<path id="path538" class="st3" d="M395-228.4c0,0,0-7.9,4.8-10.3c3.3-1.7,11.8,2.2,15.4,4.5c7.5,4.8,1.5,10.1,1.5,10.1
			s2.4-5.7-6-10.4c-4.8-2.7-8.8-3.4-11.3-1.4C396.7-233.8,395-228.4,395-228.4"/>
		<path id="path539" class="st0" d="M498.3-231.4c2.7-5.6-3.4-16.3-5.4-18.4c-1.9-2.1-6.7-0.4-8.6,3c-1.1,1.9-5.4,12-2.9,16.5
			c0.7,1.2,2.3,1.1,3.4,1.1c1.4,0,2.8-0.9,4.2-1.1c1.4-0.2,2.8,0.3,4.2,0.5C494.6-229.5,497.5-229.9,498.3-231.4"/>
		<path id="path540" class="st1" d="M492.1-250.4c-1.7-0.3-5.2,0.3-6.2,2.1c-0.9,1.8-4.2,12-2.1,14.7c0.7,1,2.8,1.4,4.6,0.2
			c3-1.9,8.6,0.7,9.2-1.6C498.6-238.6,494.2-250.1,492.1-250.4"/>
		<path id="path541" class="st2" d="M486.8-242.5c0.6,0,1-0.6,1.6-0.8c0.5-0.1,1.1,0.2,1.4,0.7c0.4,0.5,0.6,1.1,0.8,1.7
			c0.6,1.6,1.2,3.2,2.4,4c1.2,0.8,3,0.4,3.5-1.2c0.2-0.6,0.1-1.2,0-1.8c-0.1-1.3-0.3-2.6-0.6-3.9c-0.4-2-1.1-4.1-2.4-5.4
			c-1.6-1.7-4.8-2-6.6-0.3C485.9-248.3,484.3-242.4,486.8-242.5"/>
		<path id="path542" class="st3" d="M486.3-248.9c0,0,3.1-3.5,6.2-1.8c2.1,1.2,4.4,8.1,5.1,11.3c1.5,6.7-3.3,5.4-3.3,5.4
			s3.3-1.1,1.3-8.3c-1.1-4.1-2.6-6.8-4.6-7.4C489.1-250.3,486.3-248.9,486.3-248.9"/>
		<path id="path543" class="st0" d="M437.5-242.6c2.4-5-3.1-14.6-4.8-16.4c-1.7-1.8-6-0.4-7.7,2.6c-1,1.7-4.9,10.8-2.6,14.8
			c0.6,1,2.1,1,3.1,1c1.3,0,2.5-0.8,3.7-1c1.2-0.2,2.5,0.2,3.7,0.4C434.3-241,436.9-241.3,437.5-242.6"/>
		<path id="path544" class="st1" d="M432-259.7c-1.5-0.2-4.7,0.3-5.5,1.9c-0.8,1.6-3.7,10.7-1.9,13.1c0.7,0.9,2.5,1.2,4.1,0.2
			c2.7-1.7,7.7,0.6,8.3-1.4C437.8-249.1,433.9-259.4,432-259.7"/>
		<path id="path545" class="st2" d="M427.3-252.6c0.5,0,0.9-0.6,1.4-0.7c0.5-0.1,0.9,0.2,1.3,0.7c0.3,0.4,0.5,1,0.7,1.6
			c0.5,1.4,1.1,2.8,2.2,3.6c1.1,0.8,2.7,0.4,3.1-1.1c0.1-0.5,0.1-1.1,0-1.6c-0.1-1.2-0.3-2.4-0.5-3.5c-0.4-1.8-1-3.7-2.1-4.9
			c-1.5-1.5-4.3-1.8-5.9-0.2C426.4-257.8,425.1-252.5,427.3-252.6"/>
		<path id="path546" class="st3" d="M426.8-258.3c0,0,2.7-3.2,5.5-1.6c1.9,1.1,4,7.2,4.6,10.1c1.3,6-2.9,4.8-2.9,4.8s2.9-1,1.2-7.4
			c-1-3.7-2.3-6.1-4.1-6.7C429.4-259.6,426.8-258.3,426.8-258.3"/>
		<path id="path547" class="st0" d="M391.4-295.9c-1.9,3.1-2.5,13.5-1.9,16.8c0.6,3.3,6.3,1.8,9.3,3.5c3.1,1.7,5.3,14.9,8,14.7
			c2.7-0.2,12.5-8.2,12.9-17.2c0.5-9-2.4-23.6-7.3-24.3C407.6-303.1,393.9-300,391.4-295.9"/>
		<path id="path548" class="st1" d="M394.7-295.2c-1.2,2.3-3.4,10.3-1.6,11.8c1.8,1.5,7.9,2.4,9.6,5.4c1.7,3,2.8,12.1,5.6,11.9
			c2.7-0.2,10.5-3.3,11.5-11.9c0.9-8.6,0.6-21.9-7.3-24.3C404.6-304.8,396.8-299.2,394.7-295.2"/>
		<path id="path549" class="st2" d="M397.9-299.5c-2.2,2.2-3.1,12.2-1.1,12.1c2,0,7-0.9,9.5,2.4c2.5,3.3-0.5,11,0.7,13.6
			c1.2,2.6,11.9-2.1,12.7-6.8c0.8-4.7,2.8-16-2.5-21.6C412-305.2,400.6-302.2,397.9-299.5"/>
		<path id="path550" class="st3" d="M391.4-295.9c0,0,5.7-6,14.2-7.7c8.4-1.7,14,3.2,14.7,7c0.6,3.8,2.3,18.2-1,22
			c-3.3,3.8-12.1,3.2-12.1,3.2s9.7-1.1,11.1-6.9c1.4-5.8,1.7-15.8-1.2-18.9c-2.9-3.2-7-3.6-14.3-2.6
			C395.3-298.8,391.4-295.9,391.4-295.9"/>
		<path id="path551" class="st0" d="M336-243.5c-1.5,2.4-1.9,10.4-1.5,13c0.4,2.6,4.8,1.4,7.2,2.7c2.4,1.3,4.1,11.5,6.2,11.3
			c2.1-0.2,9.7-6.3,10-13.3c0.4-7-1.9-18.2-5.6-18.7C348.5-249.1,337.9-246.7,336-243.5"/>
		<path id="path552" class="st1" d="M338.5-243.1c-0.9,1.8-2.6,7.9-1.2,9.1c1.4,1.2,6.1,1.8,7.4,4.1c1.3,2.3,2.2,9.3,4.3,9.2
			c2.1-0.2,8.2-2.5,8.9-9.2c0.7-6.7,0.5-16.9-5.6-18.7C346.2-250.4,340.2-246.1,338.5-243.1"/>
		<path id="path553" class="st2" d="M341-246.4c-1.7,1.7-2.4,9.4-0.9,9.4c1.5,0,5.4-0.7,7.4,1.9c2,2.5-0.4,8.5,0.6,10.5
			c1,2,9.2-1.7,9.8-5.3c0.6-3.6,2.2-12.4-1.9-16.6C351.9-250.8,343.1-248.5,341-246.4"/>
		<path id="path554" class="st3" d="M336-243.5c0,0,4.4-4.6,10.9-5.9c6.5-1.3,10.8,2.5,11.3,5.4c0.5,2.9,1.8,14-0.8,17
			c-2.6,3-9.4,2.5-9.4,2.5s7.5-0.8,8.6-5.3c1.1-4.5,1.3-12.2-0.9-14.6c-2.3-2.5-5.4-2.8-11.1-2C339-245.8,336-243.5,336-243.5"/>
		<path id="path555" class="st0" d="M498.5-216c-0.8,1.3-1,5.6-0.8,6.9c0.2,1.4,2.6,0.7,3.8,1.4c1.3,0.7,2.2,6.1,3.3,6
			c1.1-0.1,5.1-3.4,5.3-7.1c0.2-3.7-1-9.7-3-10C505.2-219,499.5-217.7,498.5-216"/>
		<path id="path556" class="st1" d="M499.8-215.8c-0.5,0.9-1.4,4.2-0.6,4.8c0.8,0.6,3.3,1,4,2.2c0.7,1.2,1.2,5,2.3,4.9
			c1.1-0.1,4.3-1.3,4.7-4.9c0.4-3.6,0.3-9-3-10C503.9-219.7,500.7-217.4,499.8-215.8"/>
		<path id="path557" class="st2" d="M501.1-217.5c-0.9,0.9-1.3,5-0.5,5c0.8,0,2.9-0.3,3.9,1c1,1.3-0.2,4.5,0.3,5.6
			c0.5,1.1,4.9-0.9,5.2-2.8c0.3-1.9,1.2-6.6-1-8.9C507-219.9,502.3-218.7,501.1-217.5"/>
		<path id="path558" class="st3" d="M498.5-216c0,0,2.4-2.5,5.8-3.2c3.5-0.7,5.8,1.3,6,2.9c0.3,1.6,0.9,7.5-0.4,9.1
			c-1.4,1.6-5,1.3-5,1.3s4-0.4,4.6-2.8c0.6-2.4,0.7-6.5-0.5-7.8c-1.2-1.3-2.9-1.5-5.9-1.1C500.1-217.3,498.5-216,498.5-216"/>
		<path id="path559" class="st0" d="M380.9-268.8c-0.7,1.1-0.9,4.9-0.7,6.1c0.2,1.2,2.3,0.7,3.4,1.3c1.1,0.6,1.9,5.4,2.9,5.3
			c1-0.1,4.5-3,4.7-6.3c0.2-3.3-0.9-8.6-2.6-8.8C386.8-271.5,381.8-270.3,380.9-268.8"/>
		<path id="path560" class="st1" d="M382.1-268.6c-0.4,0.8-1.2,3.7-0.6,4.3c0.7,0.5,2.9,0.9,3.5,1.9c0.6,1.1,1,4.4,2,4.3
			c1-0.1,3.8-1.2,4.2-4.3c0.3-3.1,0.2-7.9-2.6-8.8C385.7-272.1,382.8-270.1,382.1-268.6"/>
		<path id="path561" class="st2" d="M383.3-270.2c-0.8,0.8-1.1,4.4-0.4,4.4c0.7,0,2.5-0.3,3.5,0.9c0.9,1.2-0.2,4,0.3,5
			c0.5,1,4.3-0.8,4.6-2.5c0.3-1.7,1-5.8-0.9-7.8C388.4-272.3,384.2-271.2,383.3-270.2"/>
		<path id="path562" class="st3" d="M380.9-268.8c0,0,2.1-2.2,5.1-2.8c3.1-0.6,5.1,1.2,5.3,2.5c0.2,1.4,0.8,6.6-0.4,8
			c-1.2,1.4-4.4,1.2-4.4,1.2s3.5-0.4,4-2.5c0.5-2.1,0.6-5.7-0.4-6.9c-1.1-1.2-2.5-1.3-5.2-1C382.3-269.9,380.9-268.8,380.9-268.8"/>
		<path id="path563" class="st0" d="M321.1-205.7c-0.7,1.1-0.9,4.9-0.7,6.1c0.2,1.2,2.3,0.7,3.4,1.3c1.1,0.6,1.9,5.4,2.9,5.3
			c1-0.1,4.5-3,4.7-6.2c0.2-3.3-0.9-8.6-2.6-8.8C327-208.3,322-207.1,321.1-205.7"/>
		<path id="path564" class="st1" d="M322.3-205.4c-0.4,0.8-1.2,3.7-0.6,4.3c0.7,0.5,2.9,0.9,3.5,2c0.6,1.1,1,4.4,2,4.3
			c1-0.1,3.8-1.2,4.2-4.3c0.3-3.1,0.2-8-2.6-8.8C325.9-208.9,323.1-206.9,322.3-205.4"/>
		<path id="path565" class="st2" d="M323.5-207c-0.8,0.8-1.1,4.4-0.4,4.4c0.7,0,2.5-0.3,3.5,0.9c0.9,1.2-0.2,4,0.3,4.9
			c0.5,1,4.3-0.8,4.6-2.5c0.3-1.7,1-5.8-0.9-7.8C328.6-209.1,324.5-208,323.5-207"/>
		<path id="path566" class="st3" d="M321.1-205.7c0,0,2.1-2.2,5.1-2.8c3.1-0.6,5.1,1.2,5.3,2.5c0.2,1.4,0.8,6.6-0.4,8
			c-1.2,1.4-4.4,1.2-4.4,1.2s3.5-0.4,4-2.5c0.5-2.1,0.6-5.7-0.4-6.9c-1.1-1.2-2.5-1.3-5.2-1C322.5-206.7,321.1-205.7,321.1-205.7"/>
		<path id="path567" class="st0" d="M453.6-286.9c-2.6,2.1-5,15.2,0.6,19.7c5.5,4.5,6.2,10.7,9.3,10.4s3.4-10.3,8.3-12.1
			c4.9-1.8,6.4-6.6,3.9-9.9c-2.5-3.3-12.8-0.6-13.9-4.8C460.6-287.7,458.1-290.5,453.6-286.9"/>
		<path id="path568" class="st1" d="M455.5-287.4c-2.1,2.3-3.6,11.4-0.3,14.9c3.4,3.6,7.3,10.5,10.1,5.8c2.8-4.7,11.2-6.9,10.2-10.1
			c-0.9-3.2-10.1-3.3-12.4-7.6C460.8-288.8,457.8-290,455.5-287.4"/>
		<path id="path569" class="st2" d="M455.5-287.4c-2.2,2.3,0.3,8.8,2.8,11.7c2.5,2.8,10.8,0.1,11.3-1.5c0.5-1.6-3.1-1.7-4.9-5.2
			C462.9-285.9,459.9-292,455.5-287.4"/>
		<path id="path570" class="st3" d="M455.5-287.4c0,0,3.2-4.3,5.6-2c2.4,2.3,2.3,6.8,5.2,7.1c2.8,0.2,7.3,0.6,8.4,2.7
			c1.2,2.2,1.2,2.2,1.2,2.2s-0.8-2.3-6.4-2.3c-5.6,0-6,0.1-7.8-3.9C459.8-287.5,459.1-289.8,455.5-287.4"/>
	</g>
</g>
</svg>
