<?xml version="1.0" encoding="utf-8"?>
<!-- Generator: Adobe Illustrator 26.0.2, SVG Export Plug-In . SVG Version: 6.00 Build 0)  -->
<svg version="1.1"
	 id="svg1" inkscape:export-filename="ui.svg" sodipodi:docname="play ui.eps" xmlns:inkscape="http://www.inkscape.org/namespaces/inkscape" xmlns:sodipodi="http://sodipodi.sourceforge.net/DTD/sodipodi-0.dtd" xmlns:svg="http://www.w3.org/2000/svg"
	 xmlns="http://www.w3.org/2000/svg" xmlns:xlink="http://www.w3.org/1999/xlink" x="0px" y="0px" viewBox="0 0 2267.7 1700.8"
	 style="enable-background:new 0 0 2267.7 1700.8;" xml:space="preserve">
<style type="text/css">
	.st0{fill:#FDFDE0;}
	.st1{clip-path:url(#SVGID_00000111174556275263242580000015990054550822165904_);fill:#FDD5E1;}
	.st2{clip-path:url(#SVGID_00000153674907719949861180000013154344350425297294_);fill:#FD98B6;}
	.st3{opacity:0.5;clip-path:url(#SVGID_00000169517046754702566650000007286566896643697818_);}
	.st4{clip-path:url(#SVGID_00000174564527764475304440000000994233195375935915_);fill:#DE7192;}
	.st5{opacity:0.3;clip-path:url(#SVGID_00000157309271884637059460000014246629565621526460_);}
	.st6{clip-path:url(#SVGID_00000093896856443826120230000009214202655683921540_);fill:#E87999;}
	.st7{opacity:0.5;clip-path:url(#SVGID_00000003805045794454496750000015517135561616797064_);}
	.st8{clip-path:url(#SVGID_00000132064550652558492060000001042240845129396104_);fill:#DE7192;}
	.st9{clip-path:url(#SVGID_00000040575241652992666300000016586385986932425646_);fill:#C0EBFF;}
	.st10{clip-path:url(#SVGID_00000002382051891399292150000016096192751297521296_);fill:#B05870;}
	.st11{clip-path:url(#SVGID_00000165947444286658723230000008529404340310610362_);fill:#FFECA6;}
	.st12{opacity:0.5;clip-path:url(#SVGID_00000080920918220197149070000008129336187459454092_);}
	.st13{clip-path:url(#SVGID_00000163062930726695074350000008346830175028834199_);fill:#E6B873;}
	.st14{clip-path:url(#SVGID_00000134952205879812236080000014587525342094662577_);fill:#FFECA6;}
	.st15{clip-path:url(#SVGID_00000157266851465790340500000005383503908557260476_);fill:#B05870;}
	.st16{opacity:0.5;clip-path:url(#SVGID_00000031920941824962047960000011782041018932486577_);}
	.st17{clip-path:url(#SVGID_00000070103017974689726230000016189936594168022453_);fill:#6B2A3D;}
	.st18{opacity:0.5;clip-path:url(#SVGID_00000011711374622939271390000010074682322490973334_);}
	.st19{clip-path:url(#SVGID_00000110456788949115185600000016983431321491391929_);fill:#6B2A3D;}
	.st20{clip-path:url(#SVGID_00000088846530706207648340000006689645962518457270_);fill:#FFFFFF;}
	.st21{clip-path:url(#SVGID_00000043418912158793584140000010518758426464177076_);fill:#C2677F;}
	.st22{clip-path:url(#SVGID_00000083067924487837063820000012714988153407891340_);fill:#C2677F;}
	.st23{clip-path:url(#SVGID_00000150784596665672464520000000057608275186812844_);fill:#C2677F;}
	.st24{clip-path:url(#SVGID_00000043442044811640130160000014929606306825617083_);fill:#FFF2C4;}
	.st25{clip-path:url(#SVGID_00000145755054091687353930000008408614218169436585_);fill:#E6B873;}
	.st26{clip-path:url(#SVGID_00000003083410015562769010000005105697310824648834_);fill:#FDD5E1;}
	.st27{clip-path:url(#SVGID_00000036238532078420837660000015732329911232623000_);fill:#808080;}
	.st28{clip-path:url(#SVGID_00000042011529800101379080000014774919103733133470_);fill:#666666;}
	.st29{clip-path:url(#SVGID_00000163756160102372024280000007337811081634948789_);fill:#A6A6A6;}
	.st30{clip-path:url(#SVGID_00000090253527907468738710000002050114927596618886_);fill:#666666;}
	.st31{clip-path:url(#SVGID_00000150074092177158161740000009143306888058759836_);fill:#999999;}
	.st32{clip-path:url(#SVGID_00000089546828674134951020000005851572330311663280_);fill:#FDD5E1;}
	.st33{clip-path:url(#SVGID_00000036957085548334943180000006167306278898981008_);fill:#FDD5E1;}
	.st34{clip-path:url(#SVGID_00000049222880024224471990000002442206445237584799_);fill:#808080;}
	.st35{clip-path:url(#SVGID_00000061466558038013674380000014773213968662661052_);fill:#666666;}
	.st36{clip-path:url(#SVGID_00000110455465111753084190000006896008592550147762_);fill:#A6A6A6;}
	.st37{clip-path:url(#SVGID_00000120516761596654635190000009830965800246131134_);fill:#666666;}
	.st38{clip-path:url(#SVGID_00000021095498297490466500000012421812352045547416_);fill:#999999;}
	.st39{opacity:0.3;clip-path:url(#SVGID_00000076596241972307344440000000055613759180159636_);}
	.st40{clip-path:url(#SVGID_00000013871880193611466610000016418323185740753076_);fill:#E87999;}
	.st41{opacity:0.5;clip-path:url(#SVGID_00000171690993876893522550000004317505054425423748_);}
	.st42{clip-path:url(#SVGID_00000013187568396104655250000011416303706178156470_);fill:#DE7192;}
	.st43{opacity:0.3;clip-path:url(#SVGID_00000127034039214158720600000015863898039515452817_);}
	.st44{clip-path:url(#SVGID_00000057844511618252435990000017624440396846337426_);fill:#E87999;}
	.st45{clip-path:url(#SVGID_00000164507287880086261440000013161293125644949891_);fill:#FFFFFF;}
	.st46{clip-path:url(#SVGID_00000049212640042529973480000008233592951467160755_);fill:#C0EBFF;}
	.st47{clip-path:url(#SVGID_00000067949607374663887830000005748605136460643244_);fill:#9BD1EB;}
	.st48{clip-path:url(#SVGID_00000034785563007954869690000008770877540791219634_);fill:#C0EBFF;}
	.st49{fill:#FDFDE0;stroke:#DC8689;stroke-width:26.3003;stroke-linejoin:round;stroke-miterlimit:11.3386;}
</style>
<sodipodi:namedview  bordercolor="#000000" borderopacity="0.25" id="namedview1" inkscape:current-layer="layer11" inkscape:cx="1571.4053" inkscape:cy="703.28628" inkscape:deskcolor="#d1d1d1" inkscape:document-units="mm" inkscape:pagecheckerboard="0" inkscape:pageopacity="0.0" inkscape:showpageshadow="2" inkscape:window-height="741" inkscape:window-maximized="0" inkscape:window-width="1328" inkscape:window-x="63" inkscape:window-y="42" inkscape:zoom="0.13650202" pagecolor="#ffffff">
	<inkscape:page  bleed="0" height="600" id="page2" margin="0" width="800" x="0" y="0"></inkscape:page>
</sodipodi:namedview>
<path id="path2" inkscape:label="BG" class="st0" d="M2557.5,1991.5H-233.7V-376.6h2791.2V1991.5"/>
<g>
	<defs>
		<rect id="SVGID_1_" x="-730.7" y="-2149.3" width="6736.9" height="8536"/>
	</defs>
	<clipPath id="SVGID_00000161589726750678710340000015792915864278530743_">
		<use xlink:href="#SVGID_1_"  style="overflow:visible;"/>
	</clipPath>
	<path id="path274" style="clip-path:url(#SVGID_00000161589726750678710340000015792915864278530743_);fill:#FDD5E1;" d="
		M2187.8,311.5c52.5,349.3,94.3,1303.1,3,1387.9S-15.1,1761.1-66.8,1711c-51.7-50.1-36.5-466.5,30.4-520.5
		c67-54,194.7-34.7,231.3-358.5c36.5-323.8,42.6-701.7,140-747.9c97.4-46.3,1393.8-75.8,1627.8-30.8
		C2163.4,91.8,2175.6,230.6,2187.8,311.5"/>
</g>
<g>
	<defs>
		<rect id="SVGID_00000179631537729856472210000018371899648258195097_" x="-730.7" y="-2149.3" width="6736.9" height="8536"/>
	</defs>
	<clipPath id="SVGID_00000151534926639201016250000018180541272316660614_">
		<use xlink:href="#SVGID_00000179631537729856472210000018371899648258195097_"  style="overflow:visible;"/>
	</clipPath>
	<path id="path279-6" style="clip-path:url(#SVGID_00000151534926639201016250000018180541272316660614_);fill:#FD98B6;" d="
		M680.7,531.3c-71,0-34.5,205.6-140,182.5c-105.5-23.1-227.2-169.6-316.4-190.2c-0.1,0-0.2-0.1-0.3-0.1
		c20.2-219.6,44-407.6,110.9-439.4c97.4-46.3,1393.8-75.8,1627.8-30.8c200.8,38.5,213,177.3,225.2,258.3
		c17.5,116.2,33.7,299.3,44.3,495.1c-33.3,39.9-73.3,25.9-97.1-31.2c-38.5-92.5,0-208.2-93.3-205.6
		c-93.3,2.6-296.2,131.1-460.4,100.2c-164.3-30.8-121.7-123.4-209-136.2c-87.2-12.9-275.9,164.5-397.6,161.9
		C853.1,693.2,751.7,531.3,680.7,531.3"/>
</g>
<g>
	<defs>
		<rect id="SVGID_00000124868129350387475530000015367219607381703553_" x="-730.7" y="-2149.3" width="6736.9" height="8536"/>
	</defs>
	<clipPath id="SVGID_00000016768366021104926730000008117432873627087541_">
		<use xlink:href="#SVGID_00000124868129350387475530000015367219607381703553_"  style="overflow:visible;"/>
	</clipPath>
	
		<g id="g324" transform="matrix(-3.8121158,0,0,3.9202388,2236.5628,-598.83247)" style="opacity:0.5;clip-path:url(#SVGID_00000016768366021104926730000008117432873627087541_);">
		<g>
			<defs>
				<rect id="SVGID_00000043448982768178461290000000648551535248530068_" x="-356.2" y="136.2" width="1197.8" height="65.8"/>
			</defs>
			<clipPath id="SVGID_00000004507267284199078200000001616448760996236944_">
				<use xlink:href="#SVGID_00000043448982768178461290000000648551535248530068_"  style="overflow:visible;"/>
			</clipPath>
			<path id="path324-3" style="clip-path:url(#SVGID_00000004507267284199078200000001616448760996236944_);fill:#DE7192;" d="
				M399.8,164.8c-101.2-4.7-250.6-6-310.8-0.6c-8.2,7.5-5.1,17.5,47.5,11.3c56.1-6.6,143.7-10.2,172.4-7.5
				C333.2,170.2,396.4,175,399.8,164.8"/>
		</g>
	</g>
</g>
<g>
	<defs>
		<rect id="SVGID_00000152247141973410970640000012971175175833632135_" x="-730.7" y="-2149.3" width="6736.9" height="8536"/>
	</defs>
	<clipPath id="SVGID_00000097467559628798887920000004478102507920209562_">
		<use xlink:href="#SVGID_00000152247141973410970640000012971175175833632135_"  style="overflow:visible;"/>
	</clipPath>
	
		<g id="g327" transform="matrix(-3.8121158,0,0,3.9202388,2236.5628,-598.83247)" style="opacity:0.3;clip-path:url(#SVGID_00000097467559628798887920000004478102507920209562_);">
		<g>
			<defs>
				<rect id="SVGID_00000013872739458394441100000009881803333813408671_" x="-863.9" y="335.4" width="2338.9" height="422.7"/>
			</defs>
			<clipPath id="SVGID_00000106848236313769622660000005970077566595841975_">
				<use xlink:href="#SVGID_00000013872739458394441100000009881803333813408671_"  style="overflow:visible;"/>
			</clipPath>
			<path id="path327" style="clip-path:url(#SVGID_00000106848236313769622660000005970077566595841975_);fill:#E87999;" d="
				M610.3,503.5c-6.8-7-15.5-13.5-18.6-9.4c-5.3,7.2-5.3,34.7,10.6,43.9c0,0-13.8,15.7-49.5,29.5c-35.7,13.8-30.9-29.5-75.6-32.1
				c-44.7-2.6-59.6,42.6-72.4,51.1c-12.8,8.5-168.7,8.5-215,3.9c-46.3-4.6-26.1-50.5-85.1-53.1c-59.1-2.6-52.1,39.3-77.2,28.8
				c-15.9-6.7-16.5-45.9-16.8-63.6c-2,4.3-9.8,5.1-12.1,9.2c1.6,38.9,5.7,67.6,13.2,74.4c23.9,21.6,578.7,15.7,592.2,3
				C612.5,581.4,614.2,538.7,610.3,503.5"/>
		</g>
	</g>
</g>
<g>
	<defs>
		<rect id="SVGID_00000016778629618553005810000008785351065147967889_" x="-730.7" y="-2149.3" width="6736.9" height="8536"/>
	</defs>
	<clipPath id="SVGID_00000150060950014671325160000000975739577561903244_">
		<use xlink:href="#SVGID_00000016778629618553005810000008785351065147967889_"  style="overflow:visible;"/>
	</clipPath>
	
		<g id="g353" transform="matrix(-3.8121158,0,0,3.9202388,2236.5628,-598.83247)" style="opacity:0.5;clip-path:url(#SVGID_00000150060950014671325160000000975739577561903244_);">
		<g>
			<defs>
				<rect id="SVGID_00000050631650118214366180000010027653788633725364_" x="342.6" y="-84.5" width="283.6" height="766.1"/>
			</defs>
			<clipPath id="SVGID_00000043449853442762155220000005410547499791057834_">
				<use xlink:href="#SVGID_00000050631650118214366180000010027653788633725364_"  style="overflow:visible;"/>
			</clipPath>
			<path id="path353" style="clip-path:url(#SVGID_00000043449853442762155220000005410547499791057834_);fill:#DE7192;" d="
				M451.8,205.7c-8,31.5-3.7,173.7-0.5,182.8c3.2,9.1,68.6,11.2,70.2,1.4c1.6-9.8-14.4-179.3-18.6-184.9
				C498.6,199.4,453.4,199.4,451.8,205.7"/>
		</g>
	</g>
</g>
<g>
	<defs>
		<rect id="SVGID_00000075126069384987031500000008102373674050264998_" x="-730.7" y="-2149.3" width="6736.9" height="8536"/>
	</defs>
	<clipPath id="SVGID_00000021116003914089734390000001723547380946888365_">
		<use xlink:href="#SVGID_00000075126069384987031500000008102373674050264998_"  style="overflow:visible;"/>
	</clipPath>
	<path id="path355" style="clip-path:url(#SVGID_00000021116003914089734390000001723547380946888365_);fill:#C0EBFF;" d="
		M514.3,231.8c30.5,123.4,14.2,681,2,716.6c-12.2,35.5-261.7,43.8-267.8,5.4c-6.1-38.3,54.8-702.9,71-724.7
		C335.8,207.2,508.2,207.2,514.3,231.8"/>
</g>
<g>
	<defs>
		<rect id="SVGID_00000088124625294843609760000011029214911520941473_" x="-730.7" y="-2149.3" width="6736.9" height="8536"/>
	</defs>
	<clipPath id="SVGID_00000059996899233492246050000013950887584763296163_">
		<use xlink:href="#SVGID_00000088124625294843609760000011029214911520941473_"  style="overflow:visible;"/>
	</clipPath>
	<path id="path367" style="clip-path:url(#SVGID_00000059996899233492246050000013950887584763296163_);fill:#B05870;" d="
		M2209.3,1487.4c59.3,0,118.5,10.3,118.5,131.1c0,120.8-77.8,141.4-151.8,141.4s-62.4-80.4-53.7-156.8
		C2127.8,1554.2,2164.8,1487.4,2209.3,1487.4"/>
</g>
<g>
	<defs>
		<rect id="SVGID_00000163071325964855712230000009568593312482355341_" x="-730.7" y="-2149.3" width="6736.9" height="8536"/>
	</defs>
	<clipPath id="SVGID_00000080204886115652291110000010815043909011498632_">
		<use xlink:href="#SVGID_00000163071325964855712230000009568593312482355341_"  style="overflow:visible;"/>
	</clipPath>
	<path id="path369" style="clip-path:url(#SVGID_00000080204886115652291110000010815043909011498632_);fill:#FFECA6;" d="
		M2245.6,1288c-46.7-7.7-91.3,128.1-6.1,153.8C2261,1445,2259.4,1286,2245.6,1288"/>
</g>
<g>
	<defs>
		<rect id="SVGID_00000032641875450080894840000015164968609428836754_" x="-730.7" y="-2149.3" width="6736.9" height="8536"/>
	</defs>
	<clipPath id="SVGID_00000162323536176156375670000013173025534057557148_">
		<use xlink:href="#SVGID_00000032641875450080894840000015164968609428836754_"  style="overflow:visible;"/>
	</clipPath>
	
		<g id="g372" transform="matrix(-3.8121158,0,0,3.9202388,2236.5628,-598.83247)" style="opacity:0.5;clip-path:url(#SVGID_00000162323536176156375670000013173025534057557148_);">
		<g>
			<defs>
				<rect id="SVGID_00000018229321348268987510000016088546792368522624_" x="-28.3" y="462.6" width="63.6" height="92.3"/>
			</defs>
			<clipPath id="SVGID_00000175281953935852192420000008312573379496660875_">
				<use xlink:href="#SVGID_00000018229321348268987510000016088546792368522624_"  style="overflow:visible;"/>
			</clipPath>
			<path id="path372-2" style="clip-path:url(#SVGID_00000175281953935852192420000008312573379496660875_);fill:#E6B873;" d="
				M11.2,497c-0.1,7.5-3.6,14.7-12.6,17.4c-1.7,0.2-2.8-3.1-3.5-7.9c0.5,7.9,1.8,14.4,4.1,14.1C10.7,517.2,13.2,506.4,11.2,497"/>
		</g>
	</g>
</g>
<g>
	<defs>
		<rect id="SVGID_00000153676871857818051180000008166930263369095043_" x="-730.7" y="-2149.3" width="6736.9" height="8536"/>
	</defs>
	<clipPath id="SVGID_00000160178046785092128650000015467216157993441670_">
		<use xlink:href="#SVGID_00000153676871857818051180000008166930263369095043_"  style="overflow:visible;"/>
	</clipPath>
	<path id="path374-9" style="clip-path:url(#SVGID_00000160178046785092128650000015467216157993441670_);fill:#FFECA6;" d="
		M-69.9,1276.6c87.2-5.1,91.3,179.9-28.4,200.5C-134.8,1474.5-122.6,1281.7-69.9,1276.6"/>
</g>
<g>
	<defs>
		<rect id="SVGID_00000073683682384354783460000011327126168739227806_" x="-730.7" y="-2149.3" width="6736.9" height="8536"/>
	</defs>
	<clipPath id="SVGID_00000144330499070524379320000000063843957592984710_">
		<use xlink:href="#SVGID_00000073683682384354783460000011327126168739227806_"  style="overflow:visible;"/>
	</clipPath>
	<path id="path376-7" style="clip-path:url(#SVGID_00000144330499070524379320000000063843957592984710_);fill:#B05870;" d="
		M-102.3,1515.4c73.1-34.7,244.6,6.3,245.4,85.8c2,200.3-77.3,190.1-200.8,178C-155.1,1769.7-169.3,1547.2-102.3,1515.4"/>
</g>
<g>
	<defs>
		<rect id="SVGID_00000149354699866769236640000004996707911877480880_" x="-730.7" y="-2149.3" width="6736.9" height="8536"/>
	</defs>
	<clipPath id="SVGID_00000156559480959877350000000015854127779197061816_">
		<use xlink:href="#SVGID_00000149354699866769236640000004996707911877480880_"  style="overflow:visible;"/>
	</clipPath>
	
		<g id="g379" transform="matrix(-3.8121158,0,0,3.9202388,2236.5628,-598.83247)" style="opacity:0.5;clip-path:url(#SVGID_00000156559480959877350000000015854127779197061816_);">
		<g>
			<defs>
				<rect id="SVGID_00000079465385437470985150000009273795926700986807_" x="-102.1" y="493.7" width="211.9" height="172.1"/>
			</defs>
			<clipPath id="SVGID_00000051357616506080068980000018136691743588306877_">
				<use xlink:href="#SVGID_00000079465385437470985150000009273795926700986807_"  style="overflow:visible;"/>
			</clipPath>
			<path id="path379" style="clip-path:url(#SVGID_00000051357616506080068980000018136691743588306877_);fill:#6B2A3D;" d="
				M15.9,586.9c-17.9,0-36.5-4.5-39.4-29.1c-0.3,2.4-0.4,5-0.4,7.8c0,30.8,20.4,36.1,39.8,36.1c15.6,0,16.7-13.3,15.3-28.6
				C30.1,581.2,26.1,586.9,15.9,586.9"/>
		</g>
	</g>
</g>
<g>
	<defs>
		<rect id="SVGID_00000096741273415899974820000018082278688129296010_" x="-730.7" y="-2149.3" width="6736.9" height="8536"/>
	</defs>
	<clipPath id="SVGID_00000000206478324758859400000005145986035966421633_">
		<use xlink:href="#SVGID_00000096741273415899974820000018082278688129296010_"  style="overflow:visible;"/>
	</clipPath>
	
		<g id="g382" transform="matrix(-3.8121158,0,0,3.9202388,2236.5628,-598.83247)" style="opacity:0.5;clip-path:url(#SVGID_00000000206478324758859400000005145986035966421633_);">
		<g>
			<defs>
				<rect id="SVGID_00000062882499869596653050000001949679973530789307_" x="443.4" y="486.1" width="286.7" height="194.3"/>
			</defs>
			<clipPath id="SVGID_00000150098053223274585530000004055677944172038535_">
				<use xlink:href="#SVGID_00000062882499869596653050000001949679973530789307_"  style="overflow:visible;"/>
			</clipPath>
			<path id="path382-5" style="clip-path:url(#SVGID_00000150098053223274585530000004055677944172038535_);fill:#6B2A3D;" d="
				M601.8,591.9c-29.6,2.8-49.5,5.2-52.3-33.4c-0.2,0.9-0.3,1.8-0.3,2.7c-0.5,51.1,20.3,48.5,52.7,45.4
				c17.1-1.6,24.4-27.7,22.1-47.1C622.2,575.3,614.8,590.6,601.8,591.9"/>
		</g>
	</g>
</g>
<g>
	<defs>
		<rect id="SVGID_00000056408574988109410940000006838011003435984551_" x="-730.7" y="-2149.3" width="6736.9" height="8536"/>
	</defs>
	<clipPath id="SVGID_00000054267246051648367790000013052142863798001798_">
		<use xlink:href="#SVGID_00000056408574988109410940000006838011003435984551_"  style="overflow:visible;"/>
	</clipPath>
	<path id="path404-5" style="clip-path:url(#SVGID_00000054267246051648367790000013052142863798001798_);fill:#FFFFFF;" d="
		M286.9,472c13.2-128.5,26.3-234.4,32.7-242.9c4.2-5.6,18.7-9.8,38.1-12.5l171,538.2c-3.1,101.9-7.9,180.9-12.3,193.6
		c-4.7,13.9-45.8,23.6-94.4,28L286.9,472z"/>
</g>
<g>
	<defs>
		<rect id="SVGID_00000176758804357005305620000004950507723544676498_" x="-730.7" y="-2149.3" width="6736.9" height="8536"/>
	</defs>
	<clipPath id="SVGID_00000013914279611955350970000009995152660537180347_">
		<use xlink:href="#SVGID_00000176758804357005305620000004950507723544676498_"  style="overflow:visible;"/>
	</clipPath>
	<path id="path413" style="clip-path:url(#SVGID_00000013914279611955350970000009995152660537180347_);fill:#C2677F;" d="
		M2252.5,1508.6c10.4-5.3,71,24.7,53.8,65.5C2288.9,1615,2225.8,1522.3,2252.5,1508.6"/>
</g>
<g>
	<defs>
		<rect id="SVGID_00000156576446479909809090000000257354559143050144_" x="-730.7" y="-2149.3" width="6736.9" height="8536"/>
	</defs>
	<clipPath id="SVGID_00000052090590873000263520000012240271843128856747_">
		<use xlink:href="#SVGID_00000156576446479909809090000000257354559143050144_"  style="overflow:visible;"/>
	</clipPath>
	<path id="path415" style="clip-path:url(#SVGID_00000052090590873000263520000012240271843128856747_);fill:#C2677F;" d="
		M65.4,1540.7c11.3-5.3,73.3,21.8,58.9,65.5C118.5,1623.7,36.2,1554.3,65.4,1540.7"/>
</g>
<g>
	<defs>
		<rect id="SVGID_00000031926620912630247190000006446569466430486715_" x="-730.7" y="-2149.3" width="6736.9" height="8536"/>
	</defs>
	<clipPath id="SVGID_00000020398298688392543940000012805614902715262349_">
		<use xlink:href="#SVGID_00000031926620912630247190000006446569466430486715_"  style="overflow:visible;"/>
	</clipPath>
	<path id="path421" style="clip-path:url(#SVGID_00000020398298688392543940000012805614902715262349_);fill:#C2677F;" d="
		M-9.1,1526.1c8.3-10.5,51.9,0.6,47.2,13.2C33.4,1551.9-19,1538.7-9.1,1526.1"/>
</g>
<g>
	<defs>
		<rect id="SVGID_00000084495643910569426980000005550756250062573483_" x="-730.7" y="-2149.3" width="6736.9" height="8536"/>
	</defs>
	<clipPath id="SVGID_00000021819053573743014420000003588677751815351964_">
		<use xlink:href="#SVGID_00000084495643910569426980000005550756250062573483_"  style="overflow:visible;"/>
	</clipPath>
	<path id="path423" style="clip-path:url(#SVGID_00000021819053573743014420000003588677751815351964_);fill:#FFF2C4;" d="
		M-23.8,1329.8c-0.4,24.1-60-24.5-49.6-35.3C-62.9,1283.7-23.3,1305.3-23.8,1329.8"/>
</g>
<g>
	<defs>
		<rect id="SVGID_00000120532738807447359510000002389933720752501401_" x="-119.2" y="1343.2" width="109.2" height="133.9"/>
	</defs>
	<clipPath id="SVGID_00000101826147629736814970000007836604048871939260_">
		<use xlink:href="#SVGID_00000120532738807447359510000002389933720752501401_"  style="overflow:visible;"/>
	</clipPath>
	<path id="path426-4" style="clip-path:url(#SVGID_00000101826147629736814970000007836604048871939260_);fill:#E6B873;" d="
		M-99.8,1427.6c11.7,27.3,71,4.3,89.7-37.1c-9.6,40.4-38,78-88.2,86.6c-22.6-1.6-26.5-76.1-13.7-133.9
		C-112.4,1375.6-107.2,1410.5-99.8,1427.6"/>
</g>
<g>
	<defs>
		<rect id="SVGID_00000148633706039496188220000014653130368234388907_" x="-730.7" y="-2149.3" width="6736.9" height="8536"/>
	</defs>
	<clipPath id="SVGID_00000042729789448899763350000003594514048608114348_">
		<use xlink:href="#SVGID_00000148633706039496188220000014653130368234388907_"  style="overflow:visible;"/>
	</clipPath>
	<path id="path432-9" style="clip-path:url(#SVGID_00000042729789448899763350000003594514048608114348_);fill:#FDD5E1;" d="
		M429.8,94.4c11.2,28.6-100.2,40.8-99.4,24.1C331.8,89.6,422.2,75.1,429.8,94.4"/>
</g>
<g id="g101">
	<g>
		<defs>
			<rect id="SVGID_00000155840608359710523070000011308759672261509015_" x="-730.7" y="-2149.3" width="6736.9" height="8536"/>
		</defs>
		<clipPath id="SVGID_00000071562104674822641990000015287367328522464140_">
			<use xlink:href="#SVGID_00000155840608359710523070000011308759672261509015_"  style="overflow:visible;"/>
		</clipPath>
		<path id="path359" style="clip-path:url(#SVGID_00000071562104674822641990000015287367328522464140_);fill:#808080;" d="
			M555.9,1567c146.8,107.8,69,344.4-20.3,429.2c-89.3,84.8-377.3,79.7-342.8-200.5S454.5,1492.5,555.9,1567"/>
	</g>
	<g>
		<defs>
			<rect id="SVGID_00000182514952632013223450000004366530957621928591_" x="-730.7" y="-2149.3" width="6736.9" height="8536"/>
		</defs>
		<clipPath id="SVGID_00000082338786913350321620000012695686200215703983_">
			<use xlink:href="#SVGID_00000182514952632013223450000004366530957621928591_"  style="overflow:visible;"/>
		</clipPath>
		<path id="path363" style="clip-path:url(#SVGID_00000082338786913350321620000012695686200215703983_);fill:#666666;" d="
			M535.6,1944.8c48.5-46.1,93.5-136.9,101-227.6c9.5,105.9-43.3,224.2-101,279c-87.2,82.9-363.9,79.7-344.5-181.6
			C209.5,2024.7,454.6,2021.9,535.6,1944.8"/>
	</g>
	<g>
		<defs>
			<rect id="SVGID_00000120532898417161734510000001074079828950446214_" x="-730.7" y="-2149.3" width="6736.9" height="8536"/>
		</defs>
		<clipPath id="SVGID_00000067952392692030755820000010371074831335474095_">
			<use xlink:href="#SVGID_00000120532898417161734510000001074079828950446214_"  style="overflow:visible;"/>
		</clipPath>
		<path id="path365" style="clip-path:url(#SVGID_00000067952392692030755820000010371074831335474095_);fill:#A6A6A6;" d="
			M373.3,1663.4c65-48.7,170.4,2.6,137.9,133.6s-166.3,120.8-194.7,48.8C288.2,1773.9,328.7,1696.8,373.3,1663.4"/>
	</g>
	<g>
		<defs>
			<rect id="SVGID_00000080192128783076345850000012154679907633920426_" x="-730.7" y="-2149.3" width="6736.9" height="8536"/>
		</defs>
		<clipPath id="SVGID_00000131329899275083979420000003948351592710448542_">
			<use xlink:href="#SVGID_00000080192128783076345850000012154679907633920426_"  style="overflow:visible;"/>
		</clipPath>
		<path id="path436-4" style="clip-path:url(#SVGID_00000131329899275083979420000003948351592710448542_);fill:#666666;" d="
			M368.2,1703.3c-26.1,19.5-50.6,54-61,93.6c-0.4-55.5,31.5-107.6,66.1-133.4c64.3-48.1,168,1.5,138.8,129.4
			C513.6,1694.9,425.3,1660.5,368.2,1703.3"/>
	</g>
	<g>
		<defs>
			<rect id="SVGID_00000099654279892932693560000012779984826693382550_" x="-730.7" y="-2149.3" width="6736.9" height="8536"/>
		</defs>
		<clipPath id="SVGID_00000154388715817919633630000006268565104169485237_">
			<use xlink:href="#SVGID_00000099654279892932693560000012779984826693382550_"  style="overflow:visible;"/>
		</clipPath>
		<path id="path438-5" style="clip-path:url(#SVGID_00000154388715817919633630000006268565104169485237_);fill:#999999;" d="
			M587.7,1659c-20.1,31.8-75.4-58.2-57.1-69.1C548.9,1578.9,600,1631.5,587.7,1659"/>
	</g>
</g>
<g>
	<defs>
		<rect id="SVGID_00000087379182725217102100000000221240874690598036_" x="-723.8" y="-2149.1" width="6736.9" height="8536"/>
	</defs>
	<clipPath id="SVGID_00000002355162367192380990000015655026204929699502_">
		<use xlink:href="#SVGID_00000087379182725217102100000000221240874690598036_"  style="overflow:visible;"/>
	</clipPath>
	<path id="path417" style="clip-path:url(#SVGID_00000002355162367192380990000015655026204929699502_);fill:#FDD5E1;" d="
		M2093.2,149.8c1.3,42.4-169.4-55.9-151.1-71.3C1960.4,63,2091.7,97.8,2093.2,149.8"/>
</g>
<g>
	<defs>
		<rect id="SVGID_00000070813590797442614720000005797759598624879509_" x="-723.8" y="-2149.1" width="6736.9" height="8536"/>
	</defs>
	<clipPath id="SVGID_00000139977260974793172230000002311703275106302890_">
		<use xlink:href="#SVGID_00000070813590797442614720000005797759598624879509_"  style="overflow:visible;"/>
	</clipPath>
	<path id="path419" style="clip-path:url(#SVGID_00000139977260974793172230000002311703275106302890_);fill:#FDD5E1;" d="
		M2126.7,180.6c24.4,7.7,44.1,81,21.3,88.7C2125.2,277,2108.5,174.8,2126.7,180.6"/>
</g>
<g id="g100">
	<g>
		<defs>
			<rect id="SVGID_00000005239352203318691010000001458493404242687111_" x="-730.7" y="-2149.3" width="6736.9" height="8536"/>
		</defs>
		<clipPath id="SVGID_00000088132929321651455640000007412755504110225566_">
			<use xlink:href="#SVGID_00000005239352203318691010000001458493404242687111_"  style="overflow:visible;"/>
		</clipPath>
		<path id="path357" style="clip-path:url(#SVGID_00000088132929321651455640000007412755504110225566_);fill:#808080;" d="
			M1982.9,1567c146.7,107.8,69,344.4-20.3,429.2c-89.3,84.8-377.3,79.7-342.8-200.5C1654.3,1515.6,1881.5,1492.5,1982.9,1567"/>
	</g>
	<g>
		<defs>
			<rect id="SVGID_00000067915561576188547770000000073136499434007483_" x="-730.7" y="-2149.3" width="6736.9" height="8536"/>
		</defs>
		<clipPath id="SVGID_00000031903965715993466620000015960459702782137516_">
			<use xlink:href="#SVGID_00000067915561576188547770000000073136499434007483_"  style="overflow:visible;"/>
		</clipPath>
		<path id="path361" style="clip-path:url(#SVGID_00000031903965715993466620000015960459702782137516_);fill:#666666;" d="
			M1962.6,1944.8c48.5-46.1,93.5-136.9,101-227.6c9.5,105.9-43.3,224.2-101,279c-87.2,82.9-363.9,79.7-344.5-181.6
			C1636.5,2024.7,1881.6,2021.9,1962.6,1944.8"/>
	</g>
	<g>
		<defs>
			<rect id="SVGID_00000092422307069393920890000012858546869550075295_" x="-723.8" y="-2149.1" width="6736.9" height="8536"/>
		</defs>
		<clipPath id="SVGID_00000162352657665370894320000011267795691539809960_">
			<use xlink:href="#SVGID_00000092422307069393920890000012858546869550075295_"  style="overflow:visible;"/>
		</clipPath>
		<path id="path406-5" style="clip-path:url(#SVGID_00000162352657665370894320000011267795691539809960_);fill:#A6A6A6;" d="
			M1807.2,1663.6c65-48.7,170.4,2.6,137.9,133.6c-32.4,131.1-166.3,120.8-194.7,48.8C1722,1774.1,1762.6,1697,1807.2,1663.6"/>
	</g>
	<g>
		<defs>
			<rect id="SVGID_00000072269710932383988770000013357579322992280223_" x="-723.8" y="-2149.1" width="6736.9" height="8536"/>
		</defs>
		<clipPath id="SVGID_00000109725811790730394810000002077942753051966641_">
			<use xlink:href="#SVGID_00000072269710932383988770000013357579322992280223_"  style="overflow:visible;"/>
		</clipPath>
		<path id="path408-5" style="clip-path:url(#SVGID_00000109725811790730394810000002077942753051966641_);fill:#666666;" d="
			M1802.1,1703.4c-26.1,19.5-50.6,54-61,93.6c-0.4-55.5,31.5-107.6,66.1-133.4c64.3-48.1,168,1.5,138.9,129.4
			C1947.5,1695.1,1859.2,1660.7,1802.1,1703.4"/>
	</g>
	<g>
		<defs>
			<rect id="SVGID_00000077318246784006247680000003616825577889644419_" x="-723.8" y="-2149.1" width="6736.9" height="8536"/>
		</defs>
		<clipPath id="SVGID_00000056406250318236179930000017441925643362213540_">
			<use xlink:href="#SVGID_00000077318246784006247680000003616825577889644419_"  style="overflow:visible;"/>
		</clipPath>
		<path id="path434-2" style="clip-path:url(#SVGID_00000056406250318236179930000017441925643362213540_);fill:#999999;" d="
			M2026.5,1651.9c-15.3,35.8-82.4-40.3-65.9-55.2C1977.1,1581.9,2034.8,1622.1,2026.5,1651.9"/>
	</g>
</g>
<g id="g63" transform="matrix(1.4655876,0,0,1.0963066,-351.70952,-28.749403)" inkscape:label="window">
	<g>
		<defs>
			<rect id="SVGID_00000101076284335769483050000007425740796263519148_" x="-2719.8" y="-2602.8" width="9873.6" height="9358.1"/>
		</defs>
		<clipPath id="SVGID_00000181085183888787342460000005056933421073398182_">
			<use xlink:href="#SVGID_00000101076284335769483050000007425740796263519148_"  style="overflow:visible;"/>
		</clipPath>
		
			<g id="g277" transform="matrix(-3.8121158,0,0,3.9202388,2236.5628,-598.83247)" style="opacity:0.3;clip-path:url(#SVGID_00000181085183888787342460000005056933421073398182_);">
			<g>
				<defs>
					<rect id="SVGID_00000092433210466374920340000007767801014157240250_" x="-463.4" y="-27" width="1493.9" height="661.4"/>
				</defs>
				<clipPath id="SVGID_00000089564533329247019640000006083331604961514153_">
					<use xlink:href="#SVGID_00000092433210466374920340000007767801014157240250_"  style="overflow:visible;"/>
				</clipPath>
				<path id="path277-4" style="clip-path:url(#SVGID_00000089564533329247019640000006083331604961514153_);fill:#E87999;" d="
					M149.9,226.8c-0.4,1.5,14.8,149,14.8,149l8.4,3.9l237.1,1l7.2-151L149.9,226.8z"/>
			</g>
		</g>
	</g>
	<g>
		<defs>
			<rect id="SVGID_00000164484453987736121100000014899527621419544996_" x="-2719.8" y="-2602.8" width="9873.6" height="9358.1"/>
		</defs>
		<clipPath id="SVGID_00000129889958783346337700000010356822579571797678_">
			<use xlink:href="#SVGID_00000164484453987736121100000014899527621419544996_"  style="overflow:visible;"/>
		</clipPath>
		
			<g id="g282" transform="matrix(-3.8121158,0,0,3.9202388,2236.5628,-598.83247)" style="opacity:0.5;clip-path:url(#SVGID_00000129889958783346337700000010356822579571797678_);">
			<g>
				<defs>
					<rect id="SVGID_00000114756585065053620290000017530339000672535962_" x="-463.4" y="82.9" width="1493.9" height="375.1"/>
				</defs>
				<clipPath id="SVGID_00000041991990408251273030000017642557322001952403_">
					<use xlink:href="#SVGID_00000114756585065053620290000017530339000672535962_"  style="overflow:visible;"/>
				</clipPath>
				<path id="path282" style="clip-path:url(#SVGID_00000041991990408251273030000017642557322001952403_);fill:#DE7192;" d="
					M155.7,287.8c1.7-0.4,3.6-0.6,5.8-0.5c24.5,0.7,77.7,33.4,120.8,25.6c43.1-7.9,31.9-31.5,54.8-34.7c16.9-2.4,48.2,21.5,76.3,34
					l3.9-82.4l-267.4-3C149.7,227.4,152.5,255.9,155.7,287.8"/>
			</g>
		</g>
	</g>
	<g>
		<defs>
			<rect id="SVGID_00000023980530111862947920000003449043122752510653_" x="-2710.9" y="-2195.5" width="9873.6" height="9358.1"/>
		</defs>
		<clipPath id="SVGID_00000060739770927747478570000015136530546252506810_">
			<use xlink:href="#SVGID_00000023980530111862947920000003449043122752510653_"  style="overflow:visible;"/>
		</clipPath>
		
			<g id="g285" transform="matrix(-3.8121158,0,0,3.9202388,2239.8935,-474.13477)" style="opacity:0.3;clip-path:url(#SVGID_00000060739770927747478570000015136530546252506810_);">
			<g>
				<defs>
					<rect id="SVGID_00000077292818493704467100000016894026784973640584_" x="-379.3" y="410" width="1331.5" height="126.8"/>
				</defs>
				<clipPath id="SVGID_00000169556430145112310960000017127750022215130806_">
					<use xlink:href="#SVGID_00000077292818493704467100000016894026784973640584_"  style="overflow:visible;"/>
				</clipPath>
				<path id="path285-4" style="clip-path:url(#SVGID_00000169556430145112310960000017127750022215130806_);fill:#E87999;" d="
					M403.9,465.1c2.4,6.4,1.6,23.1,1.6,23.1s-233.5-2-236.7-4.4c-3.2-2.5-0.4-25.1-0.4-25.1L403.9,465.1z"/>
			</g>
		</g>
	</g>
	<g>
		<defs>
			<rect id="SVGID_00000029751030636159391850000000096444740969938334_" x="-2719.8" y="-4424" width="9873.6" height="15380.1"/>
		</defs>
		<clipPath id="SVGID_00000117666970100170809440000001762076345601053868_">
			<use xlink:href="#SVGID_00000029751030636159391850000000096444740969938334_"  style="overflow:visible;"/>
		</clipPath>
		<path id="path329" style="clip-path:url(#SVGID_00000117666970100170809440000001762076345601053868_);fill:#FFFFFF;" d="
			M1574.3,238.9c10.1,122.5,18.3,980,10.1,1060.2c-8.1,80.2-866.1,50.6-892.5,46.4c-14.2-190,2-1005.3,16.2-1056
			C734.5,230.4,1568.2,213.5,1574.3,238.9"/>
	</g>
	<g>
		<defs>
			<rect id="SVGID_00000020391867285921536750000015945078612542294400_" x="-2719.8" y="-2602.8" width="9873.6" height="9358.1"/>
		</defs>
		<clipPath id="SVGID_00000101793409203566027510000012626444532465093520_">
			<use xlink:href="#SVGID_00000020391867285921536750000015945078612542294400_"  style="overflow:visible;"/>
		</clipPath>
		<path id="path444-2" style="clip-path:url(#SVGID_00000101793409203566027510000012626444532465093520_);fill:#C0EBFF;" d="
			M1667.6,277.1c2,22.8-42.1,148.1-60.3,155.8c-30.4,1.9-92.8-152.3-92.8-152.3s-45.6,142.6-85.2,152.3
			c-44.1-9.6-85.2-153.5-85.2-153.5c-19.8,111.8-76.1,150.4-76.1,150.4c-31.9-1.9-80.1-147.8-80.1-147.8
			c-21.3,92.5-75.6,142.6-83.2,142.6c-15.2-5.8-72-145.2-72-145.2c-9.1,59.8-65.4,145.2-73,145.2c-27.4-1.9-67-141.4-67-141.4
			c-15.2,69.4-54.7,137.5-72,136.2c-17.2-1.3-74.5-137.5-70-137.5c4.6,0-57.3,138.1-80.1,140.1c-42.6-61.7-37.5-144.9-37.5-144.9
			C664.1,272.9,1647.3,265.9,1667.6,277.1"/>
	</g>
	<g>
		<defs>
			<rect id="SVGID_00000111913662088307807320000011671957985630778551_" x="-2719.8" y="-2602.8" width="9873.6" height="9358.1"/>
		</defs>
		<clipPath id="SVGID_00000039832095527352606390000013947227432503734912_">
			<use xlink:href="#SVGID_00000111913662088307807320000011671957985630778551_"  style="overflow:visible;"/>
		</clipPath>
		<path id="path446-5" style="clip-path:url(#SVGID_00000039832095527352606390000013947227432503734912_);fill:#9BD1EB;" d="
			M1667.6,277.1c2,22.8-42.1,148.1-60.3,155.8c-30.4,1.9-92.8-152.3-92.8-152.3s-45.6,142.6-85.2,152.3
			c-44.1-9.6-85.2-153.5-85.2-153.5c-19.8,111.8-76.1,150.4-76.1,150.4c-31.9-1.9-80.1-147.8-80.1-147.8
			c-21.3,92.5-75.6,142.6-83.2,142.6c-15.2-5.8-72.5-141-72.5-141c-9.1,59.8-64.9,141-72.5,141c-27.4-1.9-67-141.4-67-141.4
			c-15.2,69.4-54.7,137.5-72,136.2c-17.2-1.3-74.5-137.5-70-137.5c4.6,0-57.3,138.1-80.1,140.1c-42.6-61.7-37.5-144.9-37.5-144.9
			C664.1,272.9,1647.3,265.9,1667.6,277.1"/>
	</g>
	<g>
		<defs>
			<rect id="SVGID_00000026130575297424638060000015730220879086999222_" x="-2719.8" y="-2602.8" width="9873.6" height="9358.1"/>
		</defs>
		<clipPath id="SVGID_00000008133549606822669990000001180768079829219458_">
			<use xlink:href="#SVGID_00000026130575297424638060000015730220879086999222_"  style="overflow:visible;"/>
		</clipPath>
		<path id="path448-1" style="clip-path:url(#SVGID_00000008133549606822669990000001180768079829219458_);fill:#C0EBFF;" d="
			M1667.6,277.1c-13.2-11.9-89.3-60.1-89.3-60.1l-893.6,7.5c0,0-53.7,37.5-51.6,52.6C685.4,292.2,1667.6,277.1,1667.6,277.1"/>
	</g>
</g>
<g id="g99" transform="matrix(1.0693266,0,0,0.86789231,-29.219032,59.221541)" inkscape:label="order">
	<path id="path9-3" inkscape:label="order" class="st49" d="M362.4,450.4c-144.6-58-243.5,392.3-203.8,698.1
		c11.1,80.6,33.3,147.5,61.8,198.7c1.8,62.1-3.6,161.5-48.2,223.8c0,0,100.5,49.1,133-127.6c87,55.1,186.9,8.2,231.9-168.6
		C537.1,1274.8,677.4,576.8,362.4,450.4"/>
	
		<text transform="matrix(0.6635 0 0 1.1522 -1117.0515 1100.0182)" style="fill:#DC8689; font-family:'Arial-Black'; font-size:116.8645px;">order</text>
</g>
</svg>
