<svg xmlns="http://www.w3.org/2000/svg" viewBox="0 0 300 200">
  <!-- 冰淇淋桶 -->
  <path d="M50 50 L50 150 C50 170, 250 170, 250 150 L250 50 C250 30, 50 30, 50 50 Z" fill="#F5F5DC" stroke="#D2B48C" stroke-width="3"/>
  
  <!-- 桶身裝飾 -->
  <path d="M50 50 C50 30, 250 30, 250 50" fill="none" stroke="#D2B48C" stroke-width="3"/>
  
  <!-- 巧克力冰淇淋 -->
  <path d="M60 45 L60 140 C60 155, 240 155, 240 140 L240 45 C240 30, 60 30, 60 45 Z" fill="#5C3317" stroke="#8B4513" stroke-width="1"/>
  
  <!-- 冰淇淋表面紋理 -->
  <path d="M80 40 C100 35, 120 45, 140 35 C160 45, 180 35, 200 40 C220 35, 240 45, 240 45" fill="none" stroke="#4A2811" stroke-width="2"/>
  
  <!-- 巧克力碎片裝飾 -->
  <rect x="90" y="60" width="15" height="10" fill="#3C1F0D" transform="rotate(30, 90, 60)"/>
  <rect x="150" y="70" width="15" height="10" fill="#3C1F0D" transform="rotate(-20, 150, 70)"/>
  <rect x="200" y="55" width="15" height="10" fill="#3C1F0D" transform="rotate(45, 200, 55)"/>
  <rect x="110" y="100" width="15" height="10" fill="#3C1F0D" transform="rotate(-40, 110, 100)"/>
  <rect x="180" y="110" width="15" height="10" fill="#3C1F0D" transform="rotate(15, 180, 110)"/>
</svg>