<?xml version="1.0" encoding="UTF-8" standalone="no"?>
<!-- Created with Inkscape (http://www.inkscape.org/) -->

<svg
   width="800mm"
   height="600mm"
   viewBox="0 0 800 600"
   version="1.1"
   id="svg1"
   xml:space="preserve"
   inkscape:version="1.4 (e7c3feb1, 2024-10-09)"
   sodipodi:docname="play ui.eps"
   inkscape:export-filename="done.svg"
   inkscape:export-xdpi="25.4"
   inkscape:export-ydpi="25.4"
   inkscape:dataloss="true"
   xmlns:inkscape="http://www.inkscape.org/namespaces/inkscape"
   xmlns:sodipodi="http://sodipodi.sourceforge.net/DTD/sodipodi-0.dtd"
   xmlns="http://www.w3.org/2000/svg"
   xmlns:svg="http://www.w3.org/2000/svg"><sodipodi:namedview
     id="namedview1"
     pagecolor="#ffffff"
     bordercolor="#000000"
     borderopacity="0.25"
     inkscape:showpageshadow="2"
     inkscape:pageopacity="0.0"
     inkscape:pagecheckerboard="0"
     inkscape:deskcolor="#d1d1d1"
     inkscape:document-units="mm"
     inkscape:zoom="0.13650202"
     inkscape:cx="1571.4053"
     inkscape:cy="703.28628"
     inkscape:window-width="1328"
     inkscape:window-height="741"
     inkscape:window-x="63"
     inkscape:window-y="42"
     inkscape:window-maximized="0"
     inkscape:current-layer="layer11"><inkscape:page
       x="0"
       y="0"
       width="800"
       height="600"
       id="page2"
       margin="0"
       bleed="0" /></sodipodi:namedview><defs
     id="defs1" /><g
     inkscape:groupmode="layer"
     id="layer7"
     inkscape:label="flavor"
     transform="matrix(0.95429627,0,0,0.99547513,16.834683,3.5210986)"
     style="display:inline"><g
       id="cherry"
       transform="matrix(1.7063274,0,0,1.2357127,-243.22131,-168.22648)"
       style="display:inline"><path
         id="path69-3"
         d="m 514.46799,436.15068 c 0,-6.84534 5.548,-12.396 12.39333,-12.396 6.84533,0 12.392,5.55066 12.392,12.396 0,6.84266 -5.54667,12.392 -12.392,12.392 -6.84533,0 -12.39333,-5.54934 -12.39333,-12.392"
         style="fill:#ee2941;fill-opacity:1;fill-rule:nonzero;stroke:none;stroke-width:0.133333" /><path
         id="path70-2"
         d="m 539.25332,436.15068 c 0,-0.0107 0,-0.0213 0,-0.032 0,0.0107 0,0.0213 0,0.032 m -24.78533,0 c 0,-0.0107 0,-0.0213 0,-0.032 0,0.0107 0,0.0213 0,0.032"
         style="fill:#b3998f;fill-opacity:1;fill-rule:nonzero;stroke:none;stroke-width:0.133333" /><path
         id="path71-1"
         d="m 526.86132,448.54268 c -6.84533,0 -12.39333,-5.54934 -12.39333,-12.392 v 0 c 0,-0.0107 0,-0.0213 0,-0.032 10e-4,-0.66267 0.0693,-1.30667 0.17066,-1.94 0.94667,5.904 6.04934,10.42 12.22267,10.42 6.172,0 11.27467,-4.516 12.22133,-10.42 0.10134,0.63333 0.168,1.27733 0.17067,1.94 0,0.0107 0,0.0213 0,0.032 v 0 c 0,6.84266 -5.54667,12.392 -12.392,12.392"
         style="fill:#cf272b;fill-opacity:1;fill-rule:nonzero;stroke:none;stroke-width:0.133333" /><path
         id="path72-9"
         d="m 534.45465,429.46001 c -0.41066,0.74933 -2.072,0.632 -3.70933,-0.26667 -1.63733,-0.89733 -2.63067,-2.23466 -2.21867,-2.98533 0.41067,-0.748 2.072,-0.62933 3.708,0.268 1.63734,0.89733 2.63067,2.232 2.22,2.984"
         style="fill:#e5f4c6;fill-opacity:1;fill-rule:nonzero;stroke:none;stroke-width:0.133333" /><path
         id="path73-1"
         d="m 526.20932,425.71734 c 0,0 4.43733,-24.91733 14.576,-28.29733 10.14,-3.38133 -6.97067,6.74933 -13.83867,30.41467 0,0 -1.38933,-0.16 -0.73733,-2.11734"
         style="fill:#592e2a;fill-opacity:1;fill-rule:nonzero;stroke:none;stroke-width:0.133333" /></g></g></svg>
