<?xml version="1.0" encoding="utf-8"?>
<!-- Generator: Adobe Illustrator 26.0.2, SVG Export Plug-In . SVG Version: 6.00 Build 0)  -->
<svg version="1.1"
	 id="svg1" inkscape:export-xdpi="25.4" sodipodi:docname="play ui.eps" xmlns:inkscape="http://www.inkscape.org/namespaces/inkscape" xmlns:sodipodi="http://sodipodi.sourceforge.net/DTD/sodipodi-0.dtd" xmlns:svg="http://www.w3.org/2000/svg"
	 xmlns="http://www.w3.org/2000/svg" xmlns:xlink="http://www.w3.org/1999/xlink" x="0px" y="0px" viewBox="0 0 300 300"
	 style="enable-background:new 0 0 300 300;" xml:space="preserve">
<style type="text/css">
	.st0{fill:#9CDBD3;}
	.st1{fill:#B2E4DC;}
	.st2{fill:#C4E9E3;}
	.st3{fill:#82CEBE;}
	.st4{fill:#E7F0EE;}
</style>
<sodipodi:namedview  bordercolor="#000000" borderopacity="0.25" id="namedview1" inkscape:current-layer="layer11" inkscape:cx="1571.4053" inkscape:cy="703.28628" inkscape:deskcolor="#d1d1d1" inkscape:document-units="mm" inkscape:pagecheckerboard="0" inkscape:pageopacity="0.0" inkscape:showpageshadow="2" inkscape:window-height="741" inkscape:window-maximized="0" inkscape:window-width="1328" inkscape:window-x="63" inkscape:window-y="42" inkscape:zoom="0.13650202" pagecolor="#ffffff">
	<inkscape:page  bleed="0" height="600" id="page2" margin="0" width="800" x="0" y="0"></inkscape:page>
</sodipodi:namedview>
<g id="layer7" transform="matrix(0.95429627,0,0,0.99547513,16.834683,3.5210986)" inkscape:groupmode="layer" inkscape:label="flavor">
	<g id="melon" transform="matrix(0.19935527,0,0,0.19050951,165.91003,222.28307)">
		<path id="path1806" class="st0" d="M234.61-75.69c87.72-21.92,212.56-186.78,109.49-444.43C241.08-777.78-23-842.18-138.96-835.76
			c-340.84,18.94-489.11,264.57-502.38,457.32c-12.89,186.78,73.55,351.72,115.92,367.14c70.87,25.78,83.75-83.75,148.16-83.75
			c84.7,0,122.38,128.84,251.19,141.73S73.6-114.36,112.23-114.36C150.9-114.36,183.1-62.84,234.61-75.69"/>
		<path id="path1807" class="st1" d="M316.02-512.68C219.08-755.02-29.35-815.65-138.39-809.56
			c-320.66,17.8-460.12,248.84-472.63,430.18c-3.7,53.74,8.5,123.78,56.77,147.7c50.34,24.94,109.3-10.89,149.48-50.15
			s81.45-86.97,137.54-90.41c30.88-1.89,61.46,10.28,91.5,22.45c40.03,16.21,79.11,32.47,116.64,15.38
			c36.78-16.71,53.33-58.54,70.3-95.21c16.97-36.62,44.64-76.04,85-77.1c35.3-0.94,63.16,27.89,88.82,52.12
			c25.7,24.23,62.02,47.09,94.15,32.43C309.9-436.18,328.57-481.31,316.02-512.68"/>
		<path id="path1808" class="st2" d="M-164.7-777.78c-265.17,30.24-405.81,238.34-386.46,354.25c4.69,28.23,31.52,47.28,60.09,44.86
			c28.57-2.46,52.04-22.83,72.3-43.05c65.95-65.88,133.34-147.21,226.58-151.71c40.4-1.93,77.93-6.05,117.85,0.3
			s100.23-1.93,128.62-30.77c34.09-34.62,20.37-74-12.89-109.49C8.14-748.83-116.39-783.26-164.7-777.78"/>
		<path id="path1809" class="st3" d="M382.88-332.13c-10.24,36.02-24.26,70.45-45.35,101.4c-24.83,36.43-62.85,68.22-106.96,68.75
			c-47.7,0.6-96.57-53.1-144.08-48.98c-69.35,6.01-96,104.58-146.42,152.54C-112.95-7.93-196.82,2.69-263.8-24.9
			c35.11,32.5,75.93,65.39,137.73,71.58C2.74,59.57,73.6-114.36,112.23-114.36c38.66,0,70.87,51.51,122.38,38.66
			C298.56-91.68,382.13-183.67,382.88-332.13"/>
		<path id="path1810" class="st4" d="M-372.68-610.04c-6.24,0-11.04-1.32-13.83-4.27c-27.44-28.95,76.27-105.9,121.4-105.9
			c7.45,0,13.27,2.12,16.67,6.84C-220.33-673.99-329.79-610.04-372.68-610.04"/>
		<path id="path1811" class="st4" d="M-508.1-467.37c-1.66,0-3.14-0.38-4.42-1.25c-18.37-12.25,8.24-84.28,45.73-84.28
			c1.89,0,3.82,0.15,5.78,0.57C-430.93-546.32-485.05-467.33-508.1-467.37"/>
	</g>
</g>
</svg>
