<?xml version="1.0" encoding="utf-8"?>
<!-- Generator: Adobe Illustrator 26.0.2, SVG Export Plug-In . SVG Version: 6.00 Build 0)  -->
<svg version="1.1"
	 id="svg1" inkscape:export-xdpi="25.4" sodipodi:docname="play ui.eps" xmlns:inkscape="http://www.inkscape.org/namespaces/inkscape" xmlns:sodipodi="http://sodipodi.sourceforge.net/DTD/sodipodi-0.dtd" xmlns:svg="http://www.w3.org/2000/svg"
	 xmlns="http://www.w3.org/2000/svg" xmlns:xlink="http://www.w3.org/1999/xlink" x="0px" y="0px" viewBox="0 0 300 300"
	 style="enable-background:new 0 0 300 300;" xml:space="preserve">
<style type="text/css">
	.st0{fill:#D994CF;}
	.st1{fill:#E79FD4;}
	.st2{fill:#E8B0DC;}
	.st3{fill:#F0DFED;}
	.st4{fill:#C384C8;}
</style>
<sodipodi:namedview  bordercolor="#000000" borderopacity="0.25" id="namedview1" inkscape:current-layer="layer11" inkscape:cx="1571.4053" inkscape:cy="703.28628" inkscape:deskcolor="#d1d1d1" inkscape:document-units="mm" inkscape:pagecheckerboard="0" inkscape:pageopacity="0.0" inkscape:showpageshadow="2" inkscape:window-height="741" inkscape:window-maximized="0" inkscape:window-width="1328" inkscape:window-x="63" inkscape:window-y="42" inkscape:zoom="0.13650202" pagecolor="#ffffff">
	<inkscape:page  bleed="0" height="600" id="page2" margin="0" width="800" x="0" y="0"></inkscape:page>
</sodipodi:namedview>
<g id="layer7" transform="matrix(0.95429627,0,0,0.99547513,16.834683,3.5210986)" inkscape:groupmode="layer" inkscape:label="flavor">
	<g id="taro" transform="matrix(0.19935527,0,0,0.19050951,412.79742,145.56523)">
		<path id="path1818" class="st0" d="M-1005.64,254.87c87.71-21.92,212.55-186.78,109.5-444.43
			c-103.06-257.65-367.14-322.05-483.07-315.63c-340.85,18.94-489.1,264.57-502.39,457.32c-12.88,186.78,25.76,270.54,83.73,347.83
			c24.8,33.03,40.63,80.05,42.76,121.32c2.12,41.27,15.45,92.18,56.04,100.01c41.2,7.94,73.44-37.27,81.37-78.5
			c6.33-32.92,4.86-67.31-4.25-99.59c-5.18-18.33-12.85-36.32-13.57-55.41c-0.72-19.05,7.75-40.25,25.55-47.09
			c22.63-8.69,47.09,9.71,59.26,30.69c12.17,20.98,18.07,45.77,34.08,63.99c24.5,27.86,71.55,31.86,100.4,8.5
			c49.03-39.61,106.26-129.94,169.3-130.73c38.28-0.45,73.98,17.42,110.12,30.05S-1042.78,264.13-1005.64,254.87"/>
		<path id="path1819" class="st1" d="M-924.24-182.12c-96.95-242.34-345.37-302.97-454.43-296.88
			c-320.64,17.8-460.11,248.84-472.61,430.18c-3.7,53.74,8.51,123.78,56.77,147.7c50.34,24.94,109.3-10.89,149.47-50.15
			c40.17-39.27,81.45-86.97,137.53-90.41c30.89-1.89,61.47,10.28,91.51,22.45c40.03,16.21,79.09,32.47,116.63,15.38
			c36.77-16.71,53.33-58.54,70.31-95.21c16.98-36.62,44.64-76.04,85.01-77.1c35.3-0.94,63.13,27.89,88.81,52.12
			c25.68,24.23,62.03,47.09,94.14,32.43C-930.38-105.62-911.7-150.75-924.24-182.12"/>
		<path id="path1820" class="st2" d="M-1404.98-447.21c-265.14,30.24-405.78,238.34-386.46,354.25
			c4.7,28.23,31.55,47.28,60.12,44.86c28.58-2.46,52.03-22.83,72.29-43.05c65.95-65.88,133.35-147.21,226.59-151.71
			c40.38-1.93,77.92-6.05,117.85,0.3c39.92,6.35,100.24-1.93,128.6-30.77c34.11-34.62,20.37-74-12.88-109.49
			C-1232.12-418.26-1356.67-452.7-1404.98-447.21"/>
		<path id="path1821" class="st3" d="M-1612.95-279.48c-6.21,0-11.04-1.32-13.84-4.27c-27.44-28.95,76.3-105.9,121.4-105.9
			c7.45,0,13.29,2.12,16.69,6.84C-1460.59-343.43-1570.04-279.48-1612.95-279.48"/>
		<path id="path1822" class="st3" d="M-1748.38-136.8c-1.64,0-3.13-0.38-4.41-1.25c-18.39-12.25,8.25-84.28,45.71-84.28
			c1.91,0,3.85,0.15,5.81,0.57C-1671.2-215.76-1725.33-136.77-1748.38-136.8"/>
		<path id="path1823" class="st4" d="M-983.89,182.11c-27.77,16.37-61.44,28.57-91.86,17.95c-21.57-7.52-37.72-25.25-56.48-38.29
			c-41.9-29.14-99.58-33.9-145.7-12.02c-35.12,16.67-61.93,46.41-89.09,74.23c-63.05,70.94-115.52,66.44-182.19,50.23
			c11.13,20.33,17.25,43.73,32.55,61.15c24.5,27.86,71.55,31.86,100.4,8.5c49.03-39.61,106.27-129.94,169.3-130.73
			c38.28-0.45,73.98,17.42,110.12,30.05s94.06,20.94,131.2,11.68c56.36-14.1,127.96-87.31,144.66-206.13
			C-888.15,103.69-931.02,151.01-983.89,182.11"/>
	</g>
</g>
</svg>
