<?xml version="1.0" encoding="UTF-8" standalone="no"?>
<!-- Created with Inkscape (http://www.inkscape.org/) -->

<svg
   width="800mm"
   height="600mm"
   viewBox="0 0 800 600"
   version="1.1"
   id="svg1"
   xml:space="preserve"
   inkscape:version="1.4 (e7c3feb1, 2024-10-09)"
   sodipodi:docname="play ui.eps"
   inkscape:export-filename="o_cupsvg"
   inkscape:export-xdpi="25.4"
   inkscape:export-ydpi="25.4"
   inkscape:dataloss="true"
   xmlns:inkscape="http://www.inkscape.org/namespaces/inkscape"
   xmlns:sodipodi="http://sodipodi.sourceforge.net/DTD/sodipodi-0.dtd"
   xmlns="http://www.w3.org/2000/svg"
   xmlns:svg="http://www.w3.org/2000/svg"><sodipodi:namedview
     id="namedview1"
     pagecolor="#ffffff"
     bordercolor="#000000"
     borderopacity="0.25"
     inkscape:showpageshadow="2"
     inkscape:pageopacity="0.0"
     inkscape:pagecheckerboard="0"
     inkscape:deskcolor="#d1d1d1"
     inkscape:document-units="mm"
     inkscape:zoom="0.13650202"
     inkscape:cx="1571.4053"
     inkscape:cy="703.28628"
     inkscape:window-width="1328"
     inkscape:window-height="741"
     inkscape:window-x="63"
     inkscape:window-y="42"
     inkscape:window-maximized="0"
     inkscape:current-layer="layer11"><inkscape:page
       x="0"
       y="0"
       width="800"
       height="600"
       id="page2"
       margin="0"
       bleed="0" /></sodipodi:namedview><defs
     id="defs1"><clipPath
       clipPathUnits="userSpaceOnUse"
       id="clipPath165-7-2-9"><path
         d="m 1391.5,3520.07 c -101.95,-76.32 -240.55,-93.86 -364.32,-95.1 -122.567,-1.24 -260.727,15.08 -366.668,81.52 -21.086,13.23 -48.992,-3.67 -49.117,-27.85 -0.625,-120.31 30.796,-245.42 145.753,-305.25 16.997,-8.86 34.887,-15.47 53.278,-20.12 8.406,-57.13 21.183,-112.77 33.707,-168.29 16.59,-73.56 31.004,-147.08 45.055,-221.73 16.14,-85.73 50.441,-205.62 115.652,-223.78 1.82,-1.37 3.91,-2.27 6.37,-2.36 2.34,-0.08 4.64,-0.04 6.92,0.11 2.12,-0.14 4.26,-0.18 6.45,-0.11 2.45,0.09 4.54,0.98 6.36,2.34 63.52,17.77 97.46,132.37 114.15,215.95 14.53,72.88 27.56,145.67 43.91,217.83 13.17,58.08 26.81,116.36 35.8,176.17 46.92,9.13 91.09,29.83 128.52,65.48 76.02,72.45 86.18,178.03 87.01,276.83 0.18,22.48 -28.4,43.66 -48.83,28.36 z"
         transform="translate(0,2.5e-5)"
         id="path165-2-6-0" /></clipPath><clipPath
       clipPathUnits="userSpaceOnUse"
       id="clipPath163-9-1-3"><path
         d="m 1391.5,3520.07 c -101.95,-76.32 -240.55,-93.86 -364.32,-95.1 -122.567,-1.24 -260.727,15.08 -366.668,81.52 -21.086,13.23 -48.992,-3.67 -49.117,-27.85 -0.625,-120.31 30.796,-245.42 145.753,-305.25 16.997,-8.86 34.887,-15.47 53.278,-20.12 8.406,-57.13 21.183,-112.77 33.707,-168.29 16.59,-73.56 31.004,-147.08 45.055,-221.73 16.14,-85.73 50.441,-205.62 115.652,-223.78 1.82,-1.37 3.91,-2.27 6.37,-2.36 2.34,-0.08 4.64,-0.04 6.92,0.11 2.12,-0.14 4.26,-0.18 6.45,-0.11 2.45,0.09 4.54,0.98 6.36,2.34 63.52,17.77 97.46,132.37 114.15,215.95 14.53,72.88 27.56,145.67 43.91,217.83 13.17,58.08 26.81,116.36 35.8,176.17 46.92,9.13 91.09,29.83 128.52,65.48 76.02,72.45 86.18,178.03 87.01,276.83 0.18,22.48 -28.4,43.66 -48.83,28.36 z"
         transform="translate(0,2.5e-5)"
         id="path163-5-3-1" /></clipPath><clipPath
       clipPathUnits="userSpaceOnUse"
       id="clipPath161-7-6-1"><path
         d="m 1391.5,3520.07 c -101.95,-76.32 -240.55,-93.86 -364.32,-95.1 -122.567,-1.24 -260.727,15.08 -366.668,81.52 -21.086,13.23 -48.992,-3.67 -49.117,-27.85 -0.625,-120.31 30.796,-245.42 145.753,-305.25 16.997,-8.86 34.887,-15.47 53.278,-20.12 8.406,-57.13 21.183,-112.77 33.707,-168.29 16.59,-73.56 31.004,-147.08 45.055,-221.73 16.14,-85.73 50.441,-205.62 115.652,-223.78 1.82,-1.37 3.91,-2.27 6.37,-2.36 2.34,-0.08 4.64,-0.04 6.92,0.11 2.12,-0.14 4.26,-0.18 6.45,-0.11 2.45,0.09 4.54,0.98 6.36,2.34 63.52,17.77 97.46,132.37 114.15,215.95 14.53,72.88 27.56,145.67 43.91,217.83 13.17,58.08 26.81,116.36 35.8,176.17 46.92,9.13 91.09,29.83 128.52,65.48 76.02,72.45 86.18,178.03 87.01,276.83 0.18,22.48 -28.4,43.66 -48.83,28.36 z"
         transform="translate(0,2.5e-5)"
         id="path161-0-5-5" /></clipPath><clipPath
       clipPathUnits="userSpaceOnUse"
       id="clipPath159-4-4-3"><path
         d="m 1391.5,3520.07 c -101.95,-76.32 -240.55,-93.86 -364.32,-95.1 -122.567,-1.24 -260.727,15.08 -366.668,81.52 -21.086,13.23 -48.992,-3.67 -49.117,-27.85 -0.625,-120.31 30.796,-245.42 145.753,-305.25 16.997,-8.86 34.887,-15.47 53.278,-20.12 8.406,-57.13 21.183,-112.77 33.707,-168.29 16.59,-73.56 31.004,-147.08 45.055,-221.73 16.14,-85.73 50.441,-205.62 115.652,-223.78 1.82,-1.37 3.91,-2.27 6.37,-2.36 2.34,-0.08 4.64,-0.04 6.92,0.11 2.12,-0.14 4.26,-0.18 6.45,-0.11 2.45,0.09 4.54,0.98 6.36,2.34 63.52,17.77 97.46,132.37 114.15,215.95 14.53,72.88 27.56,145.67 43.91,217.83 13.17,58.08 26.81,116.36 35.8,176.17 46.92,9.13 91.09,29.83 128.52,65.48 76.02,72.45 86.18,178.03 87.01,276.83 0.18,22.48 -28.4,43.66 -48.83,28.36 z"
         transform="translate(0,2.5e-5)"
         id="path159-7-9-9" /></clipPath><clipPath
       clipPathUnits="userSpaceOnUse"
       id="clipPath157-2-3-6"><path
         d="m 1391.5,3520.07 c -101.95,-76.32 -240.55,-93.86 -364.32,-95.1 -122.567,-1.24 -260.727,15.08 -366.668,81.52 -21.086,13.23 -48.992,-3.67 -49.117,-27.85 -0.625,-120.31 30.796,-245.42 145.753,-305.25 16.997,-8.86 34.887,-15.47 53.278,-20.12 8.406,-57.13 21.183,-112.77 33.707,-168.29 16.59,-73.56 31.004,-147.08 45.055,-221.73 16.14,-85.73 50.441,-205.62 115.652,-223.78 1.82,-1.37 3.91,-2.27 6.37,-2.36 2.34,-0.08 4.64,-0.04 6.92,0.11 2.12,-0.14 4.26,-0.18 6.45,-0.11 2.45,0.09 4.54,0.98 6.36,2.34 63.52,17.77 97.46,132.37 114.15,215.95 14.53,72.88 27.56,145.67 43.91,217.83 13.17,58.08 26.81,116.36 35.8,176.17 46.92,9.13 91.09,29.83 128.52,65.48 76.02,72.45 86.18,178.03 87.01,276.83 0.18,22.48 -28.4,43.66 -48.83,28.36 z"
         transform="translate(0,2.5e-5)"
         id="path157-1-9-3" /></clipPath><clipPath
       clipPathUnits="userSpaceOnUse"
       id="clipPath155-3-6-1"><path
         d="m 1391.5,3520.07 c -101.95,-76.32 -240.55,-93.86 -364.32,-95.1 -122.567,-1.24 -260.727,15.08 -366.668,81.52 -21.086,13.23 -48.992,-3.67 -49.117,-27.85 -0.625,-120.31 30.796,-245.42 145.753,-305.25 16.997,-8.86 34.887,-15.47 53.278,-20.12 8.406,-57.13 21.183,-112.77 33.707,-168.29 16.59,-73.56 31.004,-147.08 45.055,-221.73 16.14,-85.73 50.441,-205.62 115.652,-223.78 1.82,-1.37 3.91,-2.27 6.37,-2.36 2.34,-0.08 4.64,-0.04 6.92,0.11 2.12,-0.14 4.26,-0.18 6.45,-0.11 2.45,0.09 4.54,0.98 6.36,2.34 63.52,17.77 97.46,132.37 114.15,215.95 14.53,72.88 27.56,145.67 43.91,217.83 13.17,58.08 26.81,116.36 35.8,176.17 46.92,9.13 91.09,29.83 128.52,65.48 76.02,72.45 86.18,178.03 87.01,276.83 0.18,22.48 -28.4,43.66 -48.83,28.36 z"
         transform="translate(0,2.5e-5)"
         id="path155-2-0-8" /></clipPath><clipPath
       clipPathUnits="userSpaceOnUse"
       id="clipPath153-6-8-1"><path
         d="m 1391.5,3520.07 c -101.95,-76.32 -240.55,-93.86 -364.32,-95.1 -122.567,-1.24 -260.727,15.08 -366.668,81.52 -21.086,13.23 -48.992,-3.67 -49.117,-27.85 -0.625,-120.31 30.796,-245.42 145.753,-305.25 16.997,-8.86 34.887,-15.47 53.278,-20.12 8.406,-57.13 21.183,-112.77 33.707,-168.29 16.59,-73.56 31.004,-147.08 45.055,-221.73 16.14,-85.73 50.441,-205.62 115.652,-223.78 1.82,-1.37 3.91,-2.27 6.37,-2.36 2.34,-0.08 4.64,-0.04 6.92,0.11 2.12,-0.14 4.26,-0.18 6.45,-0.11 2.45,0.09 4.54,0.98 6.36,2.34 63.52,17.77 97.46,132.37 114.15,215.95 14.53,72.88 27.56,145.67 43.91,217.83 13.17,58.08 26.81,116.36 35.8,176.17 46.92,9.13 91.09,29.83 128.52,65.48 76.02,72.45 86.18,178.03 87.01,276.83 0.18,22.48 -28.4,43.66 -48.83,28.36 z"
         transform="translate(0,2.5e-5)"
         id="path153-0-2-3" /></clipPath><clipPath
       clipPathUnits="userSpaceOnUse"
       id="clipPath151-1-4-0"><path
         d="m 1391.5,3520.07 c -101.95,-76.32 -240.55,-93.86 -364.32,-95.1 -122.567,-1.24 -260.727,15.08 -366.668,81.52 -21.086,13.23 -48.992,-3.67 -49.117,-27.85 -0.625,-120.31 30.796,-245.42 145.753,-305.25 16.997,-8.86 34.887,-15.47 53.278,-20.12 8.406,-57.13 21.183,-112.77 33.707,-168.29 16.59,-73.56 31.004,-147.08 45.055,-221.73 16.14,-85.73 50.441,-205.62 115.652,-223.78 1.82,-1.37 3.91,-2.27 6.37,-2.36 2.34,-0.08 4.64,-0.04 6.92,0.11 2.12,-0.14 4.26,-0.18 6.45,-0.11 2.45,0.09 4.54,0.98 6.36,2.34 63.52,17.77 97.46,132.37 114.15,215.95 14.53,72.88 27.56,145.67 43.91,217.83 13.17,58.08 26.81,116.36 35.8,176.17 46.92,9.13 91.09,29.83 128.52,65.48 76.02,72.45 86.18,178.03 87.01,276.83 0.18,22.48 -28.4,43.66 -48.83,28.36 z"
         transform="translate(0,2.5e-5)"
         id="path151-4-1-8" /></clipPath><clipPath
       clipPathUnits="userSpaceOnUse"
       id="clipPath149-4-7-7"><path
         d="m 1391.5,3520.07 c -101.95,-76.32 -240.55,-93.86 -364.32,-95.1 -122.567,-1.24 -260.727,15.08 -366.668,81.52 -21.086,13.23 -48.992,-3.67 -49.117,-27.85 -0.625,-120.31 30.796,-245.42 145.753,-305.25 16.997,-8.86 34.887,-15.47 53.278,-20.12 8.406,-57.13 21.183,-112.77 33.707,-168.29 16.59,-73.56 31.004,-147.08 45.055,-221.73 16.14,-85.73 50.441,-205.62 115.652,-223.78 1.82,-1.37 3.91,-2.27 6.37,-2.36 2.34,-0.08 4.64,-0.04 6.92,0.11 2.12,-0.14 4.26,-0.18 6.45,-0.11 2.45,0.09 4.54,0.98 6.36,2.34 63.52,17.77 97.46,132.37 114.15,215.95 14.53,72.88 27.56,145.67 43.91,217.83 13.17,58.08 26.81,116.36 35.8,176.17 46.92,9.13 91.09,29.83 128.52,65.48 76.02,72.45 86.18,178.03 87.01,276.83 0.18,22.48 -28.4,43.66 -48.83,28.36 z"
         transform="translate(0,2.5e-5)"
         id="path149-5-2-6" /></clipPath><clipPath
       clipPathUnits="userSpaceOnUse"
       id="clipPath147-1-2-2"><path
         d="m 1391.5,3520.07 c -101.95,-76.32 -240.55,-93.86 -364.32,-95.1 -122.567,-1.24 -260.727,15.08 -366.668,81.52 -21.086,13.23 -48.992,-3.67 -49.117,-27.85 -0.625,-120.31 30.796,-245.42 145.753,-305.25 16.997,-8.86 34.887,-15.47 53.278,-20.12 8.406,-57.13 21.183,-112.77 33.707,-168.29 16.59,-73.56 31.004,-147.08 45.055,-221.73 16.14,-85.73 50.441,-205.62 115.652,-223.78 1.82,-1.37 3.91,-2.27 6.37,-2.36 2.34,-0.08 4.64,-0.04 6.92,0.11 2.12,-0.14 4.26,-0.18 6.45,-0.11 2.45,0.09 4.54,0.98 6.36,2.34 63.52,17.77 97.46,132.37 114.15,215.95 14.53,72.88 27.56,145.67 43.91,217.83 13.17,58.08 26.81,116.36 35.8,176.17 46.92,9.13 91.09,29.83 128.52,65.48 76.02,72.45 86.18,178.03 87.01,276.83 0.18,22.48 -28.4,43.66 -48.83,28.36 z"
         transform="translate(0,2.5e-5)"
         id="path147-7-7-3-9" /></clipPath><clipPath
       clipPathUnits="userSpaceOnUse"
       id="clipPath145-9-5-1"><path
         d="m 1391.5,3520.07 c -101.95,-76.32 -240.55,-93.86 -364.32,-95.1 -122.567,-1.24 -260.727,15.08 -366.668,81.52 -21.086,13.23 -48.992,-3.67 -49.117,-27.85 -0.625,-120.31 30.796,-245.42 145.753,-305.25 16.997,-8.86 34.887,-15.47 53.278,-20.12 8.406,-57.13 21.183,-112.77 33.707,-168.29 16.59,-73.56 31.004,-147.08 45.055,-221.73 16.14,-85.73 50.441,-205.62 115.652,-223.78 1.82,-1.37 3.91,-2.27 6.37,-2.36 2.34,-0.08 4.64,-0.04 6.92,0.11 2.12,-0.14 4.26,-0.18 6.45,-0.11 2.45,0.09 4.54,0.98 6.36,2.34 63.52,17.77 97.46,132.37 114.15,215.95 14.53,72.88 27.56,145.67 43.91,217.83 13.17,58.08 26.81,116.36 35.8,176.17 46.92,9.13 91.09,29.83 128.52,65.48 76.02,72.45 86.18,178.03 87.01,276.83 0.18,22.48 -28.4,43.66 -48.83,28.36 z"
         transform="translate(0,2.5e-5)"
         id="path145-4-5-1-4" /></clipPath><clipPath
       clipPathUnits="userSpaceOnUse"
       id="clipPath143-4-0-1"><path
         d="m 1391.5,3520.07 c -101.95,-76.32 -240.55,-93.86 -364.32,-95.1 -122.567,-1.24 -260.727,15.08 -366.668,81.52 -21.086,13.23 -48.992,-3.67 -49.117,-27.85 -0.625,-120.31 30.796,-245.42 145.753,-305.25 16.997,-8.86 34.887,-15.47 53.278,-20.12 8.406,-57.13 21.183,-112.77 33.707,-168.29 16.59,-73.56 31.004,-147.08 45.055,-221.73 16.14,-85.73 50.441,-205.62 115.652,-223.78 1.82,-1.37 3.91,-2.27 6.37,-2.36 2.34,-0.08 4.64,-0.04 6.92,0.11 2.12,-0.14 4.26,-0.18 6.45,-0.11 2.45,0.09 4.54,0.98 6.36,2.34 63.52,17.77 97.46,132.37 114.15,215.95 14.53,72.88 27.56,145.67 43.91,217.83 13.17,58.08 26.81,116.36 35.8,176.17 46.92,9.13 91.09,29.83 128.52,65.48 76.02,72.45 86.18,178.03 87.01,276.83 0.18,22.48 -28.4,43.66 -48.83,28.36 z"
         transform="translate(0,2.5e-5)"
         id="path143-3-4-2" /></clipPath></defs><g
     inkscape:groupmode="layer"
     id="layer11"
     inkscape:label="order"
     style="display:inline"><g
       id="o_cone"
       transform="matrix(0.95429628,0,0,0.99547513,-789.50256,-143.79051)"
       style="display:inline"><path
         id="path142-8-3-8"
         d="m 1391.5,3520.07 c -101.95,-76.32 -240.55,-93.86 -364.32,-95.1 -122.567,-1.24 -260.727,15.08 -366.668,81.52 -21.086,13.23 -48.992,-3.67 -49.117,-27.85 -0.625,-120.31 30.796,-245.42 145.753,-305.25 16.997,-8.86 34.887,-15.47 53.278,-20.12 8.406,-57.13 21.183,-112.77 33.707,-168.29 16.59,-73.56 31.004,-147.08 45.055,-221.73 16.14,-85.73 50.441,-205.62 115.652,-223.78 1.82,-1.37 3.91,-2.27 6.37,-2.36 2.34,-0.08 4.64,-0.04 6.92,0.11 2.12,-0.14 4.26,-0.18 6.45,-0.11 2.45,0.09 4.54,0.98 6.36,2.34 63.52,17.77 97.46,132.37 114.15,215.95 14.53,72.88 27.56,145.67 43.91,217.83 13.17,58.08 26.81,116.36 35.8,176.17 46.92,9.13 91.09,29.83 128.52,65.48 76.02,72.45 86.18,178.03 87.01,276.83 0.18,22.48 -28.4,43.66 -48.83,28.36"
         style="fill:#fab451;fill-opacity:1;fill-rule:nonzero;stroke:none"
         transform="matrix(0.08085668,-8.9752935e-4,-0.00123098,-0.06717755,881.65751,706.78181)"
         clip-path="url(#clipPath143-4-0-1)" /><path
         id="path144-2-9-8"
         d="m 576.609,3448.31 c 92.672,-67.94 211.352,-84.51 323.34,-91.58 78.785,-4.97 156.811,-4.74 235.321,2.81 82.33,7.9 164.89,18.95 244.98,39.98 37.53,9.85 138.26,33.89 125.01,90.62 -3.53,15.1 -26.76,18.8 -33.88,4.42 -19.49,-39.38 -89.09,-50.4 -128.19,-59.81 -74.19,-17.85 -150.43,-29.09 -226.28,-36.97 -68.97,-7.17 -137.765,-7.1 -207.051,-4.52 -109.679,4.09 -226.851,16.51 -325.629,68.09 -8.792,4.6 -15.351,-7.37 -7.621,-13.04 v 0"
         style="fill:#cf8034;fill-opacity:1;fill-rule:nonzero;stroke:none"
         transform="matrix(0.08085668,-8.9752935e-4,-0.00123098,-0.06717755,881.65751,706.78181)"
         clip-path="url(#clipPath145-9-5-1)" /><path
         id="path146-5-9-5-7"
         d="m 723.621,3154.02 c 29.836,-1.66 58.383,-14.44 87.457,-20.27 29.645,-5.93 59.449,-11.87 89.442,-15.76 62.21,-8.1 124.61,-13.79 187.33,-15.9 60.47,-2.04 121.63,-0.5 181.59,8.02 31.67,4.51 62.98,10.4 94.05,18.06 25.75,6.35 56.8,12.39 75.76,31.96 11.7,12.08 2.33,28.82 -12.61,30.48 -25.07,2.79 -51.84,-9.72 -75.99,-15.89 -27.48,-7.01 -55.47,-11.91 -83.52,-16.07 -59.28,-8.76 -119.41,-11.95 -179.28,-12.19 -58.93,-0.23 -117.85,3.57 -176.483,9.15 -28.535,2.7 -57.113,4.98 -85.64,7.8 -32.485,3.22 -68.012,0.72 -99.422,10.38 -13.739,4.22 -17.766,-18.93 -2.684,-19.77 v 0"
         style="fill:#cf8034;fill-opacity:1;fill-rule:nonzero;stroke:none"
         transform="matrix(0.08085668,-8.9752935e-4,-0.00123098,-0.06717755,881.65751,706.78181)"
         clip-path="url(#clipPath147-1-2-2)" /><path
         id="path148-5-9-3-3"
         d="m 927.973,3140.07 c 30.711,-42.23 60.992,-77.54 102.067,-110.9 42.76,-34.72 89.61,-63.02 139.07,-87.07 46.48,-22.6 95.51,-41.2 145.36,-54.74 50.64,-13.77 107.23,-28.61 159.9,-21.58 8.41,1.12 10.34,11.69 2.01,14.83 -45.94,17.33 -96.12,22.77 -143.47,35.83 -50.57,13.94 -100.07,31.25 -147.81,53.02 -91.38,41.71 -181.18,102.56 -249.94,176.16 -3.5,3.74 -10.277,-1.3 -7.187,-5.55 v 0"
         style="fill:#cf8034;fill-opacity:1;fill-rule:nonzero;stroke:none"
         transform="matrix(0.08085668,-8.9752935e-4,-0.00123098,-0.06717755,881.65751,706.78181)"
         clip-path="url(#clipPath149-4-7-7)" /><path
         id="path150-8-1-8"
         d="m 1470.12,2904.02 c -93.47,36.68 -194.36,39.87 -290.75,65.1 -0.41,0.1 -0.58,-0.52 -0.18,-0.63 96.41,-25.23 197.29,-28.42 290.76,-65.1 0.39,-0.15 0.55,0.48 0.17,0.63 v 0"
         style="fill:#cf8034;fill-opacity:1;fill-rule:nonzero;stroke:none"
         transform="matrix(0.08085668,-8.9752935e-4,-0.00123098,-0.06717755,881.65751,706.78181)"
         clip-path="url(#clipPath151-1-4-0)" /><path
         id="path152-3-1-8"
         d="m 787.016,3121.39 c 52.925,-123.8 154.089,-217.44 267.774,-286.09 110.24,-66.58 246.13,-116.54 376.19,-110.9 6.28,0.28 7.99,9.67 1.52,11.24 -122.58,29.8 -242.28,61.4 -354.23,121.57 -116.43,62.56 -215.672,154.67 -279.008,271.34 -4.473,8.25 -15.739,1 -12.246,-7.16 v 0"
         style="fill:#cf8034;fill-opacity:1;fill-rule:nonzero;stroke:none"
         transform="matrix(0.08085668,-8.9752935e-4,-0.00123098,-0.06717755,881.65751,706.78181)"
         clip-path="url(#clipPath153-6-8-1)" /><path
         id="path154-7-2-9"
         d="m 773.176,2897.43 c 56.508,-106.73 164.203,-176.87 272.154,-224.54 101.8,-44.95 228.56,-79.44 340.34,-60.08 8.83,1.53 8.72,16.04 0,17.65 -50.76,9.42 -102.16,13.8 -152.8,24.27 -55.78,11.53 -110.94,28.71 -163.72,50.01 -110.134,44.45 -200.63,118.78 -283.396,202.41 -6.566,6.62 -16.777,-1.78 -12.578,-9.72 v 0"
         style="fill:#cf8034;fill-opacity:1;fill-rule:nonzero;stroke:none"
         transform="matrix(0.08085668,-8.9752935e-4,-0.00123098,-0.06717755,881.65751,706.78181)"
         clip-path="url(#clipPath155-3-6-1)" /><path
         id="path156-6-1-6-6"
         d="M 1046.99,3109.77 C 972.633,3046.1 898.75,2980.74 822.535,2919.2 c -37.961,-30.64 -77.855,-58.79 -119.191,-84.7 -42.86,-26.87 -89.297,-47.68 -130.731,-76.75 -6.429,-4.51 -2.492,-14.08 5.293,-12.54 91.352,17.87 176.989,83.34 248.817,139.64 84.152,65.98 155.125,139.93 224.477,220.71 2.5,2.92 -1.29,6.71 -4.21,4.21 v 0"
         style="fill:#cf8034;fill-opacity:1;fill-rule:nonzero;stroke:none"
         transform="matrix(0.08085668,-8.9752935e-4,-0.00123098,-0.06717755,881.65751,706.78181)"
         clip-path="url(#clipPath157-2-3-6)" /><path
         id="path158-1-2-9-8"
         d="m 1170.99,3118.65 c -38.39,-53.42 -87.07,-103.66 -132.57,-151.24 -42.475,-44.42 -90.822,-83.48 -138.615,-122.02 -47.325,-38.14 -96.883,-73.56 -149.184,-104.58 -27.711,-16.44 -56.601,-30.83 -86.465,-42.9 -22.929,-9.28 -50.312,-15.57 -70.765,-29.71 -5.887,-4.05 -5.715,-13.95 2.078,-15.89 50.133,-12.5 112.566,25 154.711,48.05 56.152,30.71 108.047,68.97 158.265,108.44 50.602,39.77 99.885,81.6 143.955,128.57 24.21,25.8 46.24,53.25 67.08,81.81 22.19,30.43 38.77,63.53 59.41,94.85 3.29,5.01 -4.52,9.33 -7.9,4.62 v 0"
         style="fill:#cf8034;fill-opacity:1;fill-rule:nonzero;stroke:none"
         transform="matrix(0.08085668,-8.9752935e-4,-0.00123098,-0.06717755,881.65751,706.78181)"
         clip-path="url(#clipPath159-4-4-3)" /><path
         id="path160-5-6-1-6"
         d="m 1196.83,2988.59 c -61,-92.21 -146.53,-171.48 -234.787,-237.33 -43.652,-32.57 -90.527,-61.3 -138.777,-86.49 -45.832,-23.94 -95.743,-36.81 -141.934,-59.31 -5.781,-2.81 -2.941,-12.14 3.238,-11.93 49.313,1.67 97.399,24.81 141.438,45.44 56.176,26.31 107.937,60.38 157,98.15 89.192,68.67 161.622,152.05 222.122,246.62 3.35,5.25 -4.91,9.98 -8.3,4.85 v 0"
         style="fill:#cf8034;fill-opacity:1;fill-rule:nonzero;stroke:none"
         transform="matrix(0.08085668,-8.9752935e-4,-0.00123098,-0.06717755,881.65751,706.78181)"
         clip-path="url(#clipPath161-7-6-1)" /><path
         id="path162-9-1-9-9"
         d="m 1233.23,2862.76 c -75.15,-60.72 -142.81,-129.8 -215.77,-192.99 -37.554,-32.52 -77.503,-61.95 -120.495,-86.87 -21.297,-12.34 -43.625,-22.84 -66.442,-32.01 -22.21,-8.92 -47.515,-13.21 -67.543,-26.48 -6.972,-4.63 -3.82,-14.11 4.04,-14.93 44,-4.57 97.074,26.03 134.773,46.24 42.879,22.99 82.094,52.42 119.547,83.29 79.43,65.45 147.69,142.91 225.49,210.17 9.48,8.2 -4.12,21.24 -13.6,13.58 v 0"
         style="fill:#cf8034;fill-opacity:1;fill-rule:nonzero;stroke:none"
         transform="matrix(0.08085668,-8.9752935e-4,-0.00123098,-0.06717755,881.65751,706.78181)"
         clip-path="url(#clipPath163-9-1-3)" /><path
         id="path164-1-7-0-5"
         d="m 910.84,3120.07 c -32.539,-41.11 -72.578,-76.82 -113.207,-109.73 -40.84,-33.08 -92.168,-53.91 -130.938,-88.75 -5.566,-5.01 0.473,-12.58 6.684,-11.49 48.891,8.61 94.586,46.81 132.676,76.53 45.754,35.68 82.597,77.91 113.054,127.06 3.098,5 -4.515,11.11 -8.269,6.38 v 0"
         style="fill:#cf8034;fill-opacity:1;fill-rule:nonzero;stroke:none"
         transform="matrix(0.08085668,-8.9752935e-4,-0.00123098,-0.06717755,881.65751,706.78181)"
         clip-path="url(#clipPath165-7-2-9)" /></g></g></svg>
