<?xml version="1.0" encoding="utf-8"?>
<!-- Generator: Adobe Illustrator 26.0.2, SVG Export Plug-In . SVG Version: 6.00 Build 0)  -->
<svg version="1.1"
	 id="svg1" inkscape:export-xdpi="25.4" sodipodi:docname="play ui.eps" xmlns:inkscape="http://www.inkscape.org/namespaces/inkscape" xmlns:sodipodi="http://sodipodi.sourceforge.net/DTD/sodipodi-0.dtd" xmlns:svg="http://www.w3.org/2000/svg"
	 xmlns="http://www.w3.org/2000/svg" xmlns:xlink="http://www.w3.org/1999/xlink" x="0px" y="0px" viewBox="0 0 300 300"
	 style="enable-background:new 0 0 300 300;" xml:space="preserve">
<style type="text/css">
	.st0{fill:#F1818B;}
	.st1{fill:#F499A1;}
	.st2{fill:#F3A8B0;}
	.st3{fill:#F4D6DA;}
	.st4{fill:#F26772;}
</style>
<sodipodi:namedview  bordercolor="#000000" borderopacity="0.25" id="namedview1" inkscape:current-layer="layer11" inkscape:cx="1571.4053" inkscape:cy="703.28628" inkscape:deskcolor="#d1d1d1" inkscape:document-units="mm" inkscape:pagecheckerboard="0" inkscape:pageopacity="0.0" inkscape:showpageshadow="2" inkscape:window-height="741" inkscape:window-maximized="0" inkscape:window-width="1328" inkscape:window-x="63" inkscape:window-y="42" inkscape:zoom="0.13650202" pagecolor="#ffffff">
	<inkscape:page  bleed="0" height="600" id="page2" margin="0" width="800" x="0" y="0"></inkscape:page>
</sodipodi:namedview>
<g id="layer7" transform="matrix(0.95429627,0,0,0.99547513,16.834683,3.5210986)" inkscape:groupmode="layer" inkscape:label="flavor">
	<g id="strawberry" transform="matrix(0.19935527,0,0,0.19050951,161.1669,222.50638)">
		<path id="path1812" class="st0" d="M255.99-160.14c87.72-21.92,212.56-186.78,109.49-444.43
			C262.45-862.22-1.66-926.62-117.58-920.2c-340.84,18.94-489.11,264.57-502.41,457.32c-12.85,186.78,73.59,351.72,115.96,367.14
			c22.41,30.73,74.42,17.39,106.96-2.31s67.54-46.26,104.43-36.93c34.85,8.84,54.16,47.06,58.81,82.73
			c4.61,35.68-0.83,72.3,6.16,107.57c7.03,35.26,32.47,71.4,68.37,72.98c46.15,2.12,74.83-51.85,76.46-98
			c1.62-46.19-11.45-93.96,3.36-137.73c5.93-17.46,21.77-35.79,39.5-30.61c19.35,5.67,22,33.49,38.59,44.98
			c18.07,12.59,44.18-0.6,55.41-19.5c11.23-18.94,13.08-41.8,20.07-62.66s22.83-42.03,44.82-42.67
			c27.59-0.83,44.67,29.22,68.6,42.94C219.21-156.74,220.54-151.29,255.99-160.14"/>
		<path id="path1813" class="st1" d="M337.4-597.13C240.46-839.47-7.97-900.09-117.05-894.01
			c-320.62,17.8-460.08,248.84-472.59,430.18c-3.7,53.74,8.5,123.78,56.77,147.7c50.34,24.94,109.3-10.89,149.48-50.15
			c40.14-39.27,81.45-86.97,137.5-90.41c72.08-4.42,142.45,67.69,208.18,37.83c36.74-16.71,53.33-58.54,70.3-95.21
			c16.97-36.62,44.64-76.04,85-77.1c35.3-0.94,63.12,27.89,88.82,52.12c25.66,24.23,62.02,47.09,94.15,32.43
			C331.24-520.63,349.95-565.76,337.4-597.13"/>
		<path id="path1814" class="st2" d="M-143.36-862.22c-265.13,30.2-405.77,238.34-386.46,354.25c4.72,28.23,31.56,47.28,60.13,44.86
			c28.57-2.46,52.04-22.83,72.3-43.05c65.95-65.88,133.34-147.21,226.58-151.71c40.37-1.93,77.93-6.05,117.85,0.3
			s100.23-1.93,128.58-30.77c34.13-34.62,20.37-74-12.85-109.49C29.52-833.27-95.02-867.7-143.36-862.22"/>
		<path id="path1815" class="st3" d="M-227.07-797.82c-23.96-33.56-170.04,65.35-138.1,99.06
			C-343.03-675.44-194.87-752.73-227.07-797.82"/>
		<path id="path1816" class="st3" d="M-439.63-636.77c-40.44-8.09-70.83,70.83-51.52,83.72
			C-471.84-540.17-407.43-630.35-439.63-636.77"/>
		<path id="path1817" class="st4" d="M180.47-173.52c20.64,18.56,45.39,24.76,72.23,18.56c49.44-11.41,113.39-74.8,139.16-168.23
			c-38.36,54.31-106.73,90.03-168.04,67.35c-27.14-10.02-49.44-29.86-74.87-43.65c-25.47-13.8-58.36-20.9-82.43-4.84
			c-31.29,20.86-40.37,75.02-77.97,76.31c-20.52,0.72-38.14-16.74-58.66-16.86c-54.95-0.3-61.49,110.36-115.84,102.31
			c-22.11-3.25-34.58-26.12-49.13-43.12c-34.47-40.37-97.51-52.88-144.76-28.72c-36.13,18.44-63.91,55.56-104.16,60.51
			c-33.6,4.16-63.61-15.38-89.61-38.82c23.55,54.16,44.64,84.62,60.55,96.6c30.39,22.83,83.45,17.76,115.99-1.93
			c32.54-19.69,67.54-46.26,104.43-36.93c34.85,8.84,54.16,47.06,58.81,82.73c4.61,35.68-0.83,72.3,6.16,107.57
			c7.03,35.26,32.47,71.4,68.37,72.98c46.15,2.12,74.83-51.85,76.46-98c1.62-46.19-11.45-93.96,3.36-137.73
			c5.93-17.46,21.77-35.79,39.5-30.61c19.35,5.67,22,33.49,38.59,44.98c18.07,12.59,44.18-0.6,55.41-19.5
			c11.23-18.94,13.08-41.8,20.07-62.66s22.83-42.03,44.82-42.67C146.5-218.72,159.95-192,180.47-173.52"/>
	</g>
</g>
</svg>
