<?xml version="1.0" encoding="utf-8"?>
<!-- Generator: Adobe Illustrator 26.0.2, SVG Export Plug-In . SVG Version: 6.00 Build 0)  -->
<svg version="1.1" id="圖層_1" xmlns="http://www.w3.org/2000/svg" xmlns:xlink="http://www.w3.org/1999/xlink" x="0px" y="0px"
	 viewBox="0 0 300 300" style="enable-background:new 0 0 300 300;" xml:space="preserve">
<style type="text/css">
	.st0{fill:#ECA436;}
	.st1{fill:#855244;}
	.st2{fill:#945F51;}
	.st3{fill:#9D6C5A;}
	.st4{fill:#BA8B7F;}
	.st5{fill:#794739;}
</style>
<g id="layer7" transform="matrix(0.95429627,0,0,0.99547513,16.834683,3.5210986)">
	<g id="choco" transform="matrix(0.19935527,0,0,0.19050951,418.51575,139.72387)">
		<path id="path1798" class="st0" d="M-1046.7,367.44c88.38-18.94,225.43-264.07,122.36-521.72
			c-103.04-257.65-367.12-322.05-483.05-315.63c-340.85,18.94-489.1,264.57-502.4,457.32c-12.88,186.78,64.6,356.6,109.5,360.72
			c70.85,6.43,64.41-109.53,115.94-90.18c51.53,19.31,12.88,276.93,103.06,289.81c90.17,12.89,38.65-231.87,96.62-225.41
			c57.97,6.43,38.43,148.12,135.26,148.12c103.06,0,57.97-167.47,128.82-173.9C-1149.76,290.14-1136.87,386.75-1046.7,367.44"/>
		<path id="path1799" class="st1" d="M-1046.7,367.44c88.38-18.94,225.43-264.07,122.36-521.72
			c-103.04-257.65-367.12-322.05-483.05-315.63c-340.85,18.94-489.1,264.57-502.4,457.32c-12.88,186.78,64.6,356.6,109.5,360.72
			c70.85,6.43,64.41-109.53,115.94-90.18c51.53,19.31,12.88,276.93,103.06,289.81c90.17,12.89,38.65-231.87,96.62-225.41
			c57.97,6.43,38.43,148.12,135.26,148.12c103.06,0,57.97-167.47,128.82-173.9C-1149.76,290.14-1136.87,386.75-1046.7,367.44"/>
		<path id="path1800" class="st2" d="M-1195.48-6.74c29.82-4.01,57.82,13.46,87.01,20.75c42.51,10.62,90.06-1.89,121.88-32.01
			c31.83-30.08,48.34-85.19,32.05-125.86c-97.9-244.8-348.81-305.99-458.97-299.87c-323.85,17.99-464.71,251.34-477.34,434.49
			c-12.24,177.49,62.8,196.99,103.43,183.42c59.24,17.61,105.08-85.3,166.73-80.96c21.91,1.51,46.75,14.7,60.28,32.01
			c13.53,17.31,33.76,35.45,54.63,28.61c18.38-6.05,26.15-28.42,42.86-38.17c25.58-14.89,56.27,5.25,81.91,20.03
			c23.11,13.34,49.39,22.87,76.02,21.05s53.38-16.82,63.81-41.39c12.64-29.74,0.09-67.16,17.56-94.37
			C-1213.12,4.64-1214.72-4.17-1195.48-6.74"/>
		<path id="path1801" class="st3" d="M-1053.14-186.49c-26.26-157.53-270.52-238.34-386.52-225.11
			c-265.14,30.2-418.6,238-399.28,353.91c4.7,28.23,31.55,47.28,60.12,44.86c28.57-2.46,52.03-22.83,72.29-43.05
			c65.95-65.88,133.35-147.21,226.59-151.71c102.71-4.91,183.91,86.74,283.54,112.14c29.19,7.41,60.99,8.81,88.72-2.95
			S-1046.7-147.86-1053.14-186.49"/>
		<path id="path1802" class="st4" d="M-1609.47-307.51c-8.23-17.39-67.68,31.75-56.36,49.28
			C-1658-246.09-1598.42-284.15-1609.47-307.51"/>
		<path id="path1803" class="st4" d="M-1772.85-48.42c-16.2-17.42-37.39,68.67-18.61,84.85
			C-1778.45,47.65-1751.09-25.07-1772.85-48.42"/>
		<path id="path1804" class="st4" d="M-1706.75-218.01c-45.8-9.15-80.23,80.24-58.35,94.83
			C-1743.22-108.59-1670.28-210.72-1706.75-218.01"/>
		<path id="path1805" class="st5" d="M-900.18,144.25c-30.24,42.9-88.09,138.67-140.07,145.89
			c-66.16,9.18-147.75-111.87-204.92-77.37c-33.49,20.26-46.82,61.04-65.8,95.24c-18.99,34.2-32,72.3-67.43,72.91
			c-37.24,0.64-43.05-57.11-54.86-92.45c-11.81-35.3-50.87-72.38-81.16-50.68c-10.49,7.52-15.87,20.14-20.16,32.31
			c-10.2,28.91-17.14,59-20.63,89.46c-1.84,16.1-3.16,33.41-13.35,46c-19.46,24.04-60.61,14.78-79.81-9.6
			c8.02,71.47,19.95,145.06,67.08,151.79c90.17,12.89,38.65-231.87,96.62-225.41c57.97,6.43,38.43,148.12,135.26,148.12
			c103.06,0,57.97-167.47,128.82-173.9c70.85-6.43,83.73,90.18,173.9,70.87c52.03-11.15,120.85-100.69,147.72-224.99
			C-899.39,143.05-899.77,143.65-900.18,144.25"/>
	</g>
</g>
</svg>
