<?xml version="1.0" encoding="utf-8"?>
<!-- Generator: Adobe Illustrator 26.0.2, SVG Export Plug-In . SVG Version: 6.00 Build 0)  -->
<svg version="1.1"
	 id="svg1" inkscape:export-xdpi="25.4" sodipodi:docname="play ui.eps" xmlns:inkscape="http://www.inkscape.org/namespaces/inkscape" xmlns:sodipodi="http://sodipodi.sourceforge.net/DTD/sodipodi-0.dtd" xmlns:svg="http://www.w3.org/2000/svg"
	 xmlns="http://www.w3.org/2000/svg" xmlns:xlink="http://www.w3.org/1999/xlink" x="0px" y="0px" viewBox="0 0 300 300"
	 style="enable-background:new 0 0 300 300;" xml:space="preserve">
<style type="text/css">
	.st0{fill:#F5A830;}
	.st1{fill:#F5B758;}
	.st2{fill:#F4C888;}
	.st3{fill:#F6DDBB;}
	.st4{fill:#ED9421;}
</style>
<sodipodi:namedview  bordercolor="#000000" borderopacity="0.25" id="namedview1" inkscape:current-layer="layer11" inkscape:cx="1571.4053" inkscape:cy="703.28628" inkscape:deskcolor="#d1d1d1" inkscape:document-units="mm" inkscape:pagecheckerboard="0" inkscape:pageopacity="0.0" inkscape:showpageshadow="2" inkscape:window-height="741" inkscape:window-maximized="0" inkscape:window-width="1328" inkscape:window-x="63" inkscape:window-y="42" inkscape:zoom="0.13650202" pagecolor="#ffffff">
	<inkscape:page  bleed="0" height="600" id="page2" margin="0" width="800" x="0" y="0"></inkscape:page>
</sodipodi:namedview>
<g id="layer7" transform="matrix(0.95429627,0,0,0.99547513,16.834683,3.5210986)" inkscape:groupmode="layer" inkscape:label="flavor">
	<g id="orange" transform="matrix(0.19935527,0,0,0.19050951,416.8597,141.67099)">
		<path id="path1792" class="st0" d="M-1397.65-496.07c-340.85,18.94-489.1,264.57-502.4,457.32
			c-12.88,186.78,51.53,270.54,96.62,270.54s64.41-57.98,103.06-45.09c38.64,12.85,45.09,141.69,115.94,161.01
			c70.85,19.31,57.97-90.18,154.58-51.51c96.62,38.63,12.88,251.19,103.06,257.65c90.17,6.43,45.09-264.11,122.38-257.65
			c77.29,6.43,57.97,122.38,148.14,115.92c90.17-6.43,244.76-334.9,141.7-592.55C-1017.63-438.09-1281.71-502.49-1397.65-496.07"/>
		<path id="path1793" class="st1" d="M-938.34-170.01c-97.92-244.8-348.82-305.99-458.98-299.87
			c-323.85,17.99-464.71,251.34-477.34,434.49c-12.24,177.49,62.8,196.99,103.44,183.42c59.24,17.61,105.08-85.3,166.73-80.96
			c35.09,2.46,58.42,35.64,85.47,58.13c68.07,56.58,183.64,40.67,233.88-32.2c32.36-46.94,49.35-118.3,105.85-125.9
			c29.82-4.01,57.82,13.46,87.01,20.75c42.51,10.62,90.06-1.89,121.88-32.01C-938.58-74.24-922.06-129.34-938.34-170.01"/>
		<path id="path1794" class="st2" d="M-1036.95-212.64c-26.25-157.53-270.52-238.34-386.52-225.11
			c-265.14,30.2-418.6,238-399.28,353.91c4.7,28.23,31.55,47.28,60.12,44.86c28.57-2.46,52.03-22.83,72.29-43.05
			c65.95-65.88,133.35-147.21,226.59-151.71c102.71-4.91,183.91,86.74,283.54,112.14c29.19,7.41,60.99,8.81,88.72-2.95
			C-1063.76-136.3-1030.51-174.01-1036.95-212.64"/>
		<path id="path1795" class="st3" d="M-1494.26-386.54c-23.97-33.56-170.05,65.31-138.09,99.02
			C-1610.2-264.19-1462.06-341.49-1494.26-386.54"/>
		<path id="path1796" class="st3" d="M-1706.81-225.53c-40.44-8.09-70.85,70.87-51.53,83.72
			C-1739.02-128.92-1674.61-219.1-1706.81-225.53"/>
		<path id="path1797" class="st4" d="M-951.39,218.15c-24.21,39.46-61.18,78.95-107.42,77.1c-34.87-1.4-63.67-25.93-93.22-44.52
			c-29.54-18.56-69.88-31.29-97.7-10.2c-16.06,12.17-23.26,32.39-34.33,49.25c-11.06,16.82-31.42,31.79-50.12,24.3
			c-14.79-5.93-21.17-22.79-29.19-36.55c-31.16-53.4-112.06-69.09-160.9-31.14c-16.83,13.08-30.23,31.29-49.97,39.34
			c-31.29,12.7-63.15-5.18-85.13-32.77c16.15,39.65,35.63,84.02,74.93,94.75c70.85,19.31,57.97-90.18,154.58-51.51
			c96.62,38.63,12.88,251.19,103.06,257.65c90.17,6.43,45.09-264.11,122.38-257.65c77.29,6.43,57.97,122.38,148.14,115.92
			c66.86-4.76,169.09-186.59,175.5-385.32C-894.86,96.83-920.04,167.09-951.39,218.15"/>
	</g>
</g>
</svg>
