<?xml version="1.0" encoding="utf-8"?>
<!-- Generator: Adobe Illustrator 26.0.2, SVG Export Plug-In . SVG Version: 6.00 Build 0)  -->
<svg version="1.1"
	 id="svg1" inkscape:export-filename="vanilla.svg" sodipodi:docname="play ui.eps" xmlns:inkscape="http://www.inkscape.org/namespaces/inkscape" xmlns:sodipodi="http://sodipodi.sourceforge.net/DTD/sodipodi-0.dtd" xmlns:svg="http://www.w3.org/2000/svg"
	 xmlns="http://www.w3.org/2000/svg" xmlns:xlink="http://www.w3.org/1999/xlink" x="0px" y="0px" viewBox="0 0 300 300"
	 style="enable-background:new 0 0 300 300;" xml:space="preserve">
<style type="text/css">
	.st0{fill:#E22738;}
	.st1{fill:#EC4060;}
	.st2{fill:#BB1F2F;}
	.st3{fill:#CF2B29;}
	.st4{fill:#F0BE36;}
	.st5{fill:#34B541;}
	.st6{fill:#1BAE47;}
	.st7{fill:#0EA54B;}
	.st8{fill:#27B244;}
	.st9{fill:#52BF41;}
</style>
<sodipodi:namedview  bordercolor="#000000" borderopacity="0.25" id="namedview1" inkscape:current-layer="layer11" inkscape:cx="1571.4053" inkscape:cy="703.28628" inkscape:deskcolor="#d1d1d1" inkscape:document-units="mm" inkscape:pagecheckerboard="0" inkscape:pageopacity="0.0" inkscape:showpageshadow="2" inkscape:window-height="741" inkscape:window-maximized="0" inkscape:window-width="1328" inkscape:window-x="63" inkscape:window-y="42" inkscape:zoom="0.13650202" pagecolor="#ffffff">
	<inkscape:page  bleed="0" height="600" id="page2" margin="0" width="800" x="0" y="0"></inkscape:page>
</sodipodi:namedview>
<g id="layer7" transform="matrix(0.95429627,0,0,0.99547513,16.834683,3.5210986)" inkscape:groupmode="layer" inkscape:label="flavor">
	<g id="strawberry2" transform="matrix(0.27725492,0,0,0.26578598,196.92959,77.536298)">
		<path id="path252" class="st0" d="M-68.9,112.2c-71.7-63.5-163-95.2-252.7-66.3C-411.3,74.8-430,174.7-442.9,239.2
			c-11.9,59.8-75.9,200.1-2.9,266c73,66,211.4,0.1,292.1-12.3c82.1-12.6,176.8-60.4,177-186.6C23.5,195.1,5.2,177.8-68.9,112.2"/>
		<path id="path253" class="st1" d="M-183.7,134.7c-14.6-14.2-68-37.4-116.4-16c-48.4,21.4-64,80.8-68.3,129.4
			c-4.2,48.6-17.1,83.1-37.8,111.9c-20.7,28.8-37.5,66.1-13,94.3c24.5,28.2,83.2-29.1,115.2-61.9c32-32.8,152.8-73.2,158.4-152
			C-141,176.7-162.7,155-183.7,134.7"/>
		<path id="path254" class="st2" d="M-37.6,131.6c0,0-52.8-45.6-76.6-61.9c-23.6-16.1-63.6-46.3-88.4-28.5
			c-22.9,16.5-4.7,66.9-4.7,66.9l-101.2,13.5c0,0,36.1,21.5,48.1,43.6c10.8,19.9,38.8,27.9,38.8,27.9s-16,31.2-20.3,50.7
			c-2.5,11.4-7.2,62.3-7.2,62.3s56.2-1.6,82.2-7c26-5.4,35.4-17.2,35.4-17.2s2.4-2.6,15.8,11.6c13.4,14.2,55.7,28,52.2,48.3
			c-13.9,79.9-63.3,84.5-139.7,105.6c-70.6,19.5-146.3,69.3-226.7,40.5c-25.3-9.1-45.1-53.6-50.4-70c0.5,33.7,9.5,64.9,34.4,87.3
			c73,66,212.5,6.6,293.1-5.8C-70.6,486.8,38.5,423,32.8,296.9C28.1,193.6-37.6,131.6-37.6,131.6"/>
		<path id="path255" class="st3" d="M-302.9,185.3c13.1,16.9,50.5-7.3,28.4-29.1C-291.2,139.6-316,168.3-302.9,185.3"/>
		<path id="path256" class="st4" d="M-295.9,183.4c6.1,6,23.5-8.4,18.2-19.9C-281.4,155.2-302,177.4-295.9,183.4"/>
		<path id="path257" class="st2" d="M-247,182.6c13.1,17,50.5-7.3,28.4-29.1C-235.3,136.9-260.1,165.7-247,182.6"/>
		<path id="path258" class="st4" d="M-239.9,180.7c6.1,6,23.5-8.4,18.2-19.9C-225.5,152.4-246,174.7-239.9,180.7"/>
		<path id="path259" class="st3" d="M-285.3,233.7c13.1,17,50.5-7.3,28.4-29.1C-273.6,188-298.4,216.8-285.3,233.7"/>
		<path id="path260" class="st4" d="M-278.3,231.9c6.1,6,23.5-8.4,18.3-19.9C-263.8,203.6-284.4,225.8-278.3,231.9"/>
		<path id="path261" class="st3" d="M-307.9,211.4c-18.2-13-35.7,18.7-20.7,32.7C-313.6,258.1-283.9,228.5-307.9,211.4"/>
		<path id="path262" class="st4" d="M-322.5,241.1c6.6,4.7,19.9-12,13.1-22.1C-314.4,211.6-329.1,236.4-322.5,241.1"/>
		<path id="path263" class="st3" d="M-290.1,262.9c-17.6-13.8-36.8,16.8-22.5,31.4C-298.3,308.9-266.9,281.1-290.1,262.9"/>
		<path id="path264" class="st4" d="M-306.4,291.6c6.4,5,20.7-10.9,14.3-21.3C-296.7,262.8-312.8,286.6-306.4,291.6"/>
		<path id="path265" class="st2" d="M-238.9,258.5c-17.2-14.3-37.5,15.5-23.7,30.5C-248.7,304-216.2,277.3-238.9,258.5"/>
		<path id="path266" class="st4" d="M-259.8,286.5c6.8,5.6,23.2-10.9,16.6-22.2C-247.9,256-266.6,280.9-259.8,286.5"/>
		<path id="path267" class="st3" d="M-279.6,321c-15.8-13.2-34.5,14.2-21.8,28C-288.7,362.8-258.8,338.2-279.6,321"/>
		<path id="path268" class="st4" d="M-298.3,346.1c6.3,5.1,20.8-9.6,14.8-20C-288,318.6-304.6,341-298.3,346.1"/>
		<path id="path269" class="st3" d="M-332,375.3c-15.8-13.1-34.5,14.3-21.8,28C-341,417.1-311.2,392.6-332,375.3"/>
		<path id="path270" class="st4" d="M-350.7,400.5c6.3,5.1,20.8-9.6,14.8-20C-340.4,373-357,395.3-350.7,400.5"/>
		<path id="path271" class="st3" d="M-250.7,342c13.4,13.2,43.2-11.2,23.6-29.9C-245.8,294.3-258.3,334.6-250.7,342"/>
		<path id="path272" class="st4" d="M-246.3,337.7c6.3,5.1,21.3-10.1,15.3-20.4C-235.4,309.8-252.6,332.6-246.3,337.7"/>
		<path id="path273" class="st2" d="M-258.3,388.9c9.8,15.8,46.3,1,31.9-21.4C-240.2,346-263.8,380-258.3,388.9"/>
		<path id="path274-0" class="st4" d="M-252.7,386.1c4.9,6.4,24.1-3.7,20.9-14.9C-234.1,363.1-257.6,379.7-252.7,386.1"/>
		<path id="path275" class="st2" d="M-249.2,430.5c8.4,13.5,37.8,1.7,27.2-18.4C-228.8,399.3-253.9,422.9-249.2,430.5"/>
		<path id="path276-5" class="st4" d="M-246,429.6c4.7,6.2,23.3-3.6,20.2-14.4C-228,407.3-250.7,423.4-246,429.6"/>
		<path id="path277" class="st2" d="M-208.3,450.3c8.4,13.5,37.8,1.7,27.2-18.4C-187.8,419.1-213,442.7-208.3,450.3"/>
		<path id="path278-0" class="st4" d="M-205.1,449.4c4.7,6.2,23.3-3.6,20.2-14.4C-187.1,427.1-209.8,443.2-205.1,449.4"/>
		<path id="path279" class="st2" d="M-260.1,471.8c8,12.9,36.3,1.6,26.1-17.6C-240.5,441.8-264.6,464.5-260.1,471.8"/>
		<path id="path280-5" class="st4" d="M-256.5,470.5c4.3,5.7,21.5-3.3,18.7-13.3C-239.9,449.9-260.9,464.8-256.5,470.5"/>
		<path id="path281" class="st2" d="M-306,493c7.9,12.7,35.5,1.6,25.6-17.2C-286.8,463.7-310.5,485.9-306,493"/>
		<path id="path282-7" class="st4" d="M-302.4,491.8c4.1,5.5,20.5-3.1,17.8-12.7C-286.5,472.1-306.5,486.3-302.4,491.8"/>
		<path id="path283" class="st2" d="M-403.3,497c7.9,12.7,40.4-1.4,25.6-17.2C-389.4,467.2-407.8,489.9-403.3,497"/>
		<path id="path284-4" class="st4" d="M-399.7,495.7c4.1,5.5,23.8-4.8,18-13.6C-385.7,475.8-403.8,490.2-399.7,495.7"/>
		<path id="path285" class="st4" d="M-435.6,500.7c4.1,5.5,20.5-1.2,13.1-8.9C-434.4,479.1-439.8,495.2-435.6,500.7"/>
		<path id="path286-8" class="st2" d="M-306.7,401.8c9.8,15.7,46.3,1,31.9-21.5C-288.6,358.9-312.2,392.9-306.7,401.8"/>
		<path id="path287" class="st4" d="M-297.9,398.4c4.4,6,21.8-3.7,19-14.2C-280.9,376.5-302.2,392.4-297.9,398.4"/>
		<path id="path288" class="st2" d="M-351.5,452.9c9.8,15.7,46.3,1,31.9-21.5C-333.4,410-357,444-351.5,452.9"/>
		<path id="path289" class="st4" d="M-342.7,449.5c4.4,6,21.8-3.7,19-14.2C-325.7,427.7-347,443.5-342.7,449.5"/>
		<path id="path290" class="st2" d="M-302.7,440.2c3.6,14.7,35.9,8.7,30.4-12.4C-277.6,407.7-304.7,431.9-302.7,440.2"/>
		<path id="path291" class="st4" d="M-297.6,439.9c2.1,6.4,20.1,0.8,20.7-9.6C-276.5,422.8-299.7,433.5-297.6,439.9"/>
		<path id="path292" class="st2" d="M-356.4,493.2c3.6,14.7,35.9,8.7,30.4-12.4C-331.3,460.7-358.5,484.9-356.4,493.2"/>
		<path id="path293" class="st4" d="M-350.4,492.7c2.2,6.8,21.4,0.8,22-10.2C-328,474.5-352.7,485.9-350.4,492.7"/>
		<path id="path294" class="st2" d="M-177.5,296.7c-15.8-13.2-34.5,14.2-21.8,28C-186.5,338.5-156.7,314-177.5,296.7"/>
		<path id="path295-0" class="st4" d="M-196.7,322.4c6.3,5.1,21.3-10.1,15.3-20.4C-185.9,294.4-203,317.3-196.7,322.4"/>
		<path id="path296" class="st2" d="M-178.5,344.7c-15.8-13.2-33.9,19.7-24.9,29.8C-190.9,388.4-157.7,362-178.5,344.7"/>
		<path id="path297-6" class="st4" d="M-197.3,368.6c6.3,5.1,20.9-8.3,14.8-18.7C-186.9,342.4-203.6,363.5-197.3,368.6"/>
		<path id="path298" class="st3" d="M-328.2,317.4c-15.8-13.2-34.5,14.2-21.8,28C-337.2,359.2-307.4,334.7-328.2,317.4"/>
		<path id="path299-0" class="st4" d="M-345,343.8c5.7,4.7,19.5-9.1,13.9-18.6C-335.1,318.2-350.7,339.1-345,343.8"/>
		<path id="path300" class="st3" d="M-369.4,320.7c-16.5-12.4-33.3,16.3-19.9,29.4C-375.9,363.2-347.8,336.9-369.4,320.7"/>
		<path id="path301-5" class="st4" d="M-387.5,347.3c6,4.5,19-10.4,12.9-19.7C-379.1,320.8-393.5,342.9-387.5,347.3"/>
		<path id="path302" class="st3" d="M-386.3,370.1c-14.2-10.5-29,13.9-17.4,25.1C-392.1,406.4-367.6,383.9-386.3,370.1"/>
		<path id="path303-9" class="st4" d="M-402.1,392.8c5.2,3.8,16.5-8.9,11.2-16.9C-394.7,370.2-407.3,389.1-402.1,392.8"/>
		<path id="path304" class="st3" d="M-373.1,423.9c-15.9-11.7-32.3,15.5-19.4,28C-379.5,464.3-352.2,439.3-373.1,423.9"/>
		<path id="path305" class="st4" d="M-390.6,449.2c5.8,4.2,18.4-9.9,12.5-18.8C-382.4,424-396.4,445-390.6,449.2"/>
		<path id="path306" class="st3" d="M-422.5,423.2c-18.2-6.5-23.9,25.7-8.1,33.8C-414.7,465.3-398.6,431.7-422.5,423.2"/>
		<path id="path307" class="st4" d="M-429.9,453.9c6.7,2.3,13.2-15.7,5-22.6C-430.9,426.3-436.5,451.7-429.9,453.9"/>
		<path id="path308" class="st2" d="M-465.6,465.6c9.4,12.1,18.3-13.1,4.2-28C-472.1,426.4-474.9,453.5-465.6,465.6"/>
		<path id="path309" class="st4" d="M-462,463.4c4.4,3.6,5.8-11.2-0.2-19.3C-466.6,438.2-466.4,459.9-462,463.4"/>
		<path id="path310" class="st3" d="M-349.3,516.4c-18.5-8.5-38.5,8.8-24.2,13.6C-359.1,535-335.2,522.9-349.3,516.4"/>
		<path id="path311" class="st4" d="M-354.9,519.5c-9.5-3.1-22.5,3.4-17.7,6.4C-367.8,528.9-348,521.7-354.9,519.5"/>
		<path id="path312" class="st3" d="M-288.4,510.5c-19.1-6.4-36.6,13.3-22,16.6C-295.8,530.4-273.9,515.5-288.4,510.5"/>
		<path id="path313" class="st4" d="M-293.5,514.3c-9.6-2-21.6,6.1-16.6,8.5C-305.1,525.3-286.6,515.7-293.5,514.3"/>
		<path id="path314" class="st3" d="M-239.7,491.8c-19.5-2.9-32.4,20.3-17.8,20.8C-242.9,513.2-224.9,494.1-239.7,491.8"/>
		<path id="path315-2" class="st4" d="M-243.8,496.6c-9.6-0.2-19.5,10.1-14.2,11.7C-252.7,509.8-236.9,496.7-243.8,496.6"/>
		<path id="path316" class="st3" d="M-139,474.7c-19-6.6-36.7,12.9-22.2,16.3C-146.6,494.4-124.5,479.7-139,474.7"/>
		<path id="path317-8" class="st4" d="M-142.6,477.6c-11.5-2.5-25.8,7-19.9,10C-156.5,490.6-134.3,479.4-142.6,477.6"/>
		<path id="path318" class="st3" d="M-472.5,410.2c7,13.4,21.1-9,9.9-25.9C-471.1,371.5-479.5,396.8-472.5,410.2"/>
		<path id="path319" class="st4" d="M-468.5,408.8c3.7,4.2,8.1-9.6,3.7-18.4C-468,383.9-472.2,404.5-468.5,408.8"/>
		<path id="path320" class="st3" d="M-460.5,355.2c4.9,14,22.7-5.5,14-23.5C-453,317.9-465.4,341.2-460.5,355.2"/>
		<path id="path321" class="st4" d="M-456.2,354.4c3.1,4.6,9.7-8.1,6.6-17.3C-451.8,330.4-459.3,349.8-456.2,354.4"/>
		<path id="path322" class="st3" d="M-446.5,301.5c4.9,14,22.7-5.5,14-23.5C-439,264.2-451.4,287.5-446.5,301.5"/>
		<path id="path323-3" class="st4" d="M-442.2,300.7c3.1,4.6,9.7-8.1,6.6-17.3C-437.8,276.7-445.3,296-442.2,300.7"/>
		<path id="path324" class="st3" d="M-419.1,281.5c5.6,16.7,25.4-6.7,15.7-28.2C-410.9,237.1-424.7,264.9-419.1,281.5"/>
		<path id="path325-7" class="st4" d="M-414.3,280.6c3.5,5.5,10.9-9.7,7.4-20.7C-409.5,251.9-417.8,275-414.3,280.6"/>
		<path id="path326" class="st3" d="M-412.6,231.5c5.6,16.7,25.4-6.7,15.7-28.2C-404.4,187-418.3,214.8-412.6,231.5"/>
		<path id="path327-6" class="st4" d="M-407.9,230.5c3.5,5.5,10.9-9.7,7.4-20.7C-403,201.8-411.3,225-407.9,230.5"/>
		<path id="path328" class="st3" d="M-386.2,203.2c3.8,17.9,28.9-3.5,21.2-27C-370.7,158.3-389.9,185.2-386.2,203.2"/>
		<path id="path329-2" class="st4" d="M-380.8,202.8c3,6.2,13.3-8.5,11.1-20.3C-371.3,173.9-383.8,196.6-380.8,202.8"/>
		<path id="path330" class="st3" d="M-372.1,152.9c2.4,18.1,27-4,26.7-21.8C-345.8,113.2-375.3,129-372.1,152.9"/>
		<path id="path331-9" class="st4" d="M-366.1,147.8c0,8.5,16.9-10.9,15.1-17.4C-352.8,124-366.1,136.1-366.1,147.8"/>
		<path id="path332" class="st3" d="M-332.3,141.9c2.8,21.2,30.3-0.6,29.9-21.4C-302.7,99.6-335.9,114-332.3,141.9"/>
		<path id="path333" class="st4" d="M-326.4,140c0,9.9,19.8-12.7,17.6-20.3C-310.9,112.2-326.4,126.3-326.4,140"/>
		<path id="path334" class="st2" d="M-283.6,133c4.4,14.9,34-2.4,30.2-23.4C-256.8,91.1-290.6,109.3-283.6,133"/>
		<path id="path335" class="st4" d="M-277.6,127c-1.7,9.6,22.1-9,21.3-16.6C-257.2,102.7-275.2,113.8-277.6,127"/>
		<path id="path336-8" class="st3" d="M-234.2,127.3c-0.8,14.8,34.3,9,37.8-11C-193.3,98.5-233,103.8-234.2,127.3"/>
		<path id="path337" class="st4" d="M-226.3,123.9c-5,8,25-0.8,26.8-7.9C-197.7,108.9-219.4,112.8-226.3,123.9"/>
		<path id="path338-5" class="st2" d="M-256.9,76.4c-2.3,10.9,33.7,11.2,39.3-3.3C-212.6,60.3-253.2,59-256.9,76.4"/>
		<path id="path339" class="st4" d="M-248.5,74.9c-5.9,5.3,25.2,2.6,27.8-2.4C-218.2,67.4-240.4,67.6-248.5,74.9"/>
		<path id="path340" class="st3" d="M-306.5,95.7c1,11.5,34.3,2,35.4-14C-270.2,67.5-308,77.3-306.5,95.7"/>
		<path id="path341" class="st4" d="M-299.2,91.9c-3.9,6.9,24.1-4.3,25-10C-273.3,76.2-293.8,82.4-299.2,91.9"/>
		<path id="path342" class="st3" d="M-332.5,64c-1.6,8,30.2,7.1,34.6-3.5C-294,51.1-329.9,51.3-332.5,64"/>
		<path id="path343" class="st4" d="M-325.1,62.7c-5,4,22.4,1.2,24.5-2.6C-298.6,56.4-318.3,57.2-325.1,62.7"/>
		<path id="path344-9" class="st3" d="M-276.7,52.2c-2.6,7.7,29.1,10.8,34.8,0.8C-236.9,44.1-272.6,39.9-276.7,52.2"/>
		<path id="path345" class="st4" d="M-269.2,51.7c-5.4,3.4,22.1,4,24.6,0.5C-242.2,48.8-261.7,47.1-269.2,51.7"/>
		<path id="path346" class="st3" d="M-355.9,104.2c2.9,11.5,33.4-3.7,31.7-20C-325.8,69.8-360.6,86-355.9,104.2"/>
		<path id="path347" class="st4" d="M-349.6,99.2c-2.6,7.6,22.5-8.2,22.4-14.2C-327.3,79.1-346,88.7-349.6,99.2"/>
		<path id="path348" class="st3" d="M-409,171.3c7.1,10.1,27.7-16.2,19.7-31.4C-396.4,126.4-420.3,155.3-409,171.3"/>
		<path id="path349" class="st4" d="M-405.4,164c0.8,8.4,16.3-16.5,13.9-22.3C-394,136-406.5,152.4-405.4,164"/>
		<path id="path350" class="st3" d="M-393,118.8c2.8,10.2,26.9-7.2,24.8-22C-370,83.7-397.5,102.5-393,118.8"/>
		<path id="path351-2" class="st4" d="M-388,113.5c-1.8,7.3,17.9-10.2,17.5-15.6C-370.8,92.3-385.6,103.4-388,113.5"/>
		<path id="path352-5" class="st3" d="M-426.8,208.4c7.2,8.4,18.7-19.2,9.9-32.2C-424.6,164.6-438.3,195.1-426.8,208.4"/>
		<path id="path353-5" class="st4" d="M-425.2,201.1c2,7.7,9.8-17.8,6.9-22.9C-421.2,173.2-428,190.4-425.2,201.1"/>
		<path id="path354" class="st3" d="M-435.9,256.6c7.2,8.4,18.7-19.2,9.9-32.2C-433.8,212.8-447.4,243.3-435.9,256.6"/>
		<path id="path355-9" class="st4" d="M-434.4,249.3c2,7.7,9.8-17.8,6.9-22.9C-430.4,221.4-437.2,238.6-434.4,249.3"/>
		<path id="path356" class="st3" d="M-414.6,325.2c-14.5-8.7-21.8,18.6-9.3,28.4C-411.5,363.5-395.5,336.6-414.6,325.2"/>
		<path id="path357-1" class="st4" d="M-420.5,351.2c5.3,3.1,12.2-11.6,5.9-19C-419.1,326.8-425.8,348.1-420.5,351.2"/>
		<path id="path358" class="st3" d="M-442.9,402.9c10.4,14.1,28.2-12.6,11.7-30.2C-443.7,359.4-453.3,388.7-442.9,402.9"/>
		<path id="path359-1" class="st4" d="M-437.9,400.7c5,4.3,11-11.8,5-21.3C-437.3,372.6-442.9,396.4-437.9,400.7"/>
		<path id="path360" class="st2" d="M-197.1,193.3c-17.2-14.3-39.5,18.1-25.7,33.1C-208.9,241.5-174.4,212.2-197.1,193.3"/>
		<path id="path361-4" class="st4" d="M-218,221.2c6.8,5.6,23.2-10.9,16.6-22.2C-206.1,190.8-224.8,215.7-218,221.2"/>
		<path id="path362" class="st3" d="M-203.1,273.5c11.8,16.5,48.5-4.8,28.4-26.3C-189.9,230.9-214.9,257-203.1,273.5"/>
		<path id="path363-4" class="st4" d="M-199.9,271.4c6.1,6.3,25-7.3,20-19.2C-183.5,243.5-206,265-199.9,271.4"/>
		<path id="path364" class="st2" d="M-152.2,258.2c11.8,16.5,48.5-4.8,28.4-26.3C-139.1,215.6-164,241.7-152.2,258.2"/>
		<path id="path365-2" class="st4" d="M-149,256.1c6.1,6.3,25-7.3,20-19.2C-132.6,228.2-155.1,249.7-149,256.1"/>
		<path id="path366" class="st2" d="M-147.6,312.8c9.7,10.8,40.9-8.4,28.4-27.4C-130.3,268.4-160.5,298.5-147.6,312.8"/>
		<path id="path367-6" class="st4" d="M-141.9,307.3c3.9,6.6,20.4-5.6,17.9-17.5C-125.7,281.1-145.9,300.6-141.9,307.3"/>
		<path id="path368" class="st2" d="M-149.9,360.3c7.8,12.1,42.8-1,33.6-21.4C-124.4,320.7-160.2,344.3-149.9,360.3"/>
		<path id="path369-3" class="st4" d="M-143.2,356c2.8,7.1,21.5-1.8,21.3-13.7C-122.1,333.6-145.9,348.9-143.2,356"/>
		<path id="path370" class="st2" d="M-149,416.8c8.1,10.5,36.8-7.1,26.7-25.4C-131.3,375.2-159.6,403-149,416.8"/>
		<path id="path371-6" class="st4" d="M-143.6,411.7c3.2,6.4,18.4-4.8,16.9-16.2C-127.9,387.3-146.8,405.4-143.6,411.7"/>
		<path id="path372" class="st2" d="M-197.1,413.3c7.1,11,37.7-3.6,29.3-22.5C-175.3,373.9-206.5,398.7-197.1,413.3"/>
		<path id="path373-9" class="st4" d="M-193,407.8c2.6,6.5,19-3.1,18.5-14.4C-174.8,385.1-195.6,401.2-193,407.8"/>
		<path id="path374" class="st2" d="M-92.4,294.2c12.9,16.7,39.6-13.4,18.8-34.3C-89.4,244-105.3,277.5-92.4,294.2"/>
		<path id="path375-1" class="st4" d="M-90.1,291.3c6.3,6.2,19.5-12.4,13.1-25C-81.6,257.2-96.4,285.1-90.1,291.3"/>
		<path id="path376" class="st2" d="M-102.1,369.6c5.2,19.6,43.9,5.1,33-21.3C-77.4,328.2-107.3,350.1-102.1,369.6"/>
		<path id="path377-0" class="st4" d="M-97.9,369c4.5,7.4,23-6.2,20.2-19.5C-79.7,339.8-102.4,361.6-97.9,369"/>
		<path id="path378" class="st2" d="M-59.3,322.6c7.7,17.6,36.5-4.6,22.9-27.6C-46.6,277.6-67,304.9-59.3,322.6"/>
		<path id="path379-4" class="st2" d="M-55.9,321.1c5,6.1,17.5-10.8,12.8-23.1C-46.5,289.2-60.9,315-55.9,321.1"/>
		<path id="path380" class="st3" d="M-53.6,369.5c5.8,18.1,37.3-0.6,26.2-24.5C-35.8,326.8-59.4,351.4-53.6,369.5"/>
		<path id="path381" class="st4" d="M-50.1,368.4c4.3,6.5,18.9-8.8,15.6-21.2C-36.9,338.2-54.4,361.9-50.1,368.4"/>
		<path id="path382" class="st3" d="M-50.8,416.9c5.8,18.1,37.3-0.6,26.2-24.5C-32.9,374.2-56.5,398.8-50.8,416.9"/>
		<path id="path383" class="st4" d="M-47.2,415.8c4.3,6.5,18.9-8.8,15.6-21.2C-34.1,385.6-51.6,409.3-47.2,415.8"/>
		<path id="path384" class="st2" d="M-103.6,415.8c2.9,18.4,37.8,5.2,30.4-19.7C-78.8,377.2-106.5,397.4-103.6,415.8"/>
		<path id="path385" class="st4" d="M-99.9,415.3c3.3,7,20.5-5.6,19.1-18.1C-81.7,388-103.2,408.3-99.9,415.3"/>
		<path id="path386" class="st3" d="M-160.7,457c-1.2,16.4,30,6.8,28.8-15.6C-132.8,424.3-159.6,440.5-160.7,457"/>
		<path id="path387" class="st4" d="M-156.3,456.3c3.1,6.6,19.3-5.2,18-17.1C-139.2,430.6-159.4,449.7-156.3,456.3"/>
		<path id="path388" class="st3" d="M-115.8,458.5c-1.2,16.4,32.6,6.9,28.8-15.6C-89.8,425.6-114.6,442.1-115.8,458.5"/>
		<path id="path389" class="st4" d="M-111.3,457.9c3.1,6.6,19.3-5.3,18.1-17.1C-94.2,432.2-114.5,451.3-111.3,457.9"/>
		<path id="path390" class="st3" d="M-67.5,455.4c-2.9,16,31.2-1.5,30.7-12.4C-37.7,426-64.6,439.4-67.5,455.4"/>
		<path id="path391" class="st4" d="M-63.8,456c2.5,6.8,20-3.2,20-15C-43.9,432.5-66.3,449.3-63.8,456"/>
		<path id="path392" class="st3" d="M-221.9,486.2c-5,15.3,31.7,2.3,32.5-8.4C-188.1,461-217,470.9-221.9,486.2"/>
		<path id="path393" class="st4" d="M-218.3,487.2c1.6,6.9,20.6-0.7,22.1-12.2C-195.2,466.7-219.9,480.3-218.3,487.2"/>
		<path id="path394" class="st3" d="M-40.5,220.8c-15.8-13.2-23,21.1-9.4,35.5C-36.3,270.6-19.7,238.2-40.5,220.8"/>
		<path id="path395" class="st4" d="M-48.5,252.7c6.7,4.1,11.1-17.1,2.3-27.3C-52.6,218-55.2,248.5-48.5,252.7"/>
		<path id="path396" class="st3" d="M-11.3,309.6c13.6,14.3,19-26,9.4-35.4C-16.7,259.8-24.9,295.3-11.3,309.6"/>
		<path id="path397" class="st4" d="M-9.8,306c6.7,4.1,11.1-17.1,2.3-27.3C-14,271.3-16.6,301.9-9.8,306"/>
		<path id="path398" class="st3" d="M-5.5,367.1c11.4,16,23.4-22.2,15.2-32.8C-2.8,318.2-16.9,351.2-5.5,367.1"/>
		<path id="path399" class="st4" d="M-3.5,363.9c6.1,5.1,14-14.8,6.7-26C-2,329.7-9.6,358.9-3.5,363.9"/>
		<path id="path400" class="st3" d="M-152,197.6c11.8,16.5,48.5-4.8,28.4-26.3C-138.9,155-163.8,181-152,197.6"/>
		<path id="path401" class="st4" d="M-148.8,195.4c6.1,6.3,25-7.3,20-19.2C-132.4,167.6-154.9,189.1-148.8,195.4"/>
		<path id="path402" class="st3" d="M-89,191.6c-20.9-6.3-24.7,30.9-6.3,39.4C-76.9,239.4-61.5,200-89,191.6"/>
		<path id="path403-5" class="st4" d="M-90.1,198.9c-7.7-5.8-12.3,26-4,28.4C-85.9,229.7-79.5,206.9-90.1,198.9"/>
		<path id="path404" class="st3" d="M-190.8,161.5c7.7,18.3,49.8,7,35-17.9C-167,124.6-198.5,143.2-190.8,161.5"/>
		<path id="path405-8" class="st4" d="M-187,160.2c4.5,7.4,26.9-0.9,24.9-13.3C-163.6,138-191.6,152.8-187,160.2"/>
		<path id="path406" class="st3" d="M-173.9,119.6c9.1,13.2,49.6,10.8,32.9-7.7C-153.7,97.9-183,106.4-173.9,119.6"/>
		<path id="path407-2" class="st4" d="M-170.3,119.2c5.1,5.5,26.4,2.6,23.3-5.9C-149.2,107.2-175.4,113.7-170.3,119.2"/>
		<path id="path408" class="st3" d="M-106.7,133.1c-20.2-14.6-18.7,25.5-4.6,33.2C-97.1,174-91.3,144.2-106.7,133.1"/>
		<path id="path409-1" class="st4" d="M-107.6,139.2c-8.9-2.2-9.7,19.1-3.6,23.6C-105.2,167.2-101.2,140.8-107.6,139.2"/>
		<path id="path410" class="st3" d="M-63.8,172.8c-23.1-8.2-8.6,31.1,6.7,34.3C-41.7,210.3-46.2,179-63.8,172.8"/>
		<path id="path411-6" class="st4" d="M-62.6,179.1c-8.7,0.6-2.5,22,4.4,24.5C-51.3,206.1-56.3,178.7-62.6,179.1"/>
		<path id="path412" class="st3" d="M-16.3,228.9c-21.3-9.7-4.4,27.6,9.5,32C7.1,265.3-0.1,236.2-16.3,228.9"/>
		<path id="path413-0" class="st4" d="M-14.6,234.7c-7.7-0.3,0.1,19.8,6.5,22.8C-1.8,260.5-9.1,234.9-14.6,234.7"/>
		<path id="path414" class="st2" d="M-201.3,93.2c7.8,12,43.3,9.1,28.9-7.6C-183.3,72.9-209.1,81.2-201.3,93.2"/>
		<path id="path415-8" class="st2" d="M-198.1,92.8c4.4,5,23.1,2,20.5-5.8C-179.5,81.4-202.5,87.8-198.1,92.8"/>
		<path id="path416" class="st3" d="M-343.7,195.8c15.5,12.9,41.2-18.1,25.8-33.7C-330.1,149.7-355.4,186.1-343.7,195.8"/>
		<path id="path417-4" class="st4" d="M-338.4,193.1c3.1,7,17.8-6.6,16.3-19.4C-323.1,164.5-341.5,186.1-338.4,193.1"/>
		<path id="path418" class="st3" d="M-349.6,212.3c-14.6-9.5-30.4,31.1-17,38.1C-348.9,259.5-331.2,224.2-349.6,212.3"/>
		<path id="path419-7" class="st4" d="M-362.3,246.3c4.6,6.2,15-10.9,10.4-23.3C-355.2,214-367,240.1-362.3,246.3"/>
		<path id="path420" class="st3" d="M-341.3,261.2c-16.4-6.1-22,38.4-7.4,42.2C-329.4,308.5-320.8,268.9-341.3,261.2"/>
		<path id="path421-8" class="st4" d="M-345.5,298.4c6,5.2,11.9-14.5,4.5-25.9C-346.4,264.3-351.5,293.2-345.5,298.4"/>
		<path id="path422" class="st3" d="M-380.7,263.3c-14.4-5.6-18.9,34.1-6.1,37.6C-370,305.6-362.7,270.2-380.7,263.3"/>
		<path id="path423-1" class="st4" d="M-384.1,296.5c5.2,4.7,10.3-12.9,3.8-23.1C-385.1,266-389.4,291.8-384.1,296.5"/>
		<path id="path424" class="st5" d="M8.3,164c-19.6-5.2-47.3-14.6-63.3-15.1c10.4-8.1,27.5-15.2,32.2-27
			c13.8-34.8,3.1-97.1-3.6-98.2c-4.1-0.7-17,24.6-52.1,38.6c-22.2,8.8-33.8,33.4-41.7,42.9c-3.5-10.5-7-38.9-15.7-48.8
			c-32.9-37.5-11.5-63.6-13.7-67.7c-1.8-3.3-35.4,9.8-49.4,39.4c-10.2,21.7-8,44.3,5.1,70.8c-6.7-4-13.7-7.2-20.8-8.9
			c-45.5-11.3-95,27.8-93.9,31.8c0.9,3.1,18.8-3.6,70.4,41.8c17.1,15,30.6,15.2,39.7,17.3c-6.8,7-16.5,19.2-23.5,35.6
			c-10.8,25.1-17.6,71.5-16,73.7c2,2.9,70.4,10.7,108.9-36.2c1.3-1.7,2.6-3.3,3.8-4.9c9.2,22.2,27.3,42.8,53,56.5
			c29.2,15.6,27.6,35.8,31,37.3c3.3,1.5,25.5-52.3,16.2-85c-2.9-10.3-8.3-20.3-15-29.4c14.5,2.5,30.1,2.4,44.4-3.3
			c45.8-18.2,66-70.5,61.3-74.9C61.7,146.3,40.5,172.5,8.3,164"/>
		<path id="path425-7" class="st6" d="M-38.8,200.7c-19.5-21.4,2.8-42,30.8-41.3c0,0-31-10.4-43.9-8.8
			c-12.9,1.5-42.3,14.4-46.2,26.6c-4,12.2,39.8,33.1,39.8,33.1l18.3,18.1c0,0,26.4,8.9,60.1-11.5C20,216.8-16.9,224.7-38.8,200.7"/>
		<path id="path426" class="st7" d="M-26.6,154c-9-2.3-19.2-4.2-25.3-3.5c-1.4,0.2-3.1,0.5-4.9,0.9l-36.8,14.1
			c-1.6,1.7-24.3,8.4-25,10.1c7.1,5.9,48.6,24,60.3,34.6c14.4,12.9,18.3,18.1,18.3,18.1s-22-30.1-17.7-50.7
			C-54.9,164.2-38,156.3-26.6,154"/>
		<path id="path427-0" class="st6" d="M-134,58.8c0.7,3.1,9.6,43.9-21.1,41.1c-24.2-2.2-43.2-25.6-50.3-44.1
			c0,13.1,3.7,26.9,11.1,42l0.5,0.6c0,0,18.2,9.6,27.3,16.3c9.1,6.7,43,52.5,43,52.5c5.1-0.3,9.4-4.2,14.2-6.6l-2.7-59.1
			C-112.8,85.1-124.1,70.3-134,58.8"/>
		<path id="path428" class="st6" d="M-117.9,169.9c-26.6-23-72.8,4.5-84.5,14.9c-11.8,10.4-23.1,41.3-23.1,41.3s37.7-44.2,68.9-20.9
			c26.1,19.4,9.1,63.8-1.4,71.8c0,0,20.7-10.2,32.8-28.2C-125.2,248.8-91.3,192.9-117.9,169.9"/>
		<path id="path429-4" class="st8" d="M-83.4,120.6c-21.3-15.4-7-45.6-1.9-55c-17.8,10.6-26.8,23.2-33.1,35.8
			c-3.3,6.6-6.7,15.5-7.7,21.1c-1.9,10.6,0.8,35.2,15.9,43c14.3,7.3,54.2-13.6,54.2-13.6s11.7-6.2,16.2-10.3
			c6.7-6.8,13.6-11,17-19.7c4.7-11.8,6.5-26.7,6.7-41.3C-25.2,102.4-59.8,137.7-83.4,120.6"/>
		<path id="path430" class="st8" d="M-113,178.2c-29.5,11.8-19.4,49.4-12.2,70.7c7.1,21.2,26.6,38.7,44.9,52.5
			c0,0-26.8-32.8-26.1-63.5c0.7-30.8,34.1-40.3,66.3-9.5C-40.1,228.3-85.4,167.1-113,178.2"/>
		<path id="path431-6" class="st8" d="M-194.3,98.4c0,0,45.5,21.4,24.3,44.9c-19.4,21.6-87.4,2.5-87.4,2.5s10.1,14.4,33.8,29.4
			c23.7,15.1,87.9,27.2,96.3-4.3C-115.9,129.2-194.3,98.4-194.3,98.4"/>
		<path id="path432" class="st9" d="M-68.5,76.7c-12.9,11-3.4,39.9,21.8,26.3c25.2-13.6,19-66.7,19-66.7S-55.6,65.7-68.5,76.7"/>
		<path id="path433-9" class="st9" d="M-162.2,4.1c-11.6,12.2-17.1,23.2-18.7,35.3c-1.6,12.1,0.9,30.2,16.2,34.8
			c15.3,4.6,11.4-14.6,2.9-29C-170.3,30.8-162.2,4.1-162.2,4.1"/>
		<path id="path434" class="st9" d="M0.9,177.4c-10.8,6.2-10.9,21.9,8,25.3c18.9,3.4,45-34.3,45-34.3
			C21.3,184.4,11.7,171.3,0.9,177.4"/>
		<path id="path435-5" class="st9" d="M-88,260.6c12.5,18,32.9,25,49.3,62.3c0,0-9.4-62.7-29.5-83C-88.4,219.5-100.5,242.6-88,260.6
			"/>
		<path id="path436" class="st9" d="M-231.4,100.3c-30.1-2.1-52.5,16.3-52.5,16.3s13.4-3.8,37.2-2.8c23.8,0.9,57.9,20.9,59.3,10.2
			C-185.7,111.9-201.4,102.4-231.4,100.3"/>
		<path id="path437-3" class="st9" d="M-213.8,232.9c-13.3,24.3-9.2,46-9.2,46s12-19,23.8-33.2c13.4-16.2,31.7-27.8,24.9-36.2
			C-182.3,199.7-200.6,208.6-213.8,232.9"/>
		<path id="path438" class="st7" d="M-212.5,122.8l-0.7-0.2L-212.5,122.8"/>
		<path id="path439-2" class="st7" d="M-209.7,123.7c-0.8-0.3-1.6-0.5-2.3-0.7C-211,123.3-210.1,123.6-209.7,123.7"/>
		<path id="path440" class="st7" d="M-212,123l-0.5-0.2L-212,123"/>
		<path id="path441-9" class="st7" d="M-209.4,123.8l-0.2-0.1L-209.4,123.8"/>
		<path id="path442" class="st7" d="M-209.3,123.8l-0.1,0L-209.3,123.8"/>
		<path id="path443-4" class="st7" d="M-213.2,122.6l-0.6-0.2L-213.2,122.6"/>
		<path id="path444" class="st7" d="M-182.6,104.2c-4.1-2.2-8.1-4.2-11.6-5.8C-194.3,98.4-189.5,101.2-182.6,104.2"/>
		<path id="path445" class="st7" d="M-217.5,121.3C-219.3,120.7-218.9,120.9-217.5,121.3"/>
		<path id="path446" class="st7" d="M-216.9,121.5l-0.6-0.2L-216.9,121.5"/>
		<path id="path447" class="st7" d="M-213.8,122.4c-0.6-0.2-1.2-0.4-1.7-0.5C-215,122.1-214.4,122.2-213.8,122.4"/>
		<path id="path448" class="st7" d="M-48.5,77.2C-70,96.7-89.7,126.7-100.6,135c-6.5,5-19.6,5.9-23.8-4
			c-5.2-12.2,10.6-39.2,10.6-39.2c0.3-4.8-5.1-11.8-5.1-11.8s-4.9,21-23.7,29.3c-11.7,5.1-28.8-0.4-40.1-5.3
			c15.3,8.3,32.7,20.1,39.6,26.5c8.8,8.2,15.7,21.3,10.1,24c-5.6,2.7-13.2-0.7-33.8-14.5c-20.6-13.8-42.5-16.4-42.5-16.4
			c21.1,6.5,31.8,16,45.7,27.8c13.9,11.8,13.4,32.5,6.5,33.4c-23.4,2.9-45.3-0.2-45.3-0.2s15.1,5.9,32.5,7.6
			c17.4,1.7,34.1-3.4,34.1-3.4s-3.7,8.5-1.8,21.5c1.9,13,12.4,38.2,12.4,38.2s-6.9-30.9-1.4-43.9c4.1-9.9,16.1-12,25.8-3.9
			c9.7,8.1,29.3,30.7,36.3,42.3c7,11.7,12.6,23.4,12.6,23.4s-0.3-16.4-14.1-37.3c-13.8-20.9-27-27.9-24.9-37.2
			c2.1-9.3,17.3-1,17.3-1l-8.2-23.6c0,0,22.2-9,13.6-11.9c-8.6-2.9-15.4-16.5-13.5-24.8C-78.2,116.5-51.8,82.2-48.5,77.2"/>
		<path id="path449-1" class="st7" d="M-216.6,121.6l-0.2-0.1L-216.6,121.6"/>
		<path id="path450" class="st7" d="M-215.5,121.9c-0.4-0.1-0.7-0.2-1.1-0.3C-216.3,121.7-215.9,121.8-215.5,121.9"/>
		<path id="path451" class="st5" d="M7.2,70.9c-5.5,1.7-34.8,43.8-75.1,65.8c-24.5,13.4-53.7,23.2-53.7,23.2
			c-8.1,5.6,1.6,14.9,5.6,14.9c4-0.1,29-7.7,56.6-19.5c36.7-15.6,92.5-58.1,93.4-61.9C35,89.5,12.7,69.3,7.2,70.9"/>
		<path id="path452" class="st9" d="M-59.9,135.4c-30.1,18-63.9,28.9-63.9,28.9l1.2,3.6c0,0,42.7-13.1,67.5-28.4
			c40-24.6,72.6-59,72.6-59l-8.4-6C9.1,74.4-29.2,117.1-59.9,135.4"/>
		<path id="path453" class="st6" d="M9.2,71.1l-2-0.2c0,0,12.7,9.3,12.9,17.3c0.3,8.1-27.6,34.1-69.4,55.1c-36,18-66.3,24.6-74,26.1
			c1.9,3,5.4,5.4,7.4,5.4c4-0.1,29-7.7,56.6-19.5c36.7-15.6,92.5-58.1,93.4-61.9C34.9,89.9,16.8,73,9.2,71.1"/>
		<path id="path454" class="st7" d="M-177.2,219.4c-13.8,14.2-29.5,35.4-29.5,35.4s31.2-32.1,47.2-42.6c16-10.5,26.5-14.5,26.5-14.5
			l-1.5-12.9C-134.5,184.7-163.5,205.1-177.2,219.4"/>
	</g>
</g>
</svg>
