<?xml version="1.0" encoding="utf-8"?>
<!-- Generator: Adobe Illustrator 26.0.2, SVG Export Plug-In . SVG Version: 6.00 Build 0)  -->
<svg version="1.1"
	 id="svg1" inkscape:export-filename="cup.svg" sodipodi:docname="play ui.eps" xmlns:inkscape="http://www.inkscape.org/namespaces/inkscape" xmlns:sodipodi="http://sodipodi.sourceforge.net/DTD/sodipodi-0.dtd" xmlns:svg="http://www.w3.org/2000/svg"
	 xmlns="http://www.w3.org/2000/svg" xmlns:xlink="http://www.w3.org/1999/xlink" x="0px" y="0px" viewBox="0 0 300 300"
	 style="enable-background:new 0 0 300 300;" xml:space="preserve">
<style type="text/css">
	.st0{clip-path:url(#SVGID_00000055675254908267252090000006877789143737810574_);fill:#FAB451;}
	.st1{clip-path:url(#SVGID_00000101065212923713387270000006150867495536421049_);fill:#CF8034;}
	.st2{clip-path:url(#SVGID_00000021106922888450341960000004788947052919083392_);fill:#FAB451;}
	.st3{clip-path:url(#SVGID_00000085973152952895443320000009120364915918474417_);fill:#CF8034;}
	.st4{clip-path:url(#SVGID_00000017497896524930267500000008975389527770293915_);fill:#FAB451;}
	.st5{clip-path:url(#SVGID_00000076587446030169191490000001857732204139064506_);fill:#CF8034;}
	.st6{clip-path:url(#SVGID_00000023261181369980387880000000546750800648563844_);fill:#CF8034;}
	.st7{clip-path:url(#SVGID_00000133512153498070477280000000747400833722119857_);fill:#CF8034;}
	.st8{clip-path:url(#SVGID_00000022559918868805812210000004544901957569745074_);fill:#CF8034;}
	.st9{clip-path:url(#SVGID_00000142156482573011296560000017231635593106074294_);fill:#CF8034;}
	.st10{clip-path:url(#SVGID_00000127004922511189412320000012842425131996004235_);fill:#CF8034;}
	.st11{clip-path:url(#SVGID_00000143600834380817348540000014608135650473423246_);fill:#CF8034;}
	.st12{clip-path:url(#SVGID_00000045590561496850219390000002551240158576761731_);fill:#CF8034;}
	.st13{clip-path:url(#SVGID_00000002360047912473152950000000673208854620233089_);fill:#CF8034;}
	.st14{clip-path:url(#SVGID_00000065054897384183188370000016336879995308859570_);fill:#CF8034;}
	.st15{clip-path:url(#SVGID_00000130617836243691175440000000452350419703691668_);fill:#CF8034;}
</style>
<sodipodi:namedview  bordercolor="#000000" borderopacity="0.25" id="namedview1" inkscape:current-layer="layer11" inkscape:cx="1571.4053" inkscape:cy="703.28628" inkscape:deskcolor="#d1d1d1" inkscape:document-units="mm" inkscape:pagecheckerboard="0" inkscape:pageopacity="0.0" inkscape:showpageshadow="2" inkscape:window-height="741" inkscape:window-maximized="0" inkscape:window-width="1328" inkscape:window-x="63" inkscape:window-y="42" inkscape:zoom="0.13650202" pagecolor="#ffffff">
	<inkscape:page  bleed="0" height="600" id="page2" margin="0" width="800" x="0" y="0"></inkscape:page>
</sodipodi:namedview>
<g>
	<defs>
		<path id="SVGID_1_" d="M72.2,290.5c21.9-14.9,52.2-18.8,79.2-19.6c26.8-0.8,57.1,1.7,80.6,13.9c4.7,2.4,10.7-0.9,10.6-5.5
			c-0.4-22.8-7.9-46.4-33.4-57.2c-3.8-1.6-7.7-2.8-11.7-3.6c-2.1-10.8-5.2-21.3-8.2-31.8c-4-13.9-7.5-27.7-10.9-41.8
			c-3.9-16.2-12-38.8-26.4-41.9c-0.4-0.3-0.9-0.4-1.4-0.4c-0.5,0-1,0-1.5,0.1c-0.5,0-0.9,0-1.4,0c-0.5,0-1,0.2-1.4,0.5
			c-13.8,3.6-20.7,25.5-23.9,41.4c-2.8,13.9-5.3,27.7-8.5,41.5c-2.6,11.1-5.3,22.2-7,33.5c-10.2,1.9-19.8,6-27.8,13
			c-16.3,14.1-18,34.1-17.7,52.8C61.5,289.6,67.8,293.5,72.2,290.5L72.2,290.5z"/>
	</defs>
	<clipPath id="SVGID_00000008842521684549093600000006326304792626676138_">
		<use xlink:href="#SVGID_1_"  style="overflow:visible;"/>
	</clipPath>
	<path id="path142" style="clip-path:url(#SVGID_00000008842521684549093600000006326304792626676138_);fill:#FAB451;" d="
		M72.2,290.5c21.9-14.9,52.2-18.8,79.2-19.6c26.8-0.8,57.1,1.7,80.6,13.9c4.7,2.4,10.7-0.9,10.6-5.5c-0.4-22.8-7.9-46.4-33.4-57.2
		c-3.8-1.6-7.7-2.8-11.7-3.6c-2.1-10.8-5.2-21.3-8.2-31.8c-4-13.9-7.5-27.7-10.9-41.8c-3.9-16.2-12-38.8-26.4-41.9
		c-0.4-0.3-0.9-0.4-1.4-0.4c-0.5,0-1,0-1.5,0.1c-0.5,0-0.9,0-1.4,0c-0.5,0-1,0.2-1.4,0.5c-13.8,3.6-20.7,25.5-23.9,41.4
		c-2.8,13.9-5.3,27.7-8.5,41.5c-2.6,11.1-5.3,22.2-7,33.5c-10.2,1.9-19.8,6-27.8,13c-16.3,14.1-18,34.1-17.7,52.8
		C61.5,289.6,67.8,293.5,72.2,290.5"/>
</g>
<g>
	<defs>
		<path id="SVGID_00000036217994897324259920000014404455072166016678_" d="M72.2,290.5c21.9-14.9,52.2-18.8,79.2-19.6
			c26.8-0.8,57.1,1.7,80.6,13.9c4.7,2.4,10.7-0.9,10.6-5.5c-0.4-22.8-7.9-46.4-33.4-57.2c-3.8-1.6-7.7-2.8-11.7-3.6
			c-2.1-10.8-5.2-21.3-8.2-31.8c-4-13.9-7.5-27.7-10.9-41.8c-3.9-16.2-12-38.8-26.4-41.9c-0.4-0.3-0.9-0.4-1.4-0.4
			c-0.5,0-1,0-1.5,0.1c-0.5,0-0.9,0-1.4,0c-0.5,0-1,0.2-1.4,0.5c-13.8,3.6-20.7,25.5-23.9,41.4c-2.8,13.9-5.3,27.7-8.5,41.5
			c-2.6,11.1-5.3,22.2-7,33.5c-10.2,1.9-19.8,6-27.8,13c-16.3,14.1-18,34.1-17.7,52.8C61.5,289.6,67.8,293.5,72.2,290.5L72.2,290.5z
			"/>
	</defs>
	<clipPath id="SVGID_00000041987408446438602650000016099738373954037892_">
		<use xlink:href="#SVGID_00000036217994897324259920000014404455072166016678_"  style="overflow:visible;"/>
	</clipPath>
	<path id="path144" style="clip-path:url(#SVGID_00000041987408446438602650000016099738373954037892_);fill:#CF8034;" d="
		M250.1,273.4c-20.6-12.5-46.6-15.1-71.2-16c-17.3-0.6-34.3-0.2-51.5,1.5c-18,1.8-36,4.3-53.4,8.6c-8.2,2-30.1,7-26.9,17.7
		c0.8,2.8,5.9,3.4,7.4,0.7c4.1-7.5,19.2-9.9,27.7-11.9c16.1-3.7,32.8-6.2,49.3-8c15-1.7,30.1-1.9,45.3-1.7
		c24,0.3,49.7,2.2,71.5,11.5C250.4,276.7,251.8,274.4,250.1,273.4L250.1,273.4"/>
</g>
<g>
	<defs>
		<path id="SVGID_00000026132322157704415480000005148716845440127117_" d="M68.2,243.3c21.9-14.9,52.2-18.8,79.2-19.6
			c26.8-0.8,57.1,1.7,80.6,13.9c4.7,2.4,10.7-0.9,10.6-5.5c-0.4-22.8-7.9-46.4-33.4-57.2c-3.8-1.6-7.7-2.8-11.7-3.6
			c-2.1-10.8-5.2-21.3-8.2-31.8c-4-13.9-7.5-27.7-10.9-41.8c-3.9-16.2-12-38.8-26.4-41.9c-0.4-0.3-0.9-0.4-1.4-0.4
			c-0.5,0-1,0-1.5,0.1c-0.5,0-0.9,0-1.4,0c-0.5,0-1,0.2-1.4,0.5c-13.8,3.6-20.7,25.5-23.9,41.4c-2.8,13.9-5.3,27.7-8.5,41.5
			c-2.6,11.1-5.3,22.2-7,33.5c-10.2,1.9-19.8,6-27.8,13c-16.3,14.1-18,34.1-17.7,52.8C57.5,242.4,63.8,246.3,68.2,243.3L68.2,243.3z
			"/>
	</defs>
	<clipPath id="SVGID_00000019637742561031978550000015742392050174876554_">
		<use xlink:href="#SVGID_00000026132322157704415480000005148716845440127117_"  style="overflow:visible;"/>
	</clipPath>
	<path id="path142-8" style="clip-path:url(#SVGID_00000019637742561031978550000015742392050174876554_);fill:#FAB451;" d="
		M68.2,243.3c21.9-14.9,52.2-18.8,79.2-19.6c26.8-0.8,57.1,1.7,80.6,13.9c4.7,2.4,10.7-0.9,10.6-5.5c-0.4-22.8-7.9-46.4-33.4-57.2
		c-3.8-1.6-7.7-2.8-11.7-3.6c-2.1-10.8-5.2-21.3-8.2-31.8c-4-13.9-7.5-27.7-10.9-41.8c-3.9-16.2-12-38.8-26.4-41.9
		c-0.4-0.3-0.9-0.4-1.4-0.4c-0.5,0-1,0-1.5,0.1c-0.5,0-0.9,0-1.4,0c-0.5,0-1,0.2-1.4,0.5c-13.8,3.6-20.7,25.5-23.9,41.4
		c-2.8,13.9-5.3,27.7-8.5,41.5c-2.6,11.1-5.3,22.2-7,33.5c-10.2,1.9-19.8,6-27.8,13c-16.3,14.1-18,34.1-17.7,52.8
		C57.5,242.4,63.8,246.3,68.2,243.3"/>
</g>
<g>
	<defs>
		<path id="SVGID_00000110472129186372402580000012487078041188237469_" d="M68.2,243.3c21.9-14.9,52.2-18.8,79.2-19.6
			c26.8-0.8,57.1,1.7,80.6,13.9c4.7,2.4,10.7-0.9,10.6-5.5c-0.4-22.8-7.9-46.4-33.4-57.2c-3.8-1.6-7.7-2.8-11.7-3.6
			c-2.1-10.8-5.2-21.3-8.2-31.8c-4-13.9-7.5-27.7-10.9-41.8c-3.9-16.2-12-38.8-26.4-41.9c-0.4-0.3-0.9-0.4-1.4-0.4
			c-0.5,0-1,0-1.5,0.1c-0.5,0-0.9,0-1.4,0c-0.5,0-1,0.2-1.4,0.5c-13.8,3.6-20.7,25.5-23.9,41.4c-2.8,13.9-5.3,27.7-8.5,41.5
			c-2.6,11.1-5.3,22.2-7,33.5c-10.2,1.9-19.8,6-27.8,13c-16.3,14.1-18,34.1-17.7,52.8C57.5,242.4,63.8,246.3,68.2,243.3L68.2,243.3z
			"/>
	</defs>
	<clipPath id="SVGID_00000084527322369034300450000017431956328705597083_">
		<use xlink:href="#SVGID_00000110472129186372402580000012487078041188237469_"  style="overflow:visible;"/>
	</clipPath>
	<path id="path144-2" style="clip-path:url(#SVGID_00000084527322369034300450000017431956328705597083_);fill:#CF8034;" d="
		M246.1,226.3c-20.6-12.5-46.6-15.1-71.2-16c-17.3-0.6-34.3-0.2-51.5,1.5c-18,1.8-36,4.3-53.4,8.6c-8.2,2-30.1,7-26.9,17.7
		c0.8,2.8,5.9,3.4,7.4,0.7c4.1-7.5,19.2-9.9,27.7-11.9c16.1-3.7,32.8-6.2,49.3-8c15-1.7,30.1-1.9,45.3-1.7
		c24,0.3,49.7,2.2,71.5,11.5C246.4,229.6,247.8,227.3,246.1,226.3L246.1,226.3"/>
</g>
<g>
	<defs>
		<path id="SVGID_00000122693017484929799690000006906934721146393757_" d="M68.2,196.5c21.9-14.9,52.2-18.8,79.2-19.6
			c26.8-0.8,57.1,1.7,80.6,13.9c4.7,2.4,10.7-0.9,10.6-5.5c-0.4-22.8-7.9-46.4-33.4-57.2c-3.8-1.6-7.7-2.8-11.7-3.6
			c-2.1-10.8-5.2-21.3-8.2-31.8c-4-13.9-7.5-27.7-10.9-41.8c-3.9-16.2-12-38.8-26.4-41.9c-0.4-0.3-0.9-0.4-1.4-0.4
			c-0.5,0-1,0-1.5,0.1c-0.5,0-0.9,0-1.4,0c-0.5,0-1,0.2-1.4,0.5c-13.8,3.6-20.7,25.5-23.9,41.4c-2.8,13.9-5.3,27.7-8.5,41.5
			c-2.6,11.1-5.3,22.2-7,33.5c-10.2,1.9-19.8,6-27.8,13c-16.3,14.1-18,34.1-17.7,52.8C57.5,195.6,63.8,199.5,68.2,196.5L68.2,196.5z
			"/>
	</defs>
	<clipPath id="SVGID_00000152949334361221244140000000645295735205513896_">
		<use xlink:href="#SVGID_00000122693017484929799690000006906934721146393757_"  style="overflow:visible;"/>
	</clipPath>
	<path id="path142-8-3" style="clip-path:url(#SVGID_00000152949334361221244140000000645295735205513896_);fill:#FAB451;" d="
		M68.2,196.5c21.9-14.9,52.2-18.8,79.2-19.6c26.8-0.8,57.1,1.7,80.6,13.9c4.7,2.4,10.7-0.9,10.6-5.5c-0.4-22.8-7.9-46.4-33.4-57.2
		c-3.8-1.6-7.7-2.8-11.7-3.6c-2.1-10.8-5.2-21.3-8.2-31.8c-4-13.9-7.5-27.7-10.9-41.8c-3.9-16.2-12-38.8-26.4-41.9
		c-0.4-0.3-0.9-0.4-1.4-0.4c-0.5,0-1,0-1.5,0.1c-0.5,0-0.9,0-1.4,0c-0.5,0-1,0.2-1.4,0.5c-13.8,3.6-20.7,25.5-23.9,41.4
		c-2.8,13.9-5.3,27.7-8.5,41.5c-2.6,11.1-5.3,22.2-7,33.5c-10.2,1.9-19.8,6-27.8,13c-16.3,14.1-18,34.1-17.7,52.8
		C57.5,195.6,63.8,199.5,68.2,196.5"/>
</g>
<g>
	<defs>
		<path id="SVGID_00000175317516286857137520000006497074509717394851_" d="M68.2,196.5c21.9-14.9,52.2-18.8,79.2-19.6
			c26.8-0.8,57.1,1.7,80.6,13.9c4.7,2.4,10.7-0.9,10.6-5.5c-0.4-22.8-7.9-46.4-33.4-57.2c-3.8-1.6-7.7-2.8-11.7-3.6
			c-2.1-10.8-5.2-21.3-8.2-31.8c-4-13.9-7.5-27.7-10.9-41.8c-3.9-16.2-12-38.8-26.4-41.9c-0.4-0.3-0.9-0.4-1.4-0.4
			c-0.5,0-1,0-1.5,0.1c-0.5,0-0.9,0-1.4,0c-0.5,0-1,0.2-1.4,0.5c-13.8,3.6-20.7,25.5-23.9,41.4c-2.8,13.9-5.3,27.7-8.5,41.5
			c-2.6,11.1-5.3,22.2-7,33.5c-10.2,1.9-19.8,6-27.8,13c-16.3,14.1-18,34.1-17.7,52.8C57.5,195.6,63.8,199.5,68.2,196.5L68.2,196.5z
			"/>
	</defs>
	<clipPath id="SVGID_00000097463666169004192610000017968918260685206701_">
		<use xlink:href="#SVGID_00000175317516286857137520000006497074509717394851_"  style="overflow:visible;"/>
	</clipPath>
	<path id="path144-2-9" style="clip-path:url(#SVGID_00000097463666169004192610000017968918260685206701_);fill:#CF8034;" d="
		M246.1,179.4c-20.6-12.5-46.6-15.1-71.2-16c-17.3-0.6-34.3-0.2-51.5,1.5c-18,1.8-36,4.3-53.4,8.6c-8.2,2-30.1,7-26.9,17.7
		c0.8,2.8,5.9,3.4,7.4,0.7c4.1-7.5,19.2-9.9,27.7-11.9c16.1-3.7,32.8-6.2,49.3-8c15-1.7,30.1-1.9,45.3-1.7
		c24,0.3,49.7,2.2,71.5,11.5C246.4,182.7,247.8,180.4,246.1,179.4L246.1,179.4"/>
</g>
<g>
	<defs>
		<path id="SVGID_00000086686299596185654090000017234971724888165036_" d="M68.2,196.5c21.9-14.9,52.2-18.8,79.2-19.6
			c26.8-0.8,57.1,1.7,80.6,13.9c4.7,2.4,10.7-0.9,10.6-5.5c-0.4-22.8-7.9-46.4-33.4-57.2c-3.8-1.6-7.7-2.8-11.7-3.6
			c-2.1-10.8-5.2-21.3-8.2-31.8c-4-13.9-7.5-27.7-10.9-41.8c-3.9-16.2-12-38.8-26.4-41.9c-0.4-0.3-0.9-0.4-1.4-0.4
			c-0.5,0-1,0-1.5,0.1c-0.5,0-0.9,0-1.4,0c-0.5,0-1,0.2-1.4,0.5c-13.8,3.6-20.7,25.5-23.9,41.4c-2.8,13.9-5.3,27.7-8.5,41.5
			c-2.6,11.1-5.3,22.2-7,33.5c-10.2,1.9-19.8,6-27.8,13c-16.3,14.1-18,34.1-17.7,52.8C57.5,195.6,63.8,199.5,68.2,196.5L68.2,196.5z
			"/>
	</defs>
	<clipPath id="SVGID_00000183227197070108861040000002825274338721254567_">
		<use xlink:href="#SVGID_00000086686299596185654090000017234971724888165036_"  style="overflow:visible;"/>
	</clipPath>
	<path id="path146-5-9-5" style="clip-path:url(#SVGID_00000183227197070108861040000002825274338721254567_);fill:#CF8034;" d="
		M212.5,124.3c-6.5-0.2-12.8-2.5-19.2-3.5c-6.5-1-13.1-2-19.6-2.6c-13.6-1.3-27.3-2.1-41-2.2c-13.2-0.1-26.6,0.4-39.7,2.3
		c-6.9,1-13.7,2.2-20.5,3.8c-5.6,1.3-12.4,2.6-16.4,6.4c-2.5,2.3-0.4,5.5,2.9,5.7c5.5,0.4,11.3-2.1,16.5-3.3
		c6-1.4,12.1-2.5,18.2-3.4c12.9-1.9,26.1-2.8,39.1-3.1c12.9-0.3,25.8,0.2,38.6,1c6.3,0.4,12.5,0.7,18.8,1.1
		c7.1,0.5,14.9-0.2,21.8,1.5C215,128.8,215.8,124.3,212.5,124.3L212.5,124.3"/>
</g>
<g>
	<defs>
		<path id="SVGID_00000101825159112578409390000016206275922588743845_" d="M68.2,196.5c21.9-14.9,52.2-18.8,79.2-19.6
			c26.8-0.8,57.1,1.7,80.6,13.9c4.7,2.4,10.7-0.9,10.6-5.5c-0.4-22.8-7.9-46.4-33.4-57.2c-3.8-1.6-7.7-2.8-11.7-3.6
			c-2.1-10.8-5.2-21.3-8.2-31.8c-4-13.9-7.5-27.7-10.9-41.8c-3.9-16.2-12-38.8-26.4-41.9c-0.4-0.3-0.9-0.4-1.4-0.4
			c-0.5,0-1,0-1.5,0.1c-0.5,0-0.9,0-1.4,0c-0.5,0-1,0.2-1.4,0.5c-13.8,3.6-20.7,25.5-23.9,41.4c-2.8,13.9-5.3,27.7-8.5,41.5
			c-2.6,11.1-5.3,22.2-7,33.5c-10.2,1.9-19.8,6-27.8,13c-16.3,14.1-18,34.1-17.7,52.8C57.5,195.6,63.8,199.5,68.2,196.5L68.2,196.5z
			"/>
	</defs>
	<clipPath id="SVGID_00000062914726987401552100000003091684397822997183_">
		<use xlink:href="#SVGID_00000101825159112578409390000016206275922588743845_"  style="overflow:visible;"/>
	</clipPath>
	<path id="path148-5-9-3" style="clip-path:url(#SVGID_00000062914726987401552100000003091684397822997183_);fill:#CF8034;" d="
		M167.7,122.5c-6.9-7.9-13.7-14.4-22.9-20.6c-9.5-6.4-19.9-11.6-30.8-15.9C103.8,81.9,93,78.6,82,76.2c-11.1-2.4-23.6-5-35.1-3.4
		c-1.8,0.2-2.2,2.3-0.4,2.8c10.1,3.1,21.1,3.9,31.5,6.2c11.1,2.4,22,5.5,32.6,9.4c20.2,7.5,40.1,18.7,55.5,32.3
		C167,124.3,168.4,123.3,167.7,122.5L167.7,122.5"/>
</g>
<g>
	<defs>
		<path id="SVGID_00000183952023840369682600000005119709659446018438_" d="M68.2,196.5c21.9-14.9,52.2-18.8,79.2-19.6
			c26.8-0.8,57.1,1.7,80.6,13.9c4.7,2.4,10.7-0.9,10.6-5.5c-0.4-22.8-7.9-46.4-33.4-57.2c-3.8-1.6-7.7-2.8-11.7-3.6
			c-2.1-10.8-5.2-21.3-8.2-31.8c-4-13.9-7.5-27.7-10.9-41.8c-3.9-16.2-12-38.8-26.4-41.9c-0.4-0.3-0.9-0.4-1.4-0.4
			c-0.5,0-1,0-1.5,0.1c-0.5,0-0.9,0-1.4,0c-0.5,0-1,0.2-1.4,0.5c-13.8,3.6-20.7,25.5-23.9,41.4c-2.8,13.9-5.3,27.7-8.5,41.5
			c-2.6,11.1-5.3,22.2-7,33.5c-10.2,1.9-19.8,6-27.8,13c-16.3,14.1-18,34.1-17.7,52.8C57.5,195.6,63.8,199.5,68.2,196.5L68.2,196.5z
			"/>
	</defs>
	<clipPath id="SVGID_00000030478544848761765860000002906761969723604661_">
		<use xlink:href="#SVGID_00000183952023840369682600000005119709659446018438_"  style="overflow:visible;"/>
	</clipPath>
	<path id="path150-8-1" style="clip-path:url(#SVGID_00000030478544848761765860000002906761969723604661_);fill:#CF8034;" d="
		M48,80.1c20.6,6.6,42.7,6.7,63.9,11.1c0.1,0,0.1-0.1,0-0.1c-21.2-4.4-43.3-4.5-63.9-11.1C48,79.9,48,80,48,80.1L48,80.1"/>
</g>
<g>
	<defs>
		<path id="SVGID_00000181064790857653955990000014852180926849353629_" d="M68.2,196.5c21.9-14.9,52.2-18.8,79.2-19.6
			c26.8-0.8,57.1,1.7,80.6,13.9c4.7,2.4,10.7-0.9,10.6-5.5c-0.4-22.8-7.9-46.4-33.4-57.2c-3.8-1.6-7.7-2.8-11.7-3.6
			c-2.1-10.8-5.2-21.3-8.2-31.8c-4-13.9-7.5-27.7-10.9-41.8c-3.9-16.2-12-38.8-26.4-41.9c-0.4-0.3-0.9-0.4-1.4-0.4
			c-0.5,0-1,0-1.5,0.1c-0.5,0-0.9,0-1.4,0c-0.5,0-1,0.2-1.4,0.5c-13.8,3.6-20.7,25.5-23.9,41.4c-2.8,13.9-5.3,27.7-8.5,41.5
			c-2.6,11.1-5.3,22.2-7,33.5c-10.2,1.9-19.8,6-27.8,13c-16.3,14.1-18,34.1-17.7,52.8C57.5,195.6,63.8,199.5,68.2,196.5L68.2,196.5z
			"/>
	</defs>
	<clipPath id="SVGID_00000178907676662480166870000007244158858925194409_">
		<use xlink:href="#SVGID_00000181064790857653955990000014852180926849353629_"  style="overflow:visible;"/>
	</clipPath>
	<path id="path152-3-1" style="clip-path:url(#SVGID_00000178907676662480166870000007244158858925194409_);fill:#CF8034;" d="
		M198.5,118.3c-12.2-23.2-34.8-40.6-59.9-53.1c-24.4-12.1-54.4-21-82.8-19.4c-1.4,0.1-1.7,1.9-0.3,2.1c27,5.1,53.3,10.6,78.1,21.5
		c25.8,11.4,47.9,28.4,62.3,50.2C196.9,121.3,199.3,119.9,198.5,118.3L198.5,118.3"/>
</g>
<g>
	<defs>
		<path id="SVGID_00000053539732859048418900000011259202159977856429_" d="M68.2,196.5c21.9-14.9,52.2-18.8,79.2-19.6
			c26.8-0.8,57.1,1.7,80.6,13.9c4.7,2.4,10.7-0.9,10.6-5.5c-0.4-22.8-7.9-46.4-33.4-57.2c-3.8-1.6-7.7-2.8-11.7-3.6
			c-2.1-10.8-5.2-21.3-8.2-31.8c-4-13.9-7.5-27.7-10.9-41.8c-3.9-16.2-12-38.8-26.4-41.9c-0.4-0.3-0.9-0.4-1.4-0.4
			c-0.5,0-1,0-1.5,0.1c-0.5,0-0.9,0-1.4,0c-0.5,0-1,0.2-1.4,0.5c-13.8,3.6-20.7,25.5-23.9,41.4c-2.8,13.9-5.3,27.7-8.5,41.5
			c-2.6,11.1-5.3,22.2-7,33.5c-10.2,1.9-19.8,6-27.8,13c-16.3,14.1-18,34.1-17.7,52.8C57.5,195.6,63.8,199.5,68.2,196.5L68.2,196.5z
			"/>
	</defs>
	<clipPath id="SVGID_00000042720435846572365950000016989337046712929152_">
		<use xlink:href="#SVGID_00000053539732859048418900000011259202159977856429_"  style="overflow:visible;"/>
	</clipPath>
	<path id="path154-7-2" style="clip-path:url(#SVGID_00000042720435846572365950000016989337046712929152_);fill:#CF8034;" d="
		M200.4,75.8c-12.9-20-36.8-32.8-60.6-41.4c-22.5-8.1-50.4-14.1-74.7-9.9c-1.9,0.3-1.8,3.1,0.1,3.3c11.1,1.6,22.4,2.2,33.5,3.9
		c12.3,1.9,24.4,5,36,8.8c24.3,8,44.5,21.7,63,37.2C199.2,79,201.4,77.3,200.4,75.8L200.4,75.8"/>
</g>
<g>
	<defs>
		<path id="SVGID_00000013890553314909588680000017396642918613383811_" d="M68.2,196.5c21.9-14.9,52.2-18.8,79.2-19.6
			c26.8-0.8,57.1,1.7,80.6,13.9c4.7,2.4,10.7-0.9,10.6-5.5c-0.4-22.8-7.9-46.4-33.4-57.2c-3.8-1.6-7.7-2.8-11.7-3.6
			c-2.1-10.8-5.2-21.3-8.2-31.8c-4-13.9-7.5-27.7-10.9-41.8c-3.9-16.2-12-38.8-26.4-41.9c-0.4-0.3-0.9-0.4-1.4-0.4
			c-0.5,0-1,0-1.5,0.1c-0.5,0-0.9,0-1.4,0c-0.5,0-1,0.2-1.4,0.5c-13.8,3.6-20.7,25.5-23.9,41.4c-2.8,13.9-5.3,27.7-8.5,41.5
			c-2.6,11.1-5.3,22.2-7,33.5c-10.2,1.9-19.8,6-27.8,13c-16.3,14.1-18,34.1-17.7,52.8C57.5,195.6,63.8,199.5,68.2,196.5L68.2,196.5z
			"/>
	</defs>
	<clipPath id="SVGID_00000117657139492504257720000002348110733286718647_">
		<use xlink:href="#SVGID_00000013890553314909588680000017396642918613383811_"  style="overflow:visible;"/>
	</clipPath>
	<path id="path156-6-1-6" style="clip-path:url(#SVGID_00000117657139492504257720000002348110733286718647_);fill:#CF8034;" d="
		M141.6,117.2c16-12.4,31.8-25.1,48.2-37.1c8.2-6,16.7-11.5,25.7-16.6c9.2-5.3,19.3-9.4,28.2-15.1c1.4-0.9,0.5-2.7-1.2-2.4
		c-19.9,3.8-38.3,16.6-53.7,27.5c-18.1,12.9-33.2,27.2-48,42.8C140.1,117,140.9,117.7,141.6,117.2L141.6,117.2"/>
</g>
<g>
	<defs>
		<path id="SVGID_00000109731122511963099170000009462907303553531563_" d="M68.2,196.5c21.9-14.9,52.2-18.8,79.2-19.6
			c26.8-0.8,57.1,1.7,80.6,13.9c4.7,2.4,10.7-0.9,10.6-5.5c-0.4-22.8-7.9-46.4-33.4-57.2c-3.8-1.6-7.7-2.8-11.7-3.6
			c-2.1-10.8-5.2-21.3-8.2-31.8c-4-13.9-7.5-27.7-10.9-41.8c-3.9-16.2-12-38.8-26.4-41.9c-0.4-0.3-0.9-0.4-1.4-0.4
			c-0.5,0-1,0-1.5,0.1c-0.5,0-0.9,0-1.4,0c-0.5,0-1,0.2-1.4,0.5c-13.8,3.6-20.7,25.5-23.9,41.4c-2.8,13.9-5.3,27.7-8.5,41.5
			c-2.6,11.1-5.3,22.2-7,33.5c-10.2,1.9-19.8,6-27.8,13c-16.3,14.1-18,34.1-17.7,52.8C57.5,195.6,63.8,199.5,68.2,196.5L68.2,196.5z
			"/>
	</defs>
	<clipPath id="SVGID_00000154391557625352562130000013253226368211540615_">
		<use xlink:href="#SVGID_00000109731122511963099170000009462907303553531563_"  style="overflow:visible;"/>
	</clipPath>
	<path id="path158-1-2-9" style="clip-path:url(#SVGID_00000154391557625352562130000013253226368211540615_);fill:#CF8034;" d="
		M114.5,119.5c8.1-10.3,18.5-20,28.3-29.2c9.1-8.6,19.5-16.2,29.7-23.7c10.2-7.4,20.8-14.4,32.1-20.5c6-3.2,12.2-6.1,18.7-8.5
		c5-1.9,10.9-3.2,15.3-5.9c1.3-0.8,1.2-2.7-0.5-3c-11-2.2-24.5,5.2-33.6,9.8c-12.1,6.1-23.3,13.5-34.1,21.2
		c-10.9,7.8-21.4,15.9-30.9,25c-5.2,5-9.9,10.3-14.3,15.8c-4.7,5.9-8.2,12.2-12.5,18.2C112,119.6,113.8,120.4,114.5,119.5
		L114.5,119.5"/>
</g>
<g>
	<defs>
		<path id="SVGID_00000170973496478128125510000005106025044298897824_" d="M68.2,196.5c21.9-14.9,52.2-18.8,79.2-19.6
			c26.8-0.8,57.1,1.7,80.6,13.9c4.7,2.4,10.7-0.9,10.6-5.5c-0.4-22.8-7.9-46.4-33.4-57.2c-3.8-1.6-7.7-2.8-11.7-3.6
			c-2.1-10.8-5.2-21.3-8.2-31.8c-4-13.9-7.5-27.7-10.9-41.8c-3.9-16.2-12-38.8-26.4-41.9c-0.4-0.3-0.9-0.4-1.4-0.4
			c-0.5,0-1,0-1.5,0.1c-0.5,0-0.9,0-1.4,0c-0.5,0-1,0.2-1.4,0.5c-13.8,3.6-20.7,25.5-23.9,41.4c-2.8,13.9-5.3,27.7-8.5,41.5
			c-2.6,11.1-5.3,22.2-7,33.5c-10.2,1.9-19.8,6-27.8,13c-16.3,14.1-18,34.1-17.7,52.8C57.5,195.6,63.8,199.5,68.2,196.5L68.2,196.5z
			"/>
	</defs>
	<clipPath id="SVGID_00000025435733343237727490000009719814587497563540_">
		<use xlink:href="#SVGID_00000170973496478128125510000005106025044298897824_"  style="overflow:visible;"/>
	</clipPath>
	<path id="path160-5-6-1" style="clip-path:url(#SVGID_00000025435733343237727490000009719814587497563540_);fill:#CF8034;" d="
		M108.2,94.9c12.9-17.7,31.2-33.1,50.2-46c9.4-6.4,19.5-12,29.9-17c9.9-4.7,20.8-7.4,30.8-11.8c1.3-0.6,0.6-2.3-0.8-2.2
		c-10.8,0.5-21.2,5.1-30.7,9.2c-12.2,5.2-23.3,11.9-33.9,19.3c-19.2,13.4-34.6,29.5-47.4,47.7C105.7,95,107.5,95.9,108.2,94.9
		L108.2,94.9"/>
</g>
<g>
	<defs>
		<path id="SVGID_00000153664820139172783320000007791199776557676201_" d="M68.2,196.5c21.9-14.9,52.2-18.8,79.2-19.6
			c26.8-0.8,57.1,1.7,80.6,13.9c4.7,2.4,10.7-0.9,10.6-5.5c-0.4-22.8-7.9-46.4-33.4-57.2c-3.8-1.6-7.7-2.8-11.7-3.6
			c-2.1-10.8-5.2-21.3-8.2-31.8c-4-13.9-7.5-27.7-10.9-41.8c-3.9-16.2-12-38.8-26.4-41.9c-0.4-0.3-0.9-0.4-1.4-0.4
			c-0.5,0-1,0-1.5,0.1c-0.5,0-0.9,0-1.4,0c-0.5,0-1,0.2-1.4,0.5c-13.8,3.6-20.7,25.5-23.9,41.4c-2.8,13.9-5.3,27.7-8.5,41.5
			c-2.6,11.1-5.3,22.2-7,33.5c-10.2,1.9-19.8,6-27.8,13c-16.3,14.1-18,34.1-17.7,52.8C57.5,195.6,63.8,199.5,68.2,196.5L68.2,196.5z
			"/>
	</defs>
	<clipPath id="SVGID_00000100345510045618954250000008521813443785846693_">
		<use xlink:href="#SVGID_00000153664820139172783320000007791199776557676201_"  style="overflow:visible;"/>
	</clipPath>
	<path id="path162-9-1-9" style="clip-path:url(#SVGID_00000100345510045618954250000008521813443785846693_);fill:#CF8034;" d="
		M99.6,71.2c16.1-11.8,30.6-25.2,46.3-37.5c8.1-6.3,16.6-12.1,25.9-17c4.6-2.4,9.4-4.5,14.4-6.4c4.8-1.8,10.3-2.7,14.6-5.3
		c1.5-0.9,0.8-2.7-1-2.8c-9.6-0.7-21.1,5.3-29.3,9.3c-9.3,4.5-17.7,10.3-25.7,16.3c-17.1,12.7-31.6,27.7-48.3,40.8
		C94.6,70.3,97.6,72.7,99.6,71.2L99.6,71.2"/>
</g>
<g>
	<defs>
		<path id="SVGID_00000180326825444636183550000013423399371767454888_" d="M68.2,196.5c21.9-14.9,52.2-18.8,79.2-19.6
			c26.8-0.8,57.1,1.7,80.6,13.9c4.7,2.4,10.7-0.9,10.6-5.5c-0.4-22.8-7.9-46.4-33.4-57.2c-3.8-1.6-7.7-2.8-11.7-3.6
			c-2.1-10.8-5.2-21.3-8.2-31.8c-4-13.9-7.5-27.7-10.9-41.8c-3.9-16.2-12-38.8-26.4-41.9c-0.4-0.3-0.9-0.4-1.4-0.4
			c-0.5,0-1,0-1.5,0.1c-0.5,0-0.9,0-1.4,0c-0.5,0-1,0.2-1.4,0.5c-13.8,3.6-20.7,25.5-23.9,41.4c-2.8,13.9-5.3,27.7-8.5,41.5
			c-2.6,11.1-5.3,22.2-7,33.5c-10.2,1.9-19.8,6-27.8,13c-16.3,14.1-18,34.1-17.7,52.8C57.5,195.6,63.8,199.5,68.2,196.5L68.2,196.5z
			"/>
	</defs>
	<clipPath id="SVGID_00000020371959345409029370000005978566719511611833_">
		<use xlink:href="#SVGID_00000180326825444636183550000013423399371767454888_"  style="overflow:visible;"/>
	</clipPath>
	<path id="path164-1-7-0" style="clip-path:url(#SVGID_00000020371959345409029370000005978566719511611833_);fill:#CF8034;" d="
		M171.4,118.6c6.9-7.9,15.5-14.9,24.2-21.3c8.8-6.4,19.9-10.6,28.2-17.4c1.2-1-0.2-2.4-1.5-2.1c-10.7,1.8-20.5,9.3-28.6,15.1
		c-9.8,7-17.7,15.1-24.1,24.6C168.9,118.4,170.6,119.5,171.4,118.6L171.4,118.6"/>
</g>
</svg>
