<?xml version="1.0" encoding="utf-8"?>
<!-- Generator: Adobe Illustrator 26.0.2, SVG Export Plug-In . SVG Version: 6.00 Build 0)  -->
<svg version="1.1"
	 id="svg1" inkscape:export-filename="coin.svg" sodipodi:docname="play ui.eps" xmlns:inkscape="http://www.inkscape.org/namespaces/inkscape" xmlns:sodipodi="http://sodipodi.sourceforge.net/DTD/sodipodi-0.dtd" xmlns:svg="http://www.w3.org/2000/svg"
	 xmlns="http://www.w3.org/2000/svg" xmlns:xlink="http://www.w3.org/1999/xlink" x="0px" y="0px" viewBox="0 0 1500 900"
	 style="enable-background:new 0 0 1500 900;" xml:space="preserve">
<style type="text/css">
	.st0{clip-path:url(#SVGID_00000049902304488440013580000018043185222701261462_);fill:#DC8689;}
	.st1{clip-path:url(#SVGID_00000082359646010433223130000004551365232339060409_);fill:#FFDBB3;}
	.st2{clip-path:url(#SVGID_00000041270038481420965540000016568896585979867819_);fill:#DC8689;}
	.st3{clip-path:url(#SVGID_00000042719450387890476630000015041678111524743592_);fill:#F54842;}
	.st4{fill:#FFFFFF;}
	.st5{font-family:'Arial-Black';}
	.st6{font-size:315.2014px;}
</style>
<sodipodi:namedview  bordercolor="#000000" borderopacity="0.25" id="namedview1" inkscape:current-layer="layer11" inkscape:cx="1571.4053" inkscape:cy="703.28628" inkscape:deskcolor="#d1d1d1" inkscape:document-units="mm" inkscape:pagecheckerboard="0" inkscape:pageopacity="0.0" inkscape:showpageshadow="2" inkscape:window-height="741" inkscape:window-maximized="0" inkscape:window-width="1328" inkscape:window-x="63" inkscape:window-y="42" inkscape:zoom="0.13650202" pagecolor="#ffffff">
	<inkscape:page  bleed="0" height="600" id="page2" margin="0" width="800" x="0" y="0"></inkscape:page>
</sodipodi:namedview>
<defs>
	
		<inkscape:path-effect  apply_no_radius="true" apply_with_radius="true" chamfer_steps="1" effect="fillet_chamfer" flexible="false" hide_knots="false" id="path-effect433" is_visible="true" lpeversion="1" method="auto" mode="F" nodesatellites_param="F,0,0,1,0,0,0,1 @ F,0,0,1,0,11.718887,0,1 @ F,0,0,1,0,6.058096,0,1 @ F,0,0,1,0,0,0,1 @ F,0,0,1,0,0,0,1" only_selected="false" radius="0" unit="px" use_knot_distance="true">
		</inkscape:path-effect>
	
		<inkscape:path-effect  apply_no_radius="true" apply_with_radius="true" chamfer_steps="1" effect="fillet_chamfer" flexible="false" hide_knots="false" id="path-effect432" is_visible="true" lpeversion="1" method="auto" mode="F" nodesatellites_param="F,0,0,1,0,0,0,1 @ F,0,0,1,0,11.114987,0,1 @ F,0,0,1,0,8.8756196,0,1 @ F,0,0,1,0,0,0,1 @ F,0,0,1,0,0,0,1" only_selected="false" radius="0" unit="px" use_knot_distance="true">
		</inkscape:path-effect>
</defs>
<g id="layer1" transform="matrix(0.95429627,0,0,0.99547513,16.834683,3.5210986)" inkscape:groupmode="layer" inkscape:label="cat">
	<g id="g434" transform="matrix(0.57407882,0,0,0.81321694,-131.67713,440.85636)" inkscape:label="Done">
		<g>
			<defs>
				<rect id="SVGID_1_" x="636.6" y="-713.7" width="3315.8" height="4899.7"/>
			</defs>
			<clipPath id="SVGID_00000156589777176399130750000015136915387864498059_">
				<use xlink:href="#SVGID_1_"  style="overflow:visible;"/>
			</clipPath>
			<path id="path2-3" style="clip-path:url(#SVGID_00000156589777176399130750000015136915387864498059_);fill:#DC8689;" d="
				M522.1-186.7c403.6-17.8,2089.9-138.1,2164.3-85c2.3,1.7,53.2,88.8,55.3,91.2c67.2,76.4,36.3,488.8-4.1,509.4
				C2695.9,350.1,546.9,375,433,292.1C319.1,209.3,522.1-186.7,522.1-186.7"/>
		</g>
		<g>
			<defs>
				<rect id="SVGID_00000119826421587474515180000009332997075796767934_" x="636.6" y="-713.7" width="3315.8" height="4899.7"/>
			</defs>
			<clipPath id="SVGID_00000163047509898331517380000004234230795748061884_">
				<use xlink:href="#SVGID_00000119826421587474515180000009332997075796767934_"  style="overflow:visible;"/>
			</clipPath>
			<path id="path4" style="clip-path:url(#SVGID_00000163047509898331517380000004234230795748061884_);fill:#FFDBB3;" d="
				M469.1-275.6c403.6-17.8,2138.4-53.1,2212.9,0c74.5,53.1,65.5,531.8,23.8,553.1c-41.7,21.3-2210.1,30.6-2324-52.3
				C267.9,142.3,469.1-275.6,469.1-275.6"/>
		</g>
		<g>
			<defs>
				<rect id="SVGID_00000151506441432327281490000005780405698011415988_" x="636.6" y="-713.7" width="3315.8" height="4899.7"/>
			</defs>
			<clipPath id="SVGID_00000103234256127213856780000013693842793227648647_">
				<use xlink:href="#SVGID_00000151506441432327281490000005780405698011415988_"  style="overflow:visible;"/>
			</clipPath>
			
				<path id="path6-7" inkscape:original-d="m 0,0 c -5.523,-6.285 -173.629,-1.896 -173.629,-1.896 v 35.445 c 0,0 167.509,3.517 172.273,-1.745 C 3.408,26.542 5.523,6.285 0,0" inkscape:path-effect="#path-effect433" style="clip-path:url(#SVGID_00000103234256127213856780000013693842793227648647_);fill:#DC8689;" d="
				M2626.3,182.9c-56.1,63.8-1497,36.7-1959.9,26.3C588,207.4,524.5,142.3,524.5,64v-213.9c0-40.5,32.8-74,73.3-74.8
				c363.9-6.9,1960.9-33.9,2012,22.6C2667.5-138.4,2693.1,106.8,2626.3,182.9"/>
		</g>
		<g>
			<defs>
				<rect id="SVGID_00000106128724643629623530000001844397766864601249_" x="683.4" y="-713.7" width="3236.6" height="4899.7"/>
			</defs>
			<clipPath id="SVGID_00000067930182433800001120000010685376714956951196_">
				<use xlink:href="#SVGID_00000106128724643629623530000001844397766864601249_"  style="overflow:visible;"/>
			</clipPath>
			
				<path id="path8-3" inkscape:original-d="m 0,0 c -4.103,-5.214 -168.833,-1.573 -168.833,-1.573 v 29.406 c 0,0 164.288,2.918 167.826,-1.447 C 2.531,22.02 4.103,5.214 0,0" inkscape:path-effect="#path-effect432" style="clip-path:url(#SVGID_00000067930182433800001120000010685376714956951196_);fill:#F54842;" d="
				M2568.9,150.6c-40.8,53.1-1425.8,30.3-1863.6,21.8c-72.5-1.4-131.3-63-131.3-137.3v-114c0-59.3,46.9-108.3,104.9-109.2
				c404.4-6.4,1842.3-26.1,1878.2,19.3C2598.8-116,2617.4,87.5,2568.9,150.6"/>
		</g>
		<text transform="matrix(1.8703 0 0 1.2353 750.1696 128.0679)" class="st4 st5 st6">Done</text>
	</g>
</g>
</svg>
