<svg xmlns="http://www.w3.org/2000/svg" viewBox="0 0 300 200">
  <!-- 冰淇淋桶 -->
  <path d="M50 50 L50 150 C50 170, 250 170, 250 150 L250 50 C250 30, 50 30, 50 50 Z" fill="#F5F5DC" stroke="#D2B48C" stroke-width="3"/>
  
  <!-- 桶身裝飾 -->
  <path d="M50 50 C50 30, 250 30, 250 50" fill="none" stroke="#D2B48C" stroke-width="3"/>
  
  <!-- 草莓冰淇淋 -->
  <path d="M60 45 L60 140 C60 155, 240 155, 240 140 L240 45 C240 30, 60 30, 60 45 Z" fill="#FFB6C1" stroke="#FF69B4" stroke-width="1"/>
  
  <!-- 冰淇淋表面紋理 -->
  <path d="M80 40 C100 35, 120 45, 140 35 C160 45, 180 35, 200 40 C220 35, 240 45, 240 45" fill="none" stroke="#FF69B4" stroke-width="2"/>
  
  <!-- 草莓果肉裝飾 -->
  <circle cx="90" cy="60" r="5" fill="#FF0000"/>
  <circle cx="150" cy="70" r="5" fill="#FF0000"/>
  <circle cx="200" cy="55" r="5" fill="#FF0000"/>
  <circle cx="110" cy="100" r="5" fill="#FF0000"/>
  <circle cx="180" cy="110" r="5" fill="#FF0000"/>
  <circle cx="140" cy="120" r="5" fill="#FF0000"/>
  <circle cx="210" cy="90" r="5" fill="#FF0000"/>
</svg>