<svg xmlns="http://www.w3.org/2000/svg" viewBox="0 0 300 200">
  <!-- 冰淇淋桶 -->
  <path d="M50 50 L50 150 C50 170, 250 170, 250 150 L250 50 C250 30, 50 30, 50 50 Z" fill="#F5F5DC" stroke="#D2B48C" stroke-width="3"/>
  
  <!-- 桶身裝飾 -->
  <path d="M50 50 C50 30, 250 30, 250 50" fill="none" stroke="#D2B48C" stroke-width="3"/>
  
  <!-- 香草冰淇淋 -->
  <path d="M60 45 L60 140 C60 155, 240 155, 240 140 L240 45 C240 30, 60 30, 60 45 Z" fill="#FFFDD0" stroke="#F5F5DC" stroke-width="1"/>
  
  <!-- 冰淇淋表面紋理 -->
  <path d="M80 40 C100 35, 120 45, 140 35 C160 45, 180 35, 200 40 C220 35, 240 45, 240 45" fill="none" stroke="#F0E68C" stroke-width="2"/>
  
  <!-- 香草豆裝飾 -->
  <line x1="90" y1="60" x2="95" y2="65" stroke="#8B4513" stroke-width="1"/>
  <line x1="120" y1="80" x2="125" y2="85" stroke="#8B4513" stroke-width="1"/>
  <line x1="160" y1="55" x2="165" y2="60" stroke="#8B4513" stroke-width="1"/>
  <line x1="200" y1="70" x2="205" y2="75" stroke="#8B4513" stroke-width="1"/>
  <line x1="110" y1="100" x2="115" y2="105" stroke="#8B4513" stroke-width="1"/>
  <line x1="180" y1="110" x2="185" y2="115" stroke="#8B4513" stroke-width="1"/>
  <line x1="140" y1="120" x2="145" y2="125" stroke="#8B4513" stroke-width="1"/>
</svg>